SplineFontDB: 3.0
FontName: FrankRuehlCLM-MediumOblique
FullName: Frank Ruehl CLM Medium Oblique
FamilyName: Frank Ruehl CLM
Weight: Medium
Copyright: Copyright (c) 2002-2011 by Maxim Iorsh (iorsh@users.sourceforge.net).\nDistributed under the terms of GNU General Public License version 2(http://www.gnu.org/licenses/gpl.html). \nLatin glyphs, digits and punctuation: portions of Century Schoolbook L Italic ver. 1.06 Copyright (URW)++,Copyright 1999 by (URW)++ Design & Development.\nAll rights reserved.
UComments: "2002-7-16: Created." 
Version: 0.121
ItalicAngle: -15
UnderlinePosition: -170
UnderlineWidth: 70
Ascent: 960
Descent: 240
LayerCount: 2
Layer: 0 0 "Back"  1
Layer: 1 0 "Fore"  0
NeedsXUIDChange: 1
FSType: 0
OS2Version: 0
OS2_WeightWidthSlopeOnly: 0
OS2_UseTypoMetrics: 0
CreationTime: 1163025783
ModificationTime: 1324323530
PfmFamily: 17
TTFWeight: 500
TTFWidth: 5
LineGap: 90
VLineGap: 0
Panose: 2 0 6 3 0 0 0 0 0 0
OS2TypoAscent: 0
OS2TypoAOffset: 1
OS2TypoDescent: 0
OS2TypoDOffset: 1
OS2TypoLinegap: 0
OS2WinAscent: 0
OS2WinAOffset: 1
OS2WinDescent: 0
OS2WinDOffset: 1
HheadAscent: 0
HheadAOffset: 1
HheadDescent: 0
HheadDOffset: 1
OS2Vendor: 'CLM '
Lookup: 6 1 0 "ccmpAltAyin"  {"ccmpAltAyin subtable"  } ['ccmp' ('hebr' <'dflt' > ) ]
Lookup: 1 1 0 "Single Substitution lookup 1"  {"Single Substitution lookup 1 subtable"  } []
Lookup: 6 1 0 "ccmpVavHolam"  {"ccmpVavHolam subtable"  } ['ccmp' ('hebr' <'dflt' > ) ]
Lookup: 1 1 0 "salt MiscSAlt"  {"MiscSAlt"  } ['salt' ('hebr' <'dflt' > ) ]
Lookup: 4 1 0 "ccmp AlephLamed2"  {"AlephLamed2"  } ['ccmp' ('hebr' <'JUD ' > ) ]
Lookup: 4 1 0 "dlig AlephLamed"  {"AlephLamed"  } ['dlig' ('hebr' <'dflt' > ) ]
Lookup: 4 1 0 "ccmp CustomPrecomp"  {"CustomPrecomp"  } ['ccmp' ('hebr' <'dflt' > ) ]
Lookup: 1 1 0 "jalt WideLetters"  {"WideLetters"  } ['jalt' ('hebr' <'dflt' > ) ]
Lookup: 1 1 0 "ccmp Yiddish2"  {"Yiddish2"  } ['ccmp' ('hebr' <'JII ' > ) ]

StartChar: exclam
Encoding: 33 33 0
Width: 305
VWidth: 1000
Flags: HMW
HStem: 259.083 24.9826
LayerCount: 2
Back
SplineSet
120.606 289 m 2
 84.3994 548.173 l 2
 81.5488 569.193 78.9121 594.4 78.9121 610 c 0
 78.9121 672 103.062 704 150.212 704 c 0
 197.361 704 220.361 673 220.361 609 c 0
 220.361 593.689 217.641 570.941 214.645 548.673 c 2
 178.655 289 l 2
 167.029 205.111 132.117 206.608 120.606 289 c 2
84.124 95.75 m 2
 135.312 164 l 2
 147.702 180.52 154.632 180.24 166.812 164 c 2
 218 95.75 l 2
 225.78 85.376 226.032 74.96 218 64.25 c 2
 166.812 -4 l 2
 154.254 -20.7441 148.038 -20.9678 135.312 -4 c 2
 84.124 64.25 l 2
 75.3779 75.9121 75.9238 84.8164 84.124 95.75 c 2
EndSplineSet
Fore
SplineSet
170.125 260.329 m 10
 166.479 251.36 162.894 246.88 155.24 239 c 0
 136.137 219.333 132.56 219.667 123.74 239 c 0
 120.489 246.128 118.97 251.342 120.122 260.339 c 18
 156.982 548.173 l 2
 159.673 569.182 163.881 594.4 168.062 610 c 0
 184.674 672 217.398 704 264.548 704 c 0
 311.697 704 326.391 673 309.242 609 c 0
 305.14 593.689 296.41 570.93 287.361 548.673 c 2
 170.125 260.329 l 10
36.2773 96.2227 m 6
 105.789 166.52 l 6
 122.614 183.535 129.396 183.247 136.973 166.52 c 6
 168.812 96.2227 l 6
 173.652 85.5371 171.027 74.8086 160.119 63.7773 c 6
 90.6074 -6.51953 l 6
 73.5537 -23.7666 67.3379 -23.9971 59.4229 -6.51953 c 6
 27.583 63.7773 l 6
 22.1426 75.7891 25.1416 84.9609 36.2773 96.2227 c 6
EndSplineSet
EndChar

StartChar: quotedbl
Encoding: 34 34 1
Width: 427
VWidth: 1000
Flags: HMW
LayerCount: 2
Fore
SplineSet
85.0508 378 m 1
 165.614 624.399 l 2
 168.312 632.1 171.849 638.7 175.385 645.3 c 0
 195.428 682.7 230.938 703.6 272.407 703.6 c 0
 315.307 703.6 329.007 683.8 308.375 645.3 c 0
 304.838 638.7 300.712 631 295.745 624.399 c 2
 112.22 378 l 1
 85.0508 378 l 1
274.518 378 m 1
 355.083 624.399 l 2
 357.78 632.1 361.318 638.7 364.854 645.3 c 0
 384.896 682.7 421.838 703.6 463.306 703.6 c 4
 504.777 703.6 519.318 682.7 499.863 646.399 c 0
 495.738 638.7 490.771 632.1 485.213 624.399 c 2
 301.688 378 l 1
 274.518 378 l 1
EndSplineSet
EndChar

StartChar: numbersign
Encoding: 35 35 2
Width: 570
VWidth: 1000
Flags: HMW
HStem: 0 21G<102 174 297 369> 218 66<33 133 215 328 410 511> 416 66<60 162 243 357 438 538>
DStem2: 102 0 174 0 0.143455 0.989657<10.3288 220.278 297.202 420.305 497.309 693.107> 297 0 369 0 0.143455 0.989657<10.3288 220.278 297.202 420.305 497.309 693.107>
LayerCount: 2
Back
SplineSet
135 228 m 1
 33 228 l 1
 33 284 l 1
 143 284 l 1
 162 416 l 1
 60 416 l 1
 60 472 l 1
 170 472 l 1
 201 686 l 1
 266 686 l 1
 235 472 l 1
 358 472 l 1
 389 686 l 1
 454 686 l 1
 423 472 l 1
 524 472 l 1
 524 416 l 1
 415 416 l 1
 396 284 l 1
 497 284 l 1
 497 228 l 1
 388 228 l 1
 355 0 l 1
 290 0 l 1
 323 228 l 1
 200 228 l 1
 167 0 l 1
 102 0 l 1
 135 228 l 1
227 416 m 1
 208 284 l 1
 331 284 l 1
 350 416 l 1
 227 416 l 1
EndSplineSet
Fore
SplineSet
115.013 218 m 1
 14.4131 218 l 1
 32.0977 284 l 1
 142.098 284 l 1
 196.467 416 l 1
 94.4668 416 l 1
 112.151 482 l 1
 223.552 482 l 1
 307.813 686 l 1
 379.813 686 l 1
 295.552 482 l 1
 418.552 482 l 1
 502.813 686 l 1
 574.813 686 l 1
 490.552 482 l 1
 590.151 482 l 1
 572.467 416 l 1
 463.467 416 l 1
 409.098 284 l 1
 510.098 284 l 1
 492.413 218 l 1
 382.013 218 l 1
 292 0 l 1
 220 0 l 1
 310.013 218 l 1
 187.013 218 l 1
 97 0 l 1
 25 0 l 1
 115.013 218 l 1
268.467 416 m 1
 214.098 284 l 1
 337.098 284 l 1
 391.467 416 l 1
 268.467 416 l 1
EndSplineSet
EndChar

StartChar: dollar
Encoding: 36 36 3
Width: 556
VWidth: 1000
Flags: HW
HStem: 460 20G<390.25 434.5>
VStem: 45 141<148 172.438> 243 63<-130 -9 42 288 430 643 694 801> 387 93<550 605>
LayerCount: 2
Back
SplineSet
298 801 m 1
 298 697 l 1
 407 689 480 630 480 550 c 0
 480 506 456 480 418 480 c 0
 382 480 358 503 358 538 c 0
 358 561 365 572 394 593 c 0
 397 596 400 600 400 603 c 0
 400 624 352 647 298 652 c 1
 298 405 l 1
 304 403 307 402 321 398 c 0
 395 376 432 358 463 328 c 0
 494 297 510 255 510 202 c 0
 510 76 430 -3 298 -10 c 1
 298 -130 l 1
 251 -130 l 1
 251 -11 l 1
 210 -9 191 -6 163 3 c 0
 90 27 45 82 45 148 c 0
 45 198 75 234 116 234 c 0
 150 234 177 207 177 172 c 0
 177 143 165 127 131 107 c 0
 125 104 123 101 123 96 c 0
 123 65 179 37 251 32 c 1
 251 311 l 1
 198 327 168 339 142 354 c 0
 88 387 58 442 58 507 c 0
 58 611 129 681 251 696 c 1
 251 801 l 1
 298 801 l 1
251 420 m 1
 251 650 l 1
 180 644 130 598 130 539 c 0
 130 481 163 449 251 420 c 1
298 298 m 1
 298 33 l 1
 324 36 336 39 353 46 c 0
 403 67 436 115 436 166 c 0
 436 220 403 261 340 285 c 0
 327 290 327 290 298 298 c 1
EndSplineSet
Fore
SplineSet
352.205 694.927 m 1
 380.627 801 l 5
 443.627 801 l 5
 415.577 696.315 l 1
 517.391 686.076 571.279 628.027 550.372 550 c 0
 538.582 506 509.115 480 463.115 480 c 0
 420.615 480 405.618 508 414.712 541.938 c 0
 420.456 563.375 431.875 578 463.614 595.688 c 0
 467.655 597.938 471.359 602.203 472.109 605 c 0
 475.927 619.246 449.209 637.354 401.325 643.127 c 1
 339.26 411.495 l 1
 353.131 407.281 l 0
 414.964 388 449.753 362.953 473.263 335 c 0
 496.526 306.125 503.873 264.5 487.126 202 c 0
 454.052 78.5664 356.289 0.237305 226.459 -9.4834 c 1
 194.167 -130 l 5
 131.167 -130 l 5
 163.165 -10.5801 l 1
 128.103 -8.56836 110.668 -5.39355 86.8037 3 c 0
 20.2344 27 -10.0283 82 7.65625 148 c 0
 21.0537 198 58.7002 234 108.7 234 c 0
 147.2 234 163.942 205.047 155.205 172.438 c 0
 147.966 145.422 131.592 123.5 94.501 104.5 c 0
 87.9082 101.125 85.002 98.9062 83.7539 94.25 c 0
 78.2744 73.7988 111.82 48.6299 177.419 42.6162 c 1
 247.525 304.256 l 1
 203.292 318.606 179.353 334.823 158.282 350 c 0
 113.702 382.125 99.4336 442 116.851 507 c 0
 144.103 608.706 230.543 677.895 352.205 694.927 c 1
281.308 430.335 m 1
 337.828 641.273 l 1
 274.888 633.511 218.891 587.39 205.832 538.656 c 0
 194.887 497.806 207.061 457.382 281.308 430.335 c 1
306.22 288.188 m 1
 240.745 43.835 l 1
 262.1 46.2881 274.087 48.8486 290.75 55.0469 c 0
 339.061 73 380.108 110.5 395.206 166.844 c 0
 408.913 218 387.961 255.5 337.415 277.719 c 0
 328.174 281.771 316.765 285.622 306.22 288.188 c 1
EndSplineSet
EndChar

StartChar: percent
Encoding: 37 37 4
Width: 848
VWidth: 1000
Flags: HMW
LayerCount: 2
Back
SplineSet
665 722 m 1
 251 0 l 1
 186 0 l 1
 546 631 l 1
 509 609 484 602 450 602 c 0
 429 602 412 605 387 614 c 1
 389 599 390 591 390 582 c 0
 390 521 362 448 319 397 c 0
 275 345 229 321 173 321 c 0
 99 321 45 373 45 445 c 0
 45 512 92 605 151 656 c 0
 190 689 235 708 278 708 c 0
 318 708 343 695 369 661 c 1
 399 644 417 639 442 639 c 0
 506 639 564 668 604 722 c 1
 665 722 l 1
286 669 m 1
 245 655 232 643 194 576 c 0
 147 494 132 455 132 418 c 0
 132 383 155 359 188 359 c 0
 268 359 353 477 353 587 c 0
 353 602 352 612 347 628 c 1
 319 638 304 648 286 669 c 1
690 401 m 0
 758 401 807 351 807 282 c 0
 807 223 777 146 731 89 c 0
 694 42 642 15 590 15 c 0
 515 15 460 66 460 136 c 0
 460 192 487 261 529 314 c 0
 575 370 631 401 690 401 c 0
707 361 m 0
 676 361 650 339 619 288 c 0
 566 202 545 151 545 111 c 0
 545 79 570 54 601 54 c 0
 681 54 769 171 769 280 c 0
 769 325 741 361 707 361 c 0
EndSplineSet
Fore
SplineSet
472.405 598.642 m 1
 471.805 595.538 471.358 591 468.946 582 c 0
 452.602 521 405.041 448 348.376 397 c 0
 290.442 345 238.012 321 182.012 321 c 0
 108.012 321 67.9453 373 87.2373 445 c 0
 105.19 512 177.109 605 249.774 656 c 0
 297.617 689 347.708 708 390.708 708 c 0
 430.708 708 452.225 695 469.114 661 c 1
 494.56 644 511.22 639 536.22 639 c 0
 600.22 639 665.99 668 720.459 722 c 1
 781.459 722 l 1
 174 0 l 1
 109 0 l 1
 629.129 620 l 1
 586.233 598 554.358 591 520.358 591 c 0
 503.203 591 489.254 593.002 472.405 598.642 c 1
379.755 653.5 m 1
 339.479 640.9 324.885 630.1 274.527 569.8 c 0
 212.453 496 189.548 460.9 180.625 427.6 c 0
 172.185 396.1 187.097 374.5 216.797 374.5 c 0
 288.797 374.5 393.753 480.7 420.28 579.7 c 0
 423.897 593.2 425.409 602.2 424.768 616.6 c 1
 401.979 625.6 390.891 634.6 379.755 653.5 c 1
720.447 401 m 0
 788.447 401 824.05 351 805.562 282 c 0
 789.753 223 739.121 146 677.848 89 c 0
 628.254 42 569.02 15 517.02 15 c 0
 442.02 15 400.685 66 419.441 136 c 0
 434.446 192 479.935 261 536.136 314 c 0
 597.142 370 661.447 401 720.447 401 c 0
717.616 345.65 m 0
 689.717 345.65 661.012 325.85 620.812 279.95 c 0
 552.373 202.55 521.174 156.65 511.528 120.65 c 0
 503.811 91.8496 520.282 69.3496 548.182 69.3496 c 0
 620.182 69.3496 727.598 174.65 753.883 272.75 c 0
 764.735 313.25 748.217 345.65 717.616 345.65 c 0
EndSplineSet
EndChar

StartChar: ampersand
Encoding: 38 38 5
Width: 815
VWidth: 1000
Flags: HW
HStem: -15 68<282 302> -11 79<623.5 632> 694 43<331.5 377>
VStem: 51 107<193 234> 182 94<576.5 613> 433 80<575.5 627.5>
LayerCount: 2
Fore
SplineSet
699.283 169 m 1x7c
 741.676 163 l 1
 726.226 124 709.455 95 681.417 65 c 0
 632.216 12 584.053 -11 520.053 -11 c 0x7c
 465.053 -11 430.876 7 396.005 56 c 1
 317.607 6 256.98 -15 184.98 -15 c 0xbc
 117.98 -15 69.6074 6 43.3252 46 c 0
 18.5078 84 11.5127 140 24.6426 189 c 0
 48.7578 279 130.658 357 257.127 411 c 1
 243.812 477 243.262 516 255.052 560 c 0
 283.454 666 372.479 737 477.479 737 c 0
 570.479 737 618.741 682 597.306 602 c 0
 583.104 549 538.367 494 483.793 462 c 0
 452.97 444 433.558 435 373.127 411 c 1
 403.652 301 434.217 221 467.676 163 c 1
 524.073 213 566.614 271 578.136 314 c 0
 586.442 345 559.729 361 500.729 361 c 2
 490.729 361 l 1
 502.252 404 l 1
 784.252 404 l 1
 772.729 361 l 1
 761.729 361 l 2
 729.729 361 699.05 351 676.495 334 c 1
 654.672 316 654.672 316 581.289 225 c 0
 548.57 185 545.499 181 489.565 129 c 1
 518.044 86 546.221 68 583.221 68 c 0
 627.221 68 670.402 106 699.283 169 c 1x7c
363.381 453 m 1
 386.061 463 387.061 463 396.4 468 c 0
 461.707 499 501.496 543 516.77 600 c 0
 531.507 655 508.957 694 462.957 694 c 0
 417.957 694 373.971 653 358.43 595 c 0
 348.516 558 350.458 513 363.381 453 c 1
265.142 370 m 1
 195.763 335 160.849 298 146.111 243 c 0
 119.316 143 175.201 53 263.201 53 c 0xbc
 296.201 53 322.613 62 374.115 90 c 1
 315.643 189 296.308 240 265.142 370 c 1
EndSplineSet
EndChar

StartChar: quotesingle
Encoding: 39 39 6
Width: 239
VWidth: 1000
Flags: HMW
LayerCount: 2
Fore
SplineSet
85.2744 378 m 1
 165.839 624.399 l 2
 168.536 632.1 172.071 638.7 175.608 645.3 c 0
 195.651 682.7 231.162 703.6 272.632 703.6 c 4
 315.531 703.6 329.23 683.8 308.599 645.3 c 0
 305.062 638.7 300.935 631 295.969 624.399 c 2
 112.443 378 l 1
 85.2744 378 l 1
EndSplineSet
EndChar

StartChar: parenleft
Encoding: 40 40 7
Width: 348
VWidth: 1000
Flags: HMW
HStem: 716 20<294 294>
VStem: 51 103<250 367.5>
LayerCount: 2
Fore
SplineSet
399.211 736 m 1
 403.492 696 l 1
 279.913 608 209.902 496 158.457 304 c 0
 107.011 112 116.732 -1 193.152 -89 c 1
 169.042 -123 l 1
 112.296 -81 86.335 -51 61.1963 -3 c 1
 18.0439 86 10.7139 193 41.2607 307 c 0
 73.6826 428 145.496 543 245.612 633 c 0
 290.33 673 329.297 699 399.211 736 c 1
EndSplineSet
EndChar

StartChar: parenright
Encoding: 41 41 8
Width: 348
VWidth: 1000
Flags: HMW
HStem: 716 20<69 69>
VStem: 209 103<246.5 364>
LayerCount: 2
Fore
SplineSet
-40.958 -123 m 5
 -46.0439 -86 l 1
 77.5361 2 147.546 114 199.261 307 c 0
 250.707 499 240.717 611 164.297 699 c 1
 189.211 736 l 5
 246.225 695 272.187 665 297.057 616 c 4
 340.478 528 347.807 421 317.261 307 c 4
 284.839 186 212.757 70 112.909 -19 c 4
 67.9229 -60 28.9561 -86 -40.958 -123 c 5
EndSplineSet
EndChar

StartChar: asterisk
Encoding: 42 42 9
Width: 517
VWidth: 1000
Flags: HMW
HStem: 716 20<247.956 268.956>
VStem: 248.456 21<464 500 537 573>
LayerCount: 2
Back
SplineSet
239 537 m 1
 239 573 l 2
 239 605 237 613 216 662 c 0
 211 674 208 685 208 692 c 0
 208 714 228 736 249 736 c 0
 270 736 291 715 291 692 c 0
 291 682 290 678 274 640 c 0
 264 618 260 597 260 573 c 2
 260 537 l 1
 291 555 l 2
 318 571 330 583 357 620 c 0
 372 641 383 648 401 648 c 0
 424 648 443 631 443 609 c 0
 443 581 425 565 391 561 c 0
 345 556 330 552 302 536 c 2
 271 518 l 1
 302 500 l 2
 330 485 343 481 391 476 c 0
 425 472 443 456 443 428 c 0
 443 406 424 389 401 389 c 0
 383 389 372 396 357 417 c 0
 330 454 318 466 291 482 c 2
 260 500 l 1
 260 464 l 2
 260 432 263 422 283 374 c 0
 288 362 291 351 291 343 c 0
 291 322 270 300 249 300 c 0
 228 300 207 322 207 344 c 0
 207 351 210 362 215 374 c 0
 237 423 239 432 239 464 c 2
 239 500 l 1
 208 482 l 2
 180 465 169 454 142 416 c 0
 127 396 116 389 98 389 c 0
 75 389 56 406 56 428 c 0
 56 456 74 472 108 476 c 0
 155 481 169 485 197 501 c 2
 228 518 l 1
 197 536 l 2
 170 552 154 556 108 561 c 0
 74 564 56 581 56 609 c 0
 56 630 75 648 98 648 c 0
 116 648 127 641 142 620 c 0
 169 583 182 570 208 555 c 2
 239 537 l 1
EndSplineSet
Fore
SplineSet
297.431 491.088 m 1
 261.43 473.087 l 2
 229.431 457.088 219.286 455.017 175.913 412.329 c 0
 165.253 402 155.058 393.901 148.057 390.401 c 0
 126.057 379.401 98.6963 385.722 93.0703 403.908 c 0
 87.4434 422.095 102.816 450.781 125.816 462.282 c 0
 135.816 467.281 140.085 468.415 182.372 473.56 c 0
 207.051 475.899 229.123 487.935 253.122 499.935 c 2
 289.123 517.936 l 1
 262.816 535.781 l 2
 239.582 551.164 227.047 560.557 182.812 565.438 c 0
 157.793 567.93 147.846 573.956 143.021 589.545 c 0
 136.859 609.463 148.768 634.417 170.768 645.417 c 0
 198.768 659.418 219.592 651.829 232.7 624.384 c 0
 250.027 587.047 262.688 579.716 286.189 563.468 c 2
 312.497 545.621 l 1
 322.19 581.469 l 2
 329.688 613.217 335.562 627.815 327.701 671.885 c 0
 322.592 703.329 333.768 726.917 361.768 740.918 c 0
 383.768 751.918 405.859 743.962 412.022 724.044 c 0
 416.846 708.456 412.793 695.43 395.812 671.939 c 0
 366.047 630.057 361.902 612.324 353.137 580.941 c 2
 343.444 545.096 l 1
 379.443 563.096 l 2
 411.443 579.096 423.32 583.033 465.961 624.354 c 0
 476.621 634.683 486.816 642.781 494.816 646.782 c 0
 515.816 657.282 543.443 650.096 549.07 631.909 c 0
 554.697 613.723 538.324 584.536 516.324 573.535 c 0
 509.324 570.035 497.521 567.133 484.182 565.464 c 0
 429.286 560.017 419.75 552.248 387.75 536.248 c 2
 351.751 518.248 l 1
 378.057 500.401 l 2
 402.559 484.653 413.828 475.627 459.062 471.244 c 0
 483.081 468.254 493.028 462.227 497.853 446.639 c 0
 504.015 426.721 492.105 401.766 470.105 390.766 c 0
 442.105 376.766 421.282 384.354 408.172 411.799 c 0
 390.579 450.002 378.186 456.467 354.685 472.715 c 2
 329.378 491.062 l 1
 319.684 455.215 l 2
 310.918 423.832 305.846 406.636 313.173 364.299 c 0
 319.282 333.354 307.105 309.266 279.105 295.266 c 0
 258.105 284.766 235.015 292.221 228.853 312.139 c 0
 224.028 327.728 228.08 340.753 245.062 364.243 c 0
 274.827 406.126 279.704 425.225 287.736 455.241 c 2
 297.431 491.088 l 1
EndSplineSet
EndChar

StartChar: plus
Encoding: 43 43 10
Width: 606
VWidth: 1000
Flags: HMW
HStem: 0 20 213 80<51 263 343 555>
VStem: 263 80<0 213 293 505>
LayerCount: 2
Back
SplineSet
263 293 m 5
 263 505 l 1
 343 505 l 1
 343 293 l 5
 555 293 l 5
 555 213 l 1
 343 213 l 1
 343 0 l 1
 263 0 l 1
 263 213 l 1
 51 213 l 1
 51 293 l 5
 263 293 l 5
EndSplineSet
Fore
SplineSet
264.509 293 m 5
 321.314 505 l 1
 401.314 505 l 1
 344.509 293 l 5
 556.509 293 l 5
 535.073 213 l 1
 323.073 213 l 1
 266 0 l 1
 186 0 l 1
 243.073 213 l 1
 31.0732 213 l 1
 52.5088 293 l 5
 264.509 293 l 5
EndSplineSet
Substitution2: "MiscSAlt" uniFB29
EndChar

StartChar: comma
Encoding: 44 44 11
Width: 306
VWidth: 1000
Flags: HW
VStem: 111.859 32.241<-118.671 -112>
LayerCount: 2
Back
SplineSet
103.062 95.75 m 6
 154.25 164 l 6
 166.64 180.52 173.57 180.24 185.75 164 c 6
 236.938 95.75 l 6
 244.718 85.376 242.737 75.248 236.938 64.25 c 6
 144 -112 l 6
 131.426 -128.766 109.063 -123.153 114.69 -97 c 6
 134.805 -3.5 l 6
 137.689 9.9082 137.062 18.6006 130.062 28 c 6
 103.062 64.25 l 6
 94.3164 75.9121 94.8623 84.8164 103.062 95.75 c 6
EndSplineSet
Fore
SplineSet
47.7246 95.75 m 6
 122.318 164 l 6
 140.374 180.52 147.922 180.24 156.969 164 c 6
 194.988 95.75 l 6
 200.766 85.376 195.874 75.248 186.548 64.25 c 6
 37.0898 -112 l 6
 18.7656 -128.766 -4.3291 -123.153 8.86816 -97 c 6
 56.0469 -3.5 l 6
 62.8125 9.9082 64.4531 18.6006 59.2705 28 c 6
 39.2842 64.25 l 6
 32.7891 75.9121 35.7754 84.8164 47.7246 95.75 c 6
EndSplineSet
EndChar

StartChar: hyphen
Encoding: 45 45 12
Width: 425
VWidth: 1000
Flags: HMW
HStem: 247 109<58.0793 361.964>
LayerCount: 2
Back
SplineSet
42 285 m 1
 301 285 l 5
 301 188 l 5
 42 188 l 1
 42 285 l 1
EndSplineSet
Fore
SplineSet
390.667 336 m 2
 352.602 262 l 2
 347.221 251.95 340.837 247 329.569 247 c 2
 46.5693 247 l 2
 32.8369 247 30.3203 253.996 36.999 267 c 2
 75.0068 341 l 2
 80.3018 351.156 86.043 356 97.8271 356 c 2
 381.378 356 l 2
 395.043 356 397.343 348.979 390.667 336 c 2
EndSplineSet
PairPos2: "'kern' Horizontal Kerning in Hebrew lookup 0 subtable" uniE804 dx=25 dy=0 dh=25 dv=0 dx=0 dy=0 dh=0 dv=0
PairPos2: "'kern' Horizontal Kerning in Hebrew lookup 0 subtable" uniE803 dx=10 dy=0 dh=10 dv=0 dx=0 dy=0 dh=0 dv=0
PairPos2: "'kern' Horizontal Kerning in Hebrew lookup 0 subtable" uniE802 dx=10 dy=0 dh=10 dv=0 dx=0 dy=0 dh=0 dv=0
PairPos2: "'kern' Horizontal Kerning in Hebrew lookup 0 subtable" uniE801 dx=35 dy=0 dh=35 dv=0 dx=0 dy=0 dh=0 dv=0
PairPos2: "'kern' Horizontal Kerning in Hebrew lookup 0 subtable" uniFB1D dx=25 dy=0 dh=25 dv=0 dx=0 dy=0 dh=0 dv=0
PairPos2: "'kern' Horizontal Kerning in Hebrew lookup 0 subtable" uniFB2D dx=-10 dy=0 dh=-10 dv=0 dx=0 dy=0 dh=0 dv=0
PairPos2: "'kern' Horizontal Kerning in Hebrew lookup 0 subtable" uniFB2C dx=-10 dy=0 dh=-10 dv=0 dx=0 dy=0 dh=0 dv=0
PairPos2: "'kern' Horizontal Kerning in Hebrew lookup 0 subtable" uniFB45 dx=-20 dy=0 dh=-20 dv=0 dx=0 dy=0 dh=0 dv=0
PairPos2: "'kern' Horizontal Kerning in Hebrew lookup 0 subtable" uniFB42 dx=-10 dy=0 dh=-10 dv=0 dx=0 dy=0 dh=0 dv=0
PairPos2: "'kern' Horizontal Kerning in Hebrew lookup 0 subtable" uniFB3D dx=20 dy=0 dh=20 dv=0 dx=0 dy=0 dh=0 dv=0
PairPos2: "'kern' Horizontal Kerning in Hebrew lookup 0 subtable" uniFB37 dx=35 dy=0 dh=35 dv=0 dx=0 dy=0 dh=0 dv=0
PairPos2: "'kern' Horizontal Kerning in Hebrew lookup 0 subtable" afii57718 dx=25 dy=0 dh=25 dv=0 dx=0 dy=0 dh=0 dv=0
PairPos2: "'kern' Horizontal Kerning in Hebrew lookup 0 subtable" afii57705 dx=25 dy=0 dh=25 dv=0 dx=0 dy=0 dh=0 dv=0
PairPos2: "'kern' Horizontal Kerning in Hebrew lookup 0 subtable" afii57717 dx=25 dy=0 dh=25 dv=0 dx=0 dy=0 dh=0 dv=0
PairPos2: "'kern' Horizontal Kerning in Hebrew lookup 0 subtable" afii57716 dx=35 dy=0 dh=35 dv=0 dx=0 dy=0 dh=0 dv=0
PairPos2: "'kern' Horizontal Kerning in Hebrew lookup 0 subtable" uniFB4A dx=35 dy=0 dh=35 dv=0 dx=0 dy=0 dh=0 dv=0
PairPos2: "'kern' Horizontal Kerning in Hebrew lookup 0 subtable" uniFB28 dx=35 dy=0 dh=35 dv=0 dx=0 dy=0 dh=0 dv=0
PairPos2: "'kern' Horizontal Kerning in Hebrew lookup 0 subtable" afii57690 dx=35 dy=0 dh=35 dv=0 dx=0 dy=0 dh=0 dv=0
PairPos2: "'kern' Horizontal Kerning in Hebrew lookup 0 subtable" uniFB49 dx=-10 dy=0 dh=-10 dv=0 dx=0 dy=0 dh=0 dv=0
PairPos2: "'kern' Horizontal Kerning in Hebrew lookup 0 subtable" afii57695 dx=-10 dy=0 dh=-10 dv=0 dx=0 dy=0 dh=0 dv=0
PairPos2: "'kern' Horizontal Kerning in Hebrew lookup 0 subtable" afii57694 dx=-10 dy=0 dh=-10 dv=0 dx=0 dy=0 dh=0 dv=0
PairPos2: "'kern' Horizontal Kerning in Hebrew lookup 0 subtable" afii57689 dx=-10 dy=0 dh=-10 dv=0 dx=0 dy=0 dh=0 dv=0
PairPos2: "'kern' Horizontal Kerning in Hebrew lookup 0 subtable" uniFB48 dx=45 dy=0 dh=45 dv=0 dx=0 dy=0 dh=0 dv=0
PairPos2: "'kern' Horizontal Kerning in Hebrew lookup 0 subtable" afii57688 dx=45 dy=0 dh=45 dv=0 dx=0 dy=0 dh=0 dv=0
PairPos2: "'kern' Horizontal Kerning in Hebrew lookup 0 subtable" uniFB47 dx=45 dy=0 dh=45 dv=0 dx=0 dy=0 dh=0 dv=0
PairPos2: "'kern' Horizontal Kerning in Hebrew lookup 0 subtable" afii57687 dx=45 dy=0 dh=45 dv=0 dx=0 dy=0 dh=0 dv=0
PairPos2: "'kern' Horizontal Kerning in Hebrew lookup 0 subtable" uniFB46 dx=20 dy=0 dh=20 dv=0 dx=0 dy=0 dh=0 dv=0
PairPos2: "'kern' Horizontal Kerning in Hebrew lookup 0 subtable" afii57686 dx=20 dy=0 dh=20 dv=0 dx=0 dy=0 dh=0 dv=0
PairPos2: "'kern' Horizontal Kerning in Hebrew lookup 0 subtable" afii57685 dx=-20 dy=0 dh=-20 dv=0 dx=0 dy=0 dh=0 dv=0
PairPos2: "'kern' Horizontal Kerning in Hebrew lookup 0 subtable" uniFB4E dx=45 dy=0 dh=45 dv=0 dx=0 dy=0 dh=0 dv=0
PairPos2: "'kern' Horizontal Kerning in Hebrew lookup 0 subtable" uniFB44 dx=45 dy=0 dh=45 dv=0 dx=0 dy=0 dh=0 dv=0
PairPos2: "'kern' Horizontal Kerning in Hebrew lookup 0 subtable" afii57684 dx=45 dy=0 dh=45 dv=0 dx=0 dy=0 dh=0 dv=0
PairPos2: "'kern' Horizontal Kerning in Hebrew lookup 0 subtable" uniFB43 dx=25 dy=0 dh=25 dv=0 dx=0 dy=0 dh=0 dv=0
PairPos2: "'kern' Horizontal Kerning in Hebrew lookup 0 subtable" afii57683 dx=25 dy=0 dh=25 dv=0 dx=0 dy=0 dh=0 dv=0
PairPos2: "'kern' Horizontal Kerning in Hebrew lookup 0 subtable" afii57682 dx=-10 dy=0 dh=-10 dv=0 dx=0 dy=0 dh=0 dv=0
PairPos2: "'kern' Horizontal Kerning in Hebrew lookup 0 subtable" uniFB41 dx=50 dy=0 dh=50 dv=0 dx=0 dy=0 dh=0 dv=0
PairPos2: "'kern' Horizontal Kerning in Hebrew lookup 0 subtable" afii57681 dx=50 dy=0 dh=50 dv=0 dx=0 dy=0 dh=0 dv=0
PairPos2: "'kern' Horizontal Kerning in Hebrew lookup 0 subtable" uniFB40 dx=30 dy=0 dh=30 dv=0 dx=0 dy=0 dh=0 dv=0
PairPos2: "'kern' Horizontal Kerning in Hebrew lookup 0 subtable" afii57680 dx=30 dy=0 dh=30 dv=0 dx=0 dy=0 dh=0 dv=0
PairPos2: "'kern' Horizontal Kerning in Hebrew lookup 0 subtable" uniFB3E dx=30 dy=0 dh=30 dv=0 dx=0 dy=0 dh=0 dv=0
PairPos2: "'kern' Horizontal Kerning in Hebrew lookup 0 subtable" afii57678 dx=30 dy=0 dh=30 dv=0 dx=0 dy=0 dh=0 dv=0
PairPos2: "'kern' Horizontal Kerning in Hebrew lookup 0 subtable" uniFB26 dx=20 dy=0 dh=20 dv=0 dx=0 dy=0 dh=0 dv=0
PairPos2: "'kern' Horizontal Kerning in Hebrew lookup 0 subtable" afii57677 dx=20 dy=0 dh=20 dv=0 dx=0 dy=0 dh=0 dv=0
PairPos2: "'kern' Horizontal Kerning in Hebrew lookup 0 subtable" uniFB3C dx=10 dy=0 dh=10 dv=0 dx=0 dy=0 dh=0 dv=0
PairPos2: "'kern' Horizontal Kerning in Hebrew lookup 0 subtable" uniFB25 dx=10 dy=0 dh=10 dv=0 dx=0 dy=0 dh=0 dv=0
PairPos2: "'kern' Horizontal Kerning in Hebrew lookup 0 subtable" afii57676 dx=10 dy=0 dh=10 dv=0 dx=0 dy=0 dh=0 dv=0
PairPos2: "'kern' Horizontal Kerning in Hebrew lookup 0 subtable" uniFB4D dx=40 dy=0 dh=40 dv=0 dx=0 dy=0 dh=0 dv=0
PairPos2: "'kern' Horizontal Kerning in Hebrew lookup 0 subtable" uniFB3B dx=40 dy=0 dh=40 dv=0 dx=0 dy=0 dh=0 dv=0
PairPos2: "'kern' Horizontal Kerning in Hebrew lookup 0 subtable" uniFB24 dx=40 dy=0 dh=40 dv=0 dx=0 dy=0 dh=0 dv=0
PairPos2: "'kern' Horizontal Kerning in Hebrew lookup 0 subtable" afii57675 dx=40 dy=0 dh=40 dv=0 dx=0 dy=0 dh=0 dv=0
PairPos2: "'kern' Horizontal Kerning in Hebrew lookup 0 subtable" uniFB3A dx=10 dy=0 dh=10 dv=0 dx=0 dy=0 dh=0 dv=0
PairPos2: "'kern' Horizontal Kerning in Hebrew lookup 0 subtable" afii57674 dx=10 dy=0 dh=10 dv=0 dx=0 dy=0 dh=0 dv=0
PairPos2: "'kern' Horizontal Kerning in Hebrew lookup 0 subtable" uniFB39 dx=25 dy=0 dh=25 dv=0 dx=0 dy=0 dh=0 dv=0
PairPos2: "'kern' Horizontal Kerning in Hebrew lookup 0 subtable" afii57673 dx=25 dy=0 dh=25 dv=0 dx=0 dy=0 dh=0 dv=0
PairPos2: "'kern' Horizontal Kerning in Hebrew lookup 0 subtable" uniFB38 dx=50 dy=0 dh=50 dv=0 dx=0 dy=0 dh=0 dv=0
PairPos2: "'kern' Horizontal Kerning in Hebrew lookup 0 subtable" afii57672 dx=50 dy=0 dh=50 dv=0 dx=0 dy=0 dh=0 dv=0
PairPos2: "'kern' Horizontal Kerning in Hebrew lookup 0 subtable" afii57671 dx=35 dy=0 dh=35 dv=0 dx=0 dy=0 dh=0 dv=0
PairPos2: "'kern' Horizontal Kerning in Hebrew lookup 0 subtable" uniFB36 dx=-10 dy=0 dh=-10 dv=0 dx=0 dy=0 dh=0 dv=0
PairPos2: "'kern' Horizontal Kerning in Hebrew lookup 0 subtable" afii57670 dx=-10 dy=0 dh=-10 dv=0 dx=0 dy=0 dh=0 dv=0
PairPos2: "'kern' Horizontal Kerning in Hebrew lookup 0 subtable" afii57723 dx=35 dy=0 dh=35 dv=0 dx=0 dy=0 dh=0 dv=0
PairPos2: "'kern' Horizontal Kerning in Hebrew lookup 0 subtable" afii57700 dx=35 dy=0 dh=35 dv=0 dx=0 dy=0 dh=0 dv=0
PairPos2: "'kern' Horizontal Kerning in Hebrew lookup 0 subtable" afii57669 dx=35 dy=0 dh=35 dv=0 dx=0 dy=0 dh=0 dv=0
PairPos2: "'kern' Horizontal Kerning in Hebrew lookup 0 subtable" uniFB34 dx=10 dy=0 dh=10 dv=0 dx=0 dy=0 dh=0 dv=0
PairPos2: "'kern' Horizontal Kerning in Hebrew lookup 0 subtable" uniFB23 dx=10 dy=0 dh=10 dv=0 dx=0 dy=0 dh=0 dv=0
PairPos2: "'kern' Horizontal Kerning in Hebrew lookup 0 subtable" afii57668 dx=10 dy=0 dh=10 dv=0 dx=0 dy=0 dh=0 dv=0
PairPos2: "'kern' Horizontal Kerning in Hebrew lookup 0 subtable" uniFB33 dx=10 dy=0 dh=10 dv=0 dx=0 dy=0 dh=0 dv=0
PairPos2: "'kern' Horizontal Kerning in Hebrew lookup 0 subtable" uniFB22 dx=10 dy=0 dh=10 dv=0 dx=0 dy=0 dh=0 dv=0
PairPos2: "'kern' Horizontal Kerning in Hebrew lookup 0 subtable" afii57667 dx=10 dy=0 dh=10 dv=0 dx=0 dy=0 dh=0 dv=0
PairPos2: "'kern' Horizontal Kerning in Hebrew lookup 0 subtable" uniFB32 dx=10 dy=0 dh=10 dv=0 dx=0 dy=0 dh=0 dv=0
PairPos2: "'kern' Horizontal Kerning in Hebrew lookup 0 subtable" afii57666 dx=10 dy=0 dh=10 dv=0 dx=0 dy=0 dh=0 dv=0
PairPos2: "'kern' Horizontal Kerning in Hebrew lookup 0 subtable" uniFB4C dx=45 dy=0 dh=45 dv=0 dx=0 dy=0 dh=0 dv=0
PairPos2: "'kern' Horizontal Kerning in Hebrew lookup 0 subtable" uniFB31 dx=45 dy=0 dh=45 dv=0 dx=0 dy=0 dh=0 dv=0
PairPos2: "'kern' Horizontal Kerning in Hebrew lookup 0 subtable" afii57665 dx=45 dy=0 dh=45 dv=0 dx=0 dy=0 dh=0 dv=0
PairPos2: "'kern' Horizontal Kerning in Hebrew lookup 0 subtable" uniFB30 dx=-20 dy=0 dh=-20 dv=0 dx=0 dy=0 dh=0 dv=0
PairPos2: "'kern' Horizontal Kerning in Hebrew lookup 0 subtable" uniFB2F dx=-20 dy=0 dh=-20 dv=0 dx=0 dy=0 dh=0 dv=0
PairPos2: "'kern' Horizontal Kerning in Hebrew lookup 0 subtable" uniFB2E dx=-20 dy=0 dh=-20 dv=0 dx=0 dy=0 dh=0 dv=0
PairPos2: "'kern' Horizontal Kerning in Hebrew lookup 0 subtable" uniFB21 dx=-20 dy=0 dh=-20 dv=0 dx=0 dy=0 dh=0 dv=0
PairPos2: "'kern' Horizontal Kerning in Hebrew lookup 0 subtable" afii57664 dx=-20 dy=0 dh=-20 dv=0 dx=0 dy=0 dh=0 dv=0
EndChar

StartChar: period
Encoding: 46 46 13
Width: 305
VWidth: 1000
Flags: HMW
HStem: -18.3719 24.255
LayerCount: 2
Back
SplineSet
103.062 95.75 m 6
 154.25 164 l 6
 166.64 180.52 173.57 180.24 185.75 164 c 6
 236.938 95.75 l 6
 244.718 85.376 244.97 74.96 236.938 64.25 c 6
 185.75 -4 l 6
 173.192 -20.7441 166.976 -20.9678 154.25 -4 c 6
 103.062 64.25 l 6
 94.3164 75.9121 94.8623 84.8164 103.062 95.75 c 6
EndSplineSet
Fore
SplineSet
47.7246 95.75 m 6
 122.318 164 l 6
 140.374 180.52 147.922 180.24 156.969 164 c 6
 194.988 95.75 l 6
 200.766 85.376 198.253 74.96 186.548 64.25 c 6
 111.953 -4 l 6
 93.6523 -20.7441 86.7559 -20.9678 77.3027 -4 c 6
 39.2842 64.25 l 6
 32.7891 75.9121 35.7754 84.8164 47.7246 95.75 c 6
EndSplineSet
EndChar

StartChar: slash
Encoding: 47 47 14
Width: 293
VWidth: 1000
Flags: HMW
HStem: -14 20 716 20<259 317 317 317>
LayerCount: 2
Fore
SplineSet
364.211 736 m 1
 437.211 736 l 5
 -30.751 -14 l 5
 -103.751 -14 l 1
 364.211 736 l 1
EndSplineSet
EndChar

StartChar: zero
Encoding: 48 48 15
Width: 570
VWidth: 1000
Flags: HW
HStem: -15 53<278 296> 651 53<278 296>
VStem: 39 131<320 370> 399 132<304 370>
LayerCount: 2
Back
SplineSet
284 704 m 4
 347 704 411 665 450 602 c 4
 492 533 514 445 514 339 c 4
 514 131 416 -15 276 -15 c 4
 141 -15 42 136 42 342 c 4
 42 551 144 704 284 704 c 4
277 661 m 0
 239 661 203 632 180 581 c 0
 160 538 153 479 153 363 c 0
 153 200 161 137 189 90 c 0
 213 50 245 28 278 28 c 0
 316 28 352 58 375 107 c 0
 395 151 402 217 402 357 c 0
 402 494 393 553 366 599 c 0
 342 639 310 661 277 661 c 0
EndSplineSet
Fore
SplineSet
402.891 704 m 0
 548.637 704 600.836 548 544.835 339 c 0
 489.102 131 347.829 -15 201.896 -15 c 4
 61.1758 -15 -1.55859 136 53.6387 342 c 4
 109.64 551 256.958 704 402.891 704 c 0
381.475 651 m 0
 346.528 651 305.894 622.916 271.507 573.527 c 0
 241.956 531.886 220.209 474.75 190.108 362.415 c 0
 147.813 204.565 138.823 143.557 152.378 98.041 c 0
 164.071 59.3047 187.792 38 218.142 38 c 0
 253.089 38 293.982 67.0527 327.851 114.504 c 0
 357.66 157.114 381.225 221.028 417.552 356.605 c 0
 453.102 489.276 460.134 546.412 447.239 590.959 c 0
 435.545 629.695 411.825 651 381.475 651 c 0
EndSplineSet
EndChar

StartChar: one
Encoding: 49 49 16
Width: 570
VWidth: 1000
Flags: HW
HStem: 0 52<107 503> 582 48<111 132.918> 684 20G<329 380>
VStem: 246 127<81.1009 545>
LayerCount: 2
Back
SplineSet
322 704 m 1
 358 704 l 1
 353 633 351 585 351 536 c 2
 351 123 l 2
 351 68 351 68 358 61 c 0
 366 51 388 47 441 47 c 2
 496 47 l 1
 496 0 l 1
 100 0 l 1
 100 47 l 1
 165 47 l 2
 245 47 254 52 254 94 c 2
 254 123 l 1
 254 524 l 2
 254 583 250 587 192 587 c 2
 104 587 l 1
 104 630 l 1
 196 632 288 663 322 704 c 1
EndSplineSet
Fore
SplineSet
440.637 704 m 1
 491.637 704 l 1
 467.611 633 452.75 585 439.621 536 c 2
 330.298 128 l 2
 315.561 73 315.561 73 320.685 66 c 0
 326.005 56 346.934 52 399.934 52 c 2
 439.934 52 l 1
 426 0 l 1
 30 0 l 1
 43.9336 52 l 1
 93.9336 52 l 2
 173.934 52 184.273 57 195.527 99 c 2
 203.298 128 l 1
 308.065 519 l 6
 323.875 578 320.946 582 262.946 582 c 6
 189.946 582 l 5
 202.808 630 l 1
 295.344 632 395.65 663 440.637 704 c 1
EndSplineSet
EndChar

StartChar: two
Encoding: 50 50 17
Width: 570
VWidth: 1000
Flags: HW
HStem: 0 114<184 503> 684 20G<219.5 357>
VStem: 58 77<516 558> 385 133<507 530>
LayerCount: 2
Back
SplineSet
505 216 m 1
 486 0 l 1
 35 0 l 1
 35 28 l 1
 79 86 97 109 133 151 c 1
 211 235 l 1
 270 297 l 2
 353 385 388 452 388 526 c 0
 388 610 338 661 256 661 c 0
 209 661 167 643 142 613 c 0
 128 596 118 573 118 558 c 0
 118 545 120 544 157 528 c 0
 179 519 193 496 193 471 c 0
 193 435 168 410 131 410 c 0
 83 410 51 453 51 516 c 0
 51 622 149 704 276 704 c 0
 406 704 501 622 501 509 c 0
 501 461 485 416 453 372 c 0
 430 342 391 307 300 237 c 0
 236 187 213 166 144 94 c 1
 368 94 l 2
 430 94 438 101 451 165 c 1
 461 216 l 1
 505 216 l 1
EndSplineSet
Fore
SplineSet
502.877 216 m 1
 426 0 l 1
 -35 0 l 1
 -27.4971 28 l 1
 32.0439 86 56.2061 109 103.46 151 c 1
 203.968 235 l 1
 279.581 297 l 2
 370.275 371.366 429.113 452 448.941 526 c 0
 469.842 604 430.533 649.5 348.533 649.5 c 0
 314.533 649.5 269.808 630 242.011 606.5 c 0
 222.791 590.251 211.535 573 207.516 558 c 0
 204.032 545 216.961 541 243.478 528 c 0
 262.755 518.549 270.902 496 264.204 471 c 0
 254.558 435 218.859 410 177.859 410 c 0
 120.359 410 102.381 453 119.262 516 c 0
 147.664 622 267.637 704 394.637 704 c 4
 542.637 704 607.664 622 577.386 509 c 0
 564.524 461 536.467 416 492.677 372 c 0
 461.639 342 399.179 296.265 307.004 237 c 0
 239.349 193.5 206.283 169 137.546 114 c 1
 333.546 114 l 2
 402.046 114 412.029 127 433.989 173.5 c 1
 453.877 216 l 1
 502.877 216 l 1
EndSplineSet
EndChar

StartChar: three
Encoding: 51 51 18
Width: 570
VWidth: 1000
Flags: HW
HStem: -15 53<248 272> 335 59<209 272> 335 62<200 232> 337 57<248 289> 474 21G<118.75 164.25> 651 53<264 289>
LayerCount: 2
Back
SplineSet
346 368 m 1
 449 339 498 282 498 188 c 0
 498 65 403 -15 259 -15 c 0
 131 -15 42 52 42 149 c 0
 42 201 71 237 113 237 c 0
 150 237 177 210 177 174 c 0
 177 149 166 132 138 115 c 0
 118 104 116 102 116 93 c 0
 116 62 184 28 247 28 c 0
 336 28 387 87 387 190 c 0
 387 289 347 342 273 342 c 0
 265 342 264 342 226 341 c 0
 213 340 205 340 202 340 c 0
 182 340 171 348 171 365 c 0
 171 383 182 392 203 392 c 0
 209 392 217 392 225 391 c 0
 240 390 256 389 265 389 c 0
 337 389 375 438 375 531 c 0
 375 616 337 661 265 661 c 0
 209 661 150 631 150 603 c 0
 150 597 153 592 163 585 c 0
 186 569 194 555 194 534 c 0
 194 498 170 474 135 474 c 0
 97 474 69 503 69 544 c 0
 69 635 158 704 275 704 c 0
 399 704 479 636 479 532 c 0
 479 461 439 405 369 376 c 0
 362 373 360 373 346 368 c 1
EndSplineSet
Fore
SplineSet
383.772 368 m 1xcc
 483.38 348.5 521.062 282 495.874 188 c 0
 462.917 65 341.272 -15 189.377 -15 c 0
 54.3594 -15 -21.5664 52 4.4248 149 c 0
 18.3574 201 64.5039 237 106.504 237 c 0
 150.004 237 174.609 215 163.623 174 c 0
 156.925 149 141.369 132 108.814 115 c 0
 85.8672 104 83.3311 102 80.9189 93 c 0
 73.2832 64.5 135.682 38 187.182 38 c 0
 276.182 38 341.429 100.5 365.41 190 c 0
 389.392 279.5 367.299 337 293.299 337 c 0x9c
 285.299 337 284.299 337 246.031 336 c 0
 232.763 335 224.763 335 221.763 335 c 0xcc
 201.763 335 193.175 344 198.802 365 c 0
 204.562 386.5 218.376 397 239.376 397 c 0xac
 245.376 397 253.376 397 261.107 396 c 0
 275.84 395 291.572 394 300.572 394 c 0
 372.572 394 421.505 446 444.281 531 c 0
 462.77 600 441.435 651 369.435 651 c 4
 317.435 651 257.736 626 251.573 603 c 0
 249.966 597 251.626 592 259.75 585 c 0
 278.463 569 282.712 555 277.085 534 c 0
 267.438 498 236.508 474 192.008 474 c 0
 145.508 474 127.759 503 138.745 544 c 0
 163.128 635 275.495 704 398.91 704 c 0
 529.708 704 595.874 636 568.007 532 c 0
 548.982 461 491.785 405 410.177 376 c 0
 401.989 373 399.88 373 383.772 368 c 1xcc
EndSplineSet
EndChar

StartChar: four
Encoding: 52 52 19
Width: 570
VWidth: 1000
Flags: HW
HStem: 0 52<215 507> 175 56<107 301 428 534> 684 20G<375 433>
VStem: 301 127<80.6647 175 231 504>
DStem2: 35 231 107 231 0.583671 0.81199<42.0243 370.434>
LayerCount: 2
Back
SplineSet
368 704 m 1
 411 704 l 1
 406 629 406 629 406 504 c 2
 406 231 l 1
 527 231 l 1
 527 175 l 1
 406 175 l 1
 406 123 l 1
 406 94 l 6
 406 52 415 47 496 47 c 6
 500 47 l 5
 500 0 l 1
 208 0 l 1
 208 47 l 5
 219 47 l 6
 300 47 309 52 309 94 c 6
 309 123 l 1
 309 175 l 1
 28 175 l 1
 28 231 l 1
 368 704 l 1
309 231 m 1
 309 534 l 1
 89 231 l 1
 309 231 l 1
EndSplineSet
Fore
SplineSet
486.637 704 m 1
 544.637 704 l 1
 519.54 629 519.54 629 486.047 504 c 2
 412.896 231 l 5
 518.896 231 l 5
 503.891 175 l 1
 397.891 175 l 1
 383.958 123 l 1
 377.527 99 l 2
 366.273 57 370.434 52 439.934 52 c 2
 443.934 52 l 1
 430 0 l 1
 138 0 l 1
 151.934 52 l 1
 162.934 52 l 2
 228.934 52 239.273 57 250.527 99 c 2
 256.958 123 l 1
 270.891 175 l 1
 4.89062 175 l 1
 19.8965 231 l 1
 486.637 704 l 1
285.896 231 m 5
 356.902 496 l 1
 91.8965 231 l 5
 285.896 231 l 5
EndSplineSet
EndChar

StartChar: five
Encoding: 53 53 20
Width: 570
VWidth: 1000
Flags: HMW
HStem: -15 53<251 266> 391 60<257 283> 675 20G<477.5 481.5>
LayerCount: 2
Back
SplineSet
164 591 m 1
 147 421 l 1
 202 444 234 451 276 451 c 0
 411 451 502 360 502 224 c 0
 502 77 403 -15 246 -15 c 0
 194 -15 153 -4 119 18 c 0
 74 49 45 99 45 149 c 0
 45 196 77 233 117 233 c 0
 153 233 180 206 180 171 c 0
 180 144 171 131 140 112 c 0
 128 105 122 97 122 90 c 0
 122 59 184 28 244 28 c 0
 285 28 326 42 346 63 c 0
 376 94 393 151 393 218 c 0
 393 332 339 401 250 401 c 0
 210 401 177 390 142 365 c 1
 138 325 122 304 97 304 c 0
 78 304 65 318 65 338 c 0
 65 354 72 367 93 389 c 1
 107 513 116 620 120 704 c 1
 225 679 262 674 326 674 c 0
 383 674 410 679 459 700 c 0
 464 703 469 704 472 704 c 0
 477 704 480 701 480 695 c 0
 480 687 476 678 465 659 c 0
 432 604 370 574 285 574 c 0
 246 574 218 578 164 591 c 1
EndSplineSet
Fore
SplineSet
244.999 571 m 5
 189.807 421 l 5
 253.379 444 283.115 451 326.954 451 c 4
 467.867 451 538.47 360 502.028 224 c 4
 462.64 77 334.652 -15 170.776 -15 c 4
 116.499 -15 76.6504 -4 47.0547 18 c 4
 8.3916 49 -8.48145 99 4.91602 149 c 4
 17.5088 196 59.4326 233 109.433 233 c 4
 155.433 233 175.197 206 165.819 171 c 4
 158.585 144 146.102 131 110.011 112 c 4
 96.1348 105 87.9912 97 86.1152 90 c 4
 77.8086 59 137.682 38 184.182 38 c 4
 229.682 38 263.97 54 288.061 73 c 4
 332.511 108.057 355.47 158.5 371.413 218 c 4
 401.959 332 361.769 391 284.769 391 c 4
 244.769 391 220.99 382.5 179.498 362 c 12
 154.914 349.854 150.609 319.5 123.439 317 c 4
 105.003 315.304 93.2539 324.051 97.1748 344 c 4
 99.9258 358 110.509 371.285 117.232 389 c 20
 163.154 510 202.129 620 228.637 704 c 5
 326.938 679 372.598 674 436.598 674 c 4
 493.598 674 521.938 679 576.564 700 c 4
 582.368 703 587.637 704 590.637 704 c 4
 595.637 704 597.832 701 596.225 695 c 4
 594.081 687 584.386 668.393 568.899 649 c 4
 529.77 600 448.443 554 363.443 554 c 4
 324.443 554 295.516 558 244.999 571 c 5
EndSplineSet
EndChar

StartChar: six
Encoding: 54 54 21
Width: 570
VWidth: 1000
Flags: HMW
HStem: -15 53<280.059 299> 359 71<297 325> 650 45
VStem: 39 138<202.736 308> 404 129<202 226>
LayerCount: 2
Back
SplineSet
153 340 m 1
 200 403 250 430 318 430 c 0
 431 430 516 342 516 224 c 0
 516 161 490 95 447 51 c 0
 405 7 351 -15 286 -15 c 0
 138 -15 42 113 42 308 c 0
 42 417 73 521 127 598 c 0
 175 665 252 704 334 704 c 0
 428 704 498 653 498 584 c 0
 498 542 470 512 432 512 c 0
 397 512 371 537 371 571 c 0
 371 585 376 599 386 618 c 0
 390 625 391 628 391 632 c 0
 391 650 370 661 335 661 c 0
 272 661 219 620 190 549 c 0
 168 498 163 465 153 340 c 1
291 369 m 0
 210 369 160 306 160 203 c 0
 160 166 168 132 184 101 c 0
 208 53 243 28 288 28 c 0
 361 28 407 102 407 217 c 0
 407 312 363 369 291 369 c 0
EndSplineSet
Fore
SplineSet
180.845 346.5 m 1
 238.716 402 295.218 430 363.218 430 c 0
 476.218 430 547.639 342 516.021 224 c 0
 499.14 161 454.358 95 397.754 51 c 0
 342.191 7 280.019 -15 212.275 -15 c 0
 58.0322 -15 -7.72168 113 44.5283 308 c 0
 73.7344 417 133.909 521 210.82 598 c 0
 278.798 665 369.496 704 454.956 704 c 0
 552.923 704 612.211 653 593.723 584 c 0
 582.469 542 546.19 512 499.19 512 c 0
 454.19 512 434.889 537 443.999 571 c 0
 447.75 585 452.496 594 467.587 613 c 0
 473.463 620 475.267 623 476.338 627 c 0
 480.625 643 467.301 650.5 432.301 650.5 c 4
 386.801 650.5 318.789 615 270.765 544 c 0
 235.099 493 217.479 451.5 180.845 346.5 c 1
316.587 359 m 0
 242.145 359 180.303 299.695 154.323 202.736 c 0
 144.99 167.906 143.768 135.9 150.652 106.719 c 0
 160.601 61.5342 186.461 38 227.818 38 c 0
 294.907 38 355.848 107.66 384.854 215.915 c 0
 408.816 305.343 382.756 359 316.587 359 c 0
EndSplineSet
EndChar

StartChar: seven
Encoding: 55 55 22
Width: 570
VWidth: 1000
Flags: HW
HStem: -14 21G<248.75 301> 583 111<311 419>
VStem: 201 149<60 105>
LayerCount: 2
Back
SplineSet
59 462 m 1
 90 704 l 1
 199 697 267 694 352 694 c 0
 413 694 446 695 508 700 c 1
 508 671 l 1
 502 658 499 649 498 647 c 2
 453 553 l 1
 347 319 328 248 333 105 c 1
 334 19 315 -14 267 -14 c 0
 228 -14 204 15 204 60 c 0
 204 102 221 165 251 240 c 0
 276 301 284 318 359 467 c 1
 427 604 l 1
 400 603 379 603 365 603 c 0
 324 603 252 606 194 609 c 0
 186 610 177 610 172 610 c 0
 143 610 136 600 121 534 c 2
 103 455 l 1
 59 462 l 1
EndSplineSet
Fore
SplineSet
611.363 647 m 1
 541.176 553 l 1
 372.476 319 334.451 248 301.135 105 c 1
 279.091 19 247.249 -14 193.249 -14 c 0
 142.749 -14 128.02 15 140.077 60 c 0
 151.331 102 183.71 165.697 235.308 240 c 0
 282.528 308 332.142 370 409.132 467 c 1
 498.482 584 l 1
 471.215 583 450.215 583 436.215 583 c 0
 395.215 583 330.019 586 272.822 589 c 0
 265.09 590 256.09 590 251.09 590 c 0
 222.09 590 212.41 580 179.726 514 c 2
 149.917 455 l 1
 102.793 462 l 1
 198.637 704 l 1
 305.761 697 382.957 694 467.957 694 c 0
 528.957 694 562.225 695 625.564 700 c 1
 611.363 647 l 1
EndSplineSet
EndChar

StartChar: eight
Encoding: 56 56 23
Width: 570
VWidth: 1000
Flags: HMW
HStem: -15 21G<240.22 312.144> 650 45G<228.754 352.276>
LayerCount: 2
Back
SplineSet
381 390 m 1
 419 373 437 362 457 345 c 0
 498 309 520 258 520 201 c 0
 520 140 494 79 451 42 c 0
 410 5 348 -15 274 -15 c 0
 210 -15 156 0 117 28 c 0
 75 60 48 114 48 168 c 0
 48 219 70 267 109 299 c 0
 131 317 150 327 194 344 c 1
 158 363 142 374 125 394 c 0
 97 425 81 470 81 513 c 0
 81 623 170 704 292 704 c 0
 407 704 491 637 491 545 c 0
 491 480 456 431 381 390 c 1
274 429 m 2
 340 405 l 1
 397 453 417 487 417 539 c 0
 417 612 366 661 289 661 c 0
 210 661 158 618 158 555 c 0
 158 497 193 459 274 429 c 2
332 291 m 2
 240 324 l 1
 162 288 131 243 131 168 c 0
 131 80 186 28 279 28 c 0
 377 28 440 79 440 159 c 0
 440 225 408 264 332 291 c 2
EndSplineSet
Fore
SplineSet
412.61 390 m 1
 447.666 373 463.48 362 479.772 345 c 0
 512.863 309 522.131 258 506.857 201 c 0
 490.513 140 447.066 79 392.33 42 c 0
 339.679 5 269.692 -15 192.557 -15 c 0
 125.845 -15 73.5762 0 40.4268 28 c 0
 5.22168 60 -8.4541 114 6.01562 168 c 0
 19.6807 219 55.4746 267 104.702 299 c 0
 132.457 317 154.941 327 205.361 344 c 1
 172.927 363 159.196 374 146.835 394 c 0
 125.955 425 121.335 470 132.856 513 c 0
 162.331 623 276.807 704 403.976 704 c 0
 523.849 704 593.455 637 568.804 545 c 0
 551.387 480 501.774 431 412.61 390 c 1
313.623 431.341 m 2
 368.448 408.654 l 1
 433.205 454.029 460.272 486.17 473.444 535.326 c 0
 491.935 604.334 457.283 650.654 386.23 650.654 c 0
 313.33 650.654 254.455 610.006 238.497 550.451 c 0
 223.806 495.623 246.478 459.701 313.623 431.341 c 2
329.608 289.782 m 6
 252.018 321.333 l 5
 169.844 286.914 129.322 243.89 110.108 172.185 c 4
 87.5645 88.0488 125.684 38.333 212.664 38.333 c 4
 304.321 38.333 376.309 87.0938 396.803 163.579 c 4
 413.711 226.682 393.773 263.968 329.608 289.782 c 6
EndSplineSet
EndChar

StartChar: nine
Encoding: 57 57 24
Width: 570
VWidth: 1000
Flags: HW
HStem: -15 53<221 244> 256 70<242 274.364> 651 53<272 293>
VStem: 36 129<461 483> 392 138<374 475.782>
LayerCount: 2
Back
SplineSet
411 347 m 1
 357 279 315 256 244 256 c 4
 130 256 46 344 46 463 c 4
 46 598 147 704 275 704 c 4
 424 704 520 575 520 374 c 4
 520 271 493 174 444 100 c 4
 395 26 317 -15 226 -15 c 4
 134 -15 64 35 64 101 c 4
 64 141 94 173 132 173 c 0
 165 173 191 147 191 114 c 0
 191 100 189 94 177 70 c 0
 173 62 171 57 171 53 c 0
 171 38 194 28 227 28 c 0
 294 28 349 71 375 145 c 0
 393 196 398 226 411 347 c 1
279 661 m 0
 235 661 208 645 185 606 c 0
 166 576 155 529 155 481 c 0
 155 375 198 316 274 316 c 0
 317 316 356 338 379 374 c 0
 394 397 402 434 402 475 c 0
 402 587 353 661 279 661 c 0
EndSplineSet
Fore
SplineSet
413.896 335.5 m 1
 348.82 275.5 300.095 256 233.949 256 c 0
 115.139 256 51.1748 344 83.0605 463 c 0
 119.233 598 252.898 704 386.298 704 c 0
 541.585 704 607.07 575 553.213 374 c 0
 525.614 271 471.483 174 400.588 100 c 0
 329.692 26 237.416 -15 142.576 -15 c 4
 46.6934 -15 -12.8623 35 4.82227 101 c 0
 15.541 141 51.3555 173 101.355 173 c 0
 145.355 173 163.389 147 154.546 114 c 0
 150.795 100 147.188 94 128.757 70 c 0
 122.613 62 121.845 61 120.773 57 c 0
 116.754 42 137.182 38 170.182 38 c 0
 224.182 38 291.791 80.5898 336.532 155 c 0
 364.492 201.5 390.48 270.5 413.896 335.5 c 1
376.395 651 m 0
 335.957 651 307.105 635.928 276.123 599.188 c 0
 251.089 570.928 229.116 526.652 217 481.435 c 0
 190.244 381.58 214.87 326 284.716 326 c 0
 324.234 326 365.63 346.725 395.854 380.638 c 0
 415.444 402.305 432.137 437.159 442.485 475.782 c 0
 470.756 581.29 444.403 651 376.395 651 c 0
EndSplineSet
EndChar

StartChar: colon
Encoding: 58 58 25
Width: 305
VWidth: 1000
Flags: HMW
HStem: 331.628 24.255
LayerCount: 2
Back
SplineSet
155.05 123.5 m 0
 192.45 123.5 223.25 92.6992 223.25 55.2998 c 0
 223.25 16.7998 192.45 -14 153.95 -14 c 0
 116.55 -14 85.75 16.7998 85.75 55.2998 c 0
 85.75 92.6992 116.55 123.5 155.05 123.5 c 0
155.05 472.5 m 0
 192.45 472.5 223.25 441.7 223.25 404.301 c 0
 223.25 365.801 192.45 335 153.95 335 c 0
 116.55 335 85.75 365.801 85.75 404.301 c 0
 85.75 441.7 116.55 472.5 155.05 472.5 c 0
EndSplineSet
Fore
SplineSet
141.507 445.75 m 6
 216.101 514 l 6
 234.156 530.52 241.704 530.24 250.751 514 c 6
 288.771 445.75 l 6
 294.548 435.376 292.035 424.96 280.33 414.25 c 6
 205.735 346 l 6
 187.435 329.256 180.538 329.032 171.085 346 c 6
 133.066 414.25 l 6
 126.571 425.912 129.558 434.816 141.507 445.75 c 6
47.7246 95.75 m 6
 122.318 164 l 6
 140.374 180.52 147.922 180.24 156.969 164 c 6
 194.988 95.75 l 6
 200.766 85.376 198.253 74.96 186.548 64.25 c 6
 111.953 -4 l 6
 93.6523 -20.7441 86.7559 -20.9678 77.3027 -4 c 6
 39.2842 64.25 l 6
 32.7891 75.9121 35.7754 84.8164 47.7246 95.75 c 6
EndSplineSet
EndChar

StartChar: semicolon
Encoding: 59 59 26
Width: 305
VWidth: 1000
Flags: HW
VStem: 111.859 32.241<-118.671 -112>
LayerCount: 2
Back
SplineSet
130 -176 m 1
 97.5 -176 l 1
 127.5 -120 153 -66.5 158.5 -24 c 0
 159.348 -17.4531 156.3 -14.0996 150.8 -14.0996 c 0
 99 -14.0996 77 21 77 53.8994 c 0
 77 91.2998 110 123.5 147 123.5 c 0
 203 123.5 241 83 226.5 11 c 0
 214.304 -49.5615 181.5 -111.5 130 -176 c 1
155.05 472.5 m 0
 192.45 472.5 223.25 441.7 223.25 404.301 c 0
 223.25 365.801 192.45 335 153.95 335 c 0
 116.55 335 85.75 365.801 85.75 404.301 c 0
 85.75 441.7 116.55 472.5 155.05 472.5 c 0
EndSplineSet
Fore
SplineSet
47.7246 95.75 m 6
 122.318 164 l 6
 140.374 180.52 147.922 180.24 156.969 164 c 6
 194.988 95.75 l 6
 200.766 85.376 195.874 75.248 186.548 64.25 c 6
 37.0898 -112 l 6
 18.7656 -128.766 -4.3291 -123.153 8.86816 -97 c 6
 56.0469 -3.5 l 6
 62.8125 9.9082 64.4531 18.6006 59.2705 28 c 6
 39.2842 64.25 l 6
 32.7891 75.9121 35.7754 84.8164 47.7246 95.75 c 6
141.507 445.75 m 6
 216.101 514 l 6
 234.156 530.52 241.704 530.24 250.751 514 c 6
 288.771 445.75 l 6
 294.548 435.376 292.035 424.96 280.33 414.25 c 6
 205.735 346 l 6
 187.435 329.256 180.538 329.032 171.085 346 c 6
 133.066 414.25 l 6
 126.571 425.912 129.558 434.816 141.507 445.75 c 6
EndSplineSet
EndChar

StartChar: less
Encoding: 60 60 27
Width: 606
VWidth: 1000
Flags: HMW
HStem: -17 20
LayerCount: 2
Fore
SplineSet
598.361 438 m 1
 150.791 253 l 1
 499.221 68 l 1
 476.445 -17 l 1
 29.6094 215 l 1
 49.9736 291 l 1
 621.138 523 l 1
 598.361 438 l 1
EndSplineSet
EndChar

StartChar: equal
Encoding: 61 61 28
Width: 606
VWidth: 1000
Flags: HMW
HStem: 112 80<51 555> 314 80<51 555>
LayerCount: 2
Fore
SplineSet
4.01074 112 m 1
 25.4463 192 l 1
 529.446 192 l 1
 508.011 112 l 1
 4.01074 112 l 1
58.1357 314 m 1
 79.5723 394 l 1
 583.572 394 l 1
 562.136 314 l 1
 58.1357 314 l 1
EndSplineSet
EndChar

StartChar: greater
Encoding: 62 62 29
Width: 606
VWidth: 1000
Flags: HMW
HStem: -17 20
LayerCount: 2
Fore
SplineSet
88.3613 438 m 1
 111.138 523 l 1
 557.974 291 l 1
 537.609 215 l 1
 -33.5547 -17 l 1
 -10.7793 68 l 1
 436.791 253 l 1
 88.3613 438 l 1
EndSplineSet
EndChar

StartChar: question
Encoding: 63 63 30
Width: 499
VWidth: 1000
Flags: HW
HStem: 648 56<173.001 295.816>
VStem: 35 150<505.196 632.871> 200.69 51.324<238.054 310.5> 322.5 138.5<456.848 621.823>
LayerCount: 2
Back
SplineSet
148.124 95.75 m 2
 199.312 164 l 2
 211.702 180.52 218.632 180.24 230.812 164 c 2
 282 95.75 l 2
 289.78 85.376 290.032 74.96 282 64.25 c 2
 230.812 -4 l 2
 218.254 -20.7441 212.038 -20.9678 199.312 -4 c 2
 148.124 64.25 l 2
 139.378 75.9121 139.924 84.8164 148.124 95.75 c 2
195.5 259 m 0
 197.1 338.984 235.782 378.134 294 444.205 c 0
 316.372 469.595 326 507.271 326 545.864 c 4
 326 609 279 648 214 648 c 4
 111 648 153.932 589.366 148 536 c 4
 145 509 134 492.211 96 492.211 c 0
 46 492.211 25 523.273 25 564.689 c 0
 25 645.641 115.497 704 240.207 704 c 0
 366.021 704 451 638.11 451 540.217 c 0
 451 474.326 421.749 439.154 331 372 c 0
 291.939 343.095 259.246 310.419 245.5 252 c 0
 237.5 218 194.5 209 195.5 259 c 0
EndSplineSet
Fore
SplineSet
392.604 549 m 0
 410.557 616 377.631 648 320.631 648 c 0
 228.631 648 271.853 589.366 251.621 536 c 0
 241.386 509 198.888 492.211 160.888 492.211 c 0
 110.888 492.211 98.2109 523.273 109.308 564.689 c 0
 130.999 645.641 237.133 704 361.843 704 c 0
 487.657 704 554.981 638.11 528.751 540.217 c 0
 511.096 474.326 472.42 439.154 363.677 372 c 0
 318.682 344.213 270.231 310 244.323 258.667 c 8
 239.796 249.695 235.504 245.54 227.851 237.66 c 0
 208.748 217.993 207.062 219.56 196.351 237.66 c 0
 191.415 246 191.898 259 196.572 272 c 0
 221.176 340.442 263.788 379.08 331.356 445.445 c 0
 362.571 476.104 382.264 510.408 392.604 549 c 0
107.577 96.2227 m 2
 177.089 166.52 l 2
 193.913 183.535 200.698 183.247 208.272 166.52 c 2
 240.113 96.2227 l 2
 244.952 85.5371 242.327 74.8086 231.419 63.7773 c 2
 161.907 -6.51953 l 2
 144.854 -23.7666 138.637 -23.9971 130.723 -6.51953 c 2
 98.8828 63.7773 l 2
 93.4424 75.7891 96.4404 84.9609 107.577 96.2227 c 2
EndSplineSet
EndChar

StartChar: at
Encoding: 64 64 31
Width: 737
VWidth: 1000
Flags: HW
HStem: -14 51<311.5 431> 147 44<459.064 553.434> 153 40<299 321> 458 20<455 455> 502 41<379.5 396> 685 51<344.5 429>
VStem: 43 56<266.5 410> 176 90<281 299> 408 74<208 215.5> 653 52<400.5 462>
LayerCount: 2
Fore
SplineSet
610.374 188 m 1
 671.374 188 l 1
 640.585 144 600.135 105 546.685 66 c 0
 473.751 14 390.249 -14 310.249 -14 c 0
 113.249 -14 5.12012 146 61.3896 356 c 0
 90.3281 464 153.855 563 238.344 632 c 0
 318.761 697 420.211 736 509.211 736 c 0
 683.211 736 789.037 601 744.558 435 c 0
 720.175 344 655.059 254 572.054 198 c 0
 524.212 165 476.389 147 439.389 147 c 0
 398.389 147 377.355 173 387.806 212 c 0
 389.681 219 391.021 224 394.164 232 c 1
 339.623 174 304.996 153 264.996 153 c 0
 231.996 153 200.819 171 185.054 198 c 0
 170.021 224 168.667 260 179.921 302 c 0
 196.266 363 235.61 424 289.204 471 c 0
 339.726 514 401.496 543 445.496 543 c 0
 483.496 543 505.065 519 506.08 478 c 1
 537.085 534 l 1
 625.085 534 l 1
 474.647 245 l 2
 468.433 233 464.753 223 462.609 215 c 0
 458.857 201 467.179 191 482.179 191 c 0
 508.179 191 551.413 218 592.667 260 c 0
 636.992 306 675.945 373 690.683 428 c 0
 708.902 496 696.927 567 658.057 616 c 0
 622.383 662 570.545 685 500.545 685 c 0
 329.545 685 169.104 549 118.729 361 c 0
 68.0869 172 156.914 37 331.914 37 c 0
 430.914 37 527.848 89 610.374 188 c 1
448.511 502 m 0
 425.511 502 398.491 487 374.257 460 c 0
 321.983 403 276.619 327 261.614 271 c 0
 248.484 222 258.714 193 288.714 193 c 0
 319.714 193 359.289 225 398.025 280 c 0
 431.619 327 463.769 391 474.218 430 c 0
 486.008 474 476.511 502 448.511 502 c 0
EndSplineSet
EndChar

StartChar: A
Encoding: 65 65 32
Width: 704
VWidth: 1000
Flags: HMW
HStem: 0 47<-77 -50 169 187 -82 -50 367 383 383 411.5 643 663> 238 47<200 420 200 428 173 420> 717 20<401 442 442 442>
LayerCount: 2
Fore
SplineSet
442 737 m 1
 567 108 l 2
 577 56 588 47 643 47 c 2
 668 47 l 1
 663 0 l 1
 362 0 l 1
 367 47 l 1
 383 47 l 2
 440 47 455 54 455 83 c 0
 455 90 453 103 451 115 c 2
 428 238 l 1
 173 238 l 1
 118 142 l 2
 106 122 100 102 100 87 c 0
 100 57 117 47 169 47 c 2
 193 47 l 1
 187 0 l 1
 -82 0 l 1
 -77 47 l 1
 -23 47 18 80 71 168 c 1
 401 737 l 1
 442 737 l 1
420 285 m 1
 363 572 l 1
 200 285 l 1
 420 285 l 1
EndSplineSet
EndChar

StartChar: B
Encoding: 66 66 33
Width: 722
VWidth: 1000
Flags: W
HStem: 0 47<-26 -11 -11 8 257 307 307 332 -31 -11> 347 47<257 352 269 320> 675 47<123 143 117 424 376.5 402 402 424 424 431>
VStem: 508 122<199 245.5 167 249.5> 549 119<542 584 525 606.5>
LayerCount: 2
Fore
SplineSet
123 722 m 1xe8
 424 722 l 2
 502 722 546 714 587 691 c 0
 638 663 668 613 668 555 c 0xe8
 668 495 638 442 585 410 c 0
 552 390 522 380 473 371 c 1
 579 339 630 285 630 206 c 0xf0
 630 128 583 60 506 27 c 0
 466 9 405 0 332 0 c 2
 -31 0 l 1
 -26 47 l 1
 -11 47 l 2
 27 47 52 52 62 61 c 0
 70 69 71 69 85 123 c 2
 213 599 l 2
 218 619 222 640 222 648 c 0
 222 670 208 675 143 675 c 2
 117 675 l 1
 123 722 l 1xe8
269 394 m 1
 352 394 l 2
 411 394 454 405 486 430 c 0
 525 460 549 514 549 570 c 0
 549 643 513 675 431 675 c 2
 402 675 l 2
 351 675 343 668 327 607 c 2
 269 394 l 1
257 347 m 1
 193 109 l 2
 189 94 187 82 187 74 c 0
 187 53 203 47 257 47 c 2
 307 47 l 2
 367 47 416 61 446 87 c 0
 484 120 508 173 508 225 c 0xf0
 508 274 482 313 436 332 c 0
 414 341 368 347 320 347 c 2
 257 347 l 1
EndSplineSet
EndChar

StartChar: C
Encoding: 67 67 34
Width: 722
VWidth: 1000
Flags: MW
HStem: -15 49<320 378>
VStem: 40 125<211.5 297 211.5 335.5>
LayerCount: 2
Fore
SplineSet
617 657 m 1
 677 715 l 1
 713 715 l 1
 657 435 l 1
 616 435 l 1
 613 512 606 556 590 593 c 1
 563 660 516 694 450 694 c 0
 381 694 314 654 268 583 c 0
 205 486 165 354 165 240 c 0
 165 183 181 130 211 93 c 1
 241 54 289 34 351 34 c 0
 426 34 486 63 536 125 c 0
 554 146 568 170 593 223 c 1
 634 205 l 1
 608 144 585 107 554 75 c 0
 497 16 422 -15 334 -15 c 0
 156 -15 40 102 40 280 c 0
 40 391 78 495 152 585 c 1
 232 685 332 737 442 737 c 0
 518 737 569 714 617 657 c 1
EndSplineSet
EndChar

StartChar: D
Encoding: 68 68 35
Width: 778
VWidth: 1000
Flags: MW
HStem: 0 47<-38 -28 -33 -28 -28 -3.5 227 259 259 264> 675 47<116 136 110 406 369.5 396 396 406 406 426>
VStem: 614 121<420.5 486 368 518>
LayerCount: 2
Fore
SplineSet
-38 0 m 1
 -33 47 l 1
 -28 47 l 2
 21 47 44 51 55 61 c 0
 63 69 64 69 78 123 c 2
 206 599 l 2
 211 619 215 640 215 648 c 0
 215 670 201 675 136 675 c 2
 110 675 l 1
 116 722 l 1
 406 722 l 2
 518 722 581 708 631 670 c 0
 698 620 735 537 735 435 c 0
 735 301 667 162 560 77 c 0
 490 22 405 0 264 0 c 2
 -38 0 l 1
227 47 m 2
 259 47 l 2
 356 47 420 65 465 104 c 0
 546 176 614 352 614 489 c 0
 614 547 595 602 566 631 c 0
 537 659 486 675 426 675 c 2
 396 675 l 2
 343 675 336 669 320 610 c 2
 187 110 l 2
 183 98 181 84 181 76 c 0
 181 56 196 47 227 47 c 2
EndSplineSet
EndChar

StartChar: E
Encoding: 69 69 36
Width: 722
VWidth: 1000
Flags: MW
HStem: 0 47<-32 -27 -27 -2.5 253 307 307 347.5 -37 -27> 675 47<117 137 111 701 382.5 420 420 478>
LayerCount: 2
Fore
SplineSet
701 722 m 1
 662 481 l 1
 617 481 l 1
 617 516 l 2
 617 585 608 617 580 642 c 0
 555 664 521 675 478 675 c 2
 420 675 l 2
 345 675 337 670 320 606 c 2
 265 401 l 1
 288 401 l 2
 385 401 437 438 466 526 c 1
 511 520 l 1
 422 186 l 1
 377 194 l 1
 384 226 386 241 386 263 c 0
 386 324 349 354 275 354 c 2
 253 354 l 1
 194 134 l 2
 184 96 183 91 183 79 c 0
 183 55 201 47 253 47 c 2
 307 47 l 2
 388 47 446 65 494 106 c 0
 533 138 552 165 596 245 c 1
 601 253 l 1
 642 245 l 1
 564 0 l 1
 -37 0 l 1
 -32 47 l 1
 -27 47 l 2
 22 47 45 51 56 61 c 0
 64 69 65 70 79 123 c 2
 207 599 l 2
 212 619 216 640 216 648 c 0
 216 670 202 675 137 675 c 2
 111 675 l 1
 117 722 l 1
 701 722 l 1
EndSplineSet
EndChar

StartChar: F
Encoding: 70 70 37
Width: 667
VWidth: 1000
Flags: MW
HStem: 0 47<-29 -24 -24 0.5 263 284 -34 -24> 675 47<120 140 114 698 385.5 423 423 475>
LayerCount: 2
Fore
SplineSet
698 722 m 1
 659 481 l 1
 614 481 l 1
 614 516 l 2
 614 585 605 617 577 642 c 0
 552 664 518 675 475 675 c 2
 423 675 l 2
 348 675 340 670 323 606 c 2
 268 401 l 1
 291 401 l 2
 388 401 440 438 469 526 c 1
 514 520 l 1
 425 186 l 1
 380 194 l 1
 387 226 389 241 389 263 c 0
 389 324 352 354 278 354 c 2
 256 354 l 1
 194 123 l 2
 184 82 184 82 184 74 c 0
 184 52 198 47 263 47 c 2
 289 47 l 1
 284 0 l 1
 -34 0 l 1
 -29 47 l 1
 -24 47 l 2
 25 47 48 51 59 61 c 0
 67 69 68 70 82 123 c 2
 210 599 l 2
 215 619 219 640 219 648 c 0
 219 670 205 675 140 675 c 2
 114 675 l 1
 120 722 l 1
 698 722 l 1
EndSplineSet
EndChar

StartChar: G
Encoding: 71 71 38
Width: 778
VWidth: 1000
Flags: MW
HStem: -15 43<283.5 361.5> -14 21<543 587 543 543> 285 47<438 466 433 763 728.5 753 753 757>
VStem: 39 122<182.5 270 161.5 336>
LayerCount: 2
Fore
SplineSet
739 715 m 1xb0
 684 434 l 1
 642 441 l 1
 641 510 635 550 618 588 c 0
 589 655 532 694 463 694 c 0
 373 694 297 637 238 525 c 0
 191 435 161 318 161 222 c 0
 161 101 228 28 339 28 c 0xb0
 435 28 501 80 527 178 c 1
 536 209 l 2
 541 229 545 250 545 258 c 0
 545 280 531 285 466 285 c 2
 433 285 l 1
 438 332 l 1
 763 332 l 1
 757 285 l 1
 753 285 l 2
 704 285 681 281 670 271 c 0
 661 264 661 263 647 209 c 2
 587 -14 l 1
 543 -14 l 1x70
 531 67 l 1
 469 8 409 -15 314 -15 c 0
 142 -15 39 92 39 273 c 0
 39 399 92 522 188 618 c 0
 267 697 357 737 455 737 c 0
 536 737 591 712 643 653 c 1
 705 715 l 1
 739 715 l 1xb0
EndSplineSet
EndChar

StartChar: H
Encoding: 72 72 39
Width: 833
VWidth: 1000
Flags: MW
HStem: 0 47<-33 -28 -28 -3.5 259 280 -38 -28 401 405 405 429.5 693 713> 354 47<264 573 252 586> 675 47<116 136 110 433 399.5 424 424 428 549 570 833 858 858 862>
LayerCount: 2
Fore
SplineSet
573 354 m 1
 252 354 l 1
 190 123 l 2
 180 82 180 82 180 74 c 0
 180 52 194 47 259 47 c 2
 285 47 l 1
 280 0 l 1
 -38 0 l 1
 -33 47 l 1
 -28 47 l 2
 21 47 44 51 55 61 c 0
 63 69 64 70 78 123 c 2
 206 599 l 2
 211 619 215 640 215 648 c 0
 215 670 201 675 136 675 c 2
 110 675 l 1
 116 722 l 1
 433 722 l 1
 428 675 l 1
 424 675 l 2
 375 675 351 671 341 661 c 1
 332 654 332 654 318 599 c 2
 264 401 l 1
 586 401 l 1
 639 599 l 2
 646 623 649 640 649 648 c 0
 649 670 635 675 570 675 c 2
 544 675 l 1
 549 722 l 1
 867 722 l 1
 862 675 l 1
 858 675 l 2
 808 675 785 671 774 661 c 0
 766 654 766 654 751 599 c 2
 623 123 l 2
 618 104 614 81 614 74 c 0
 614 52 628 47 693 47 c 2
 719 47 l 1
 713 0 l 1
 396 0 l 1
 401 47 l 1
 405 47 l 2
 454 47 478 51 489 61 c 0
 497 69 497 70 512 123 c 2
 573 354 l 1
EndSplineSet
EndChar

StartChar: I
Encoding: 73 73 40
Width: 407
VWidth: 1000
Flags: MW
HStem: 0 47<-28 -28 261 277 -33 -28> 675 47<121 137 115 431 426 426>
LayerCount: 2
Fore
SplineSet
283 47 m 1
 277 0 l 1
 -33 0 l 1
 -28 47 l 1
 31 48 44 50 56 61 c 0
 65 70 66 73 79 123 c 2
 207 599 l 2
 214 626 217 640 217 648 c 0
 217 670 203 675 137 675 c 2
 115 675 l 1
 121 722 l 1
 431 722 l 1
 426 675 l 1
 368 674 354 672 342 661 c 0
 333 652 333 651 319 599 c 2
 191 123 l 2
 182 89 181 84 181 75 c 0
 181 52 195 47 261 47 c 2
 283 47 l 1
EndSplineSet
EndChar

StartChar: J
Encoding: 74 74 41
Width: 611
VWidth: 1000
Flags: MW
HStem: -14 42 147 141<112 131.5 74 140.5> 675 47<326 646 332 356 616 637 637 641>
VStem: -13 48<102.5 141 102.5 183.5>
LayerCount: 2
Fore
SplineSet
326 675 m 1
 332 722 l 1
 646 722 l 1
 641 675 l 1
 637 675 l 2
 595 675 570 671 560 661 c 0
 552 653 552 653 537 599 c 2
 428 192 l 2
 390 50 312 -15 178 -15 c 0
 58 -15 -13 43 -13 143 c 0
 -13 224 40 288 108 288 c 0
 155 288 187 259 187 217 c 0
 187 176 160 147 121 147 c 0
 103 147 95 149 75 161 c 0
 71 163 66 164 61 164 c 0
 46 164 35 150 35 132 c 0
 35 73 88 28 157 28 c 0
 241 28 286 80 323 219 c 2
 425 599 l 2
 431 623 435 640 435 648 c 0
 435 670 421 675 356 675 c 2
 326 675 l 1
EndSplineSet
EndChar

StartChar: K
Encoding: 75 75 42
Width: 741
VWidth: 1000
Flags: MW
HStem: 0 47<-35 -30 -30 -5.5 257 278 -40 -30 369 402 402 428.5 666 691> 675 47<114 134 108 431 397.5 422 422 426 514 530 809 809>
LayerCount: 2
Fore
SplineSet
247 342 m 1
 535 582 l 2
 573 613 589 633 589 650 c 0
 589 669 575 675 530 675 c 2
 508 675 l 1
 514 722 l 1
 814 722 l 1
 809 675 l 1
 729 669 687 649 608 577 c 1
 420 420 l 1
 572 105 l 2
 600 47 600 47 666 47 c 2
 697 47 l 1
 691 0 l 1
 364 0 l 1
 369 47 l 1
 402 47 l 2
 455 47 470 51 470 65 c 0
 470 71 470 71 454 104 c 2
 337 350 l 1
 224 257 l 1
 188 123 l 2
 178 82 178 82 178 74 c 0
 178 52 192 47 257 47 c 2
 283 47 l 1
 278 0 l 1
 -40 0 l 1
 -35 47 l 1
 -30 47 l 2
 19 47 42 51 53 61 c 0
 61 68 62 69 76 123 c 2
 204 599 l 2
 209 619 213 640 213 648 c 0
 213 670 199 675 134 675 c 2
 108 675 l 1
 114 722 l 1
 431 722 l 1
 426 675 l 1
 422 675 l 2
 373 675 349 671 339 661 c 1
 330 654 330 654 315 599 c 2
 247 342 l 1
EndSplineSet
EndChar

StartChar: L
Encoding: 76 76 43
Width: 667
VWidth: 1000
Flags: MW
HStem: 0 47<-32 -27 -27 -2.5 253 295 295 366 -37 -27> 675 47<117 137 111 453 400.5 425 425 447>
LayerCount: 2
Fore
SplineSet
589 253 m 1
 630 245 l 1
 552 0 l 1
 -37 0 l 1
 -32 47 l 1
 -27 47 l 2
 22 47 45 51 56 61 c 0
 64 69 65 70 79 123 c 2
 207 599 l 2
 212 619 216 640 216 648 c 0
 216 670 202 675 137 675 c 2
 111 675 l 1
 117 722 l 1
 453 722 l 1
 447 675 l 1
 425 675 l 2
 376 675 352 671 342 661 c 0
 333 653 333 653 319 599 c 2
 194 134 l 2
 184 97 183 92 183 79 c 0
 183 55 201 47 253 47 c 2
 295 47 l 2
 437 47 501 92 589 253 c 1
EndSplineSet
EndChar

StartChar: M
Encoding: 77 77 44
Width: 944
VWidth: 1000
Flags: MW
HStem: 0 47<-21 -21 199 224 -26 -21 507 511 511 535.5 799 819> 675 47<121 142 116 363 939 964 964 968>
LayerCount: 2
Fore
SplineSet
363 722 m 1
 416 182 l 1
 757 722 l 1
 973 722 l 1
 968 675 l 1
 964 675 l 2
 914 675 891 671 880 661 c 0
 872 654 872 654 857 599 c 2
 730 123 l 2
 724 103 720 81 720 74 c 0
 720 52 734 47 799 47 c 2
 825 47 l 1
 819 0 l 1
 502 0 l 1
 507 47 l 1
 511 47 l 2
 560 47 584 51 595 61 c 0
 603 69 603 69 618 123 c 2
 750 616 l 1
 364 0 l 1
 328 0 l 1
 266 602 l 1
 163 217 l 1
 141 128 140 124 140 102 c 0
 140 65 169 47 229 47 c 1
 224 0 l 1
 -26 0 l 1
 -21 47 l 1
 51 49 71 75 109 217 c 2
 211 599 l 2
 217 622 221 640 221 648 c 0
 221 670 207 675 142 675 c 2
 116 675 l 1
 121 722 l 1
 363 722 l 1
EndSplineSet
EndChar

StartChar: N
Encoding: 78 78 45
Width: 815
VWidth: 1000
Flags: W
HStem: -14 21<534 573 534 534> 0 47<-43 -43 223 228 -48 -43> 675 47<104 151 99 315 597 621.5 854 854>
LayerCount: 2
Fore
SplineSet
315 722 m 1xa0
 568 170 l 1
 658 505 l 1
 680 594 681 598 681 620 c 0
 681 657 652 675 591 675 c 1
 597 722 l 1
 859 722 l 1
 854 675 l 1
 770 672 750 649 712 505 c 2
 573 -14 l 1
 534 -14 l 1xa0
 256 587 l 1
 157 217 l 2
 134 128 133 124 133 102 c 0
 133 65 162 47 223 47 c 2
 234 47 l 1
 228 0 l 1
 -48 0 l 1
 -43 47 l 1x60
 44 49 63 71 102 217 c 2
 216 643 l 1
 208 670 199 675 151 675 c 2
 99 675 l 1
 104 722 l 1
 315 722 l 1xa0
EndSplineSet
EndChar

StartChar: O
Encoding: 79 79 46
Width: 778
VWidth: 1000
Flags: MW
HStem: -15 43<266 353 266 364.5>
VStem: 40 118<186.5 267.5 152 336> 618 117<444.5 493.5 386 519.5>
LayerCount: 2
Fore
SplineSet
457 737 m 0
 533 737 604 708 655 658 c 0
 709 605 735 537 735 450 c 0
 735 322 682 196 590 104 c 0
 510 25 417 -15 312 -15 c 0
 146 -15 40 98 40 275 c 0
 40 397 86 514 169 602 c 0
 253 692 349 737 457 737 c 0
460 694 m 0
 391 694 334 662 281 594 c 0
 216 510 158 328 158 207 c 0
 158 97 218 28 314 28 c 0
 392 28 465 71 510 144 c 0
 572 244 618 393 618 496 c 0
 618 543 603 603 584 634 c 0
 563 670 512 694 460 694 c 0
EndSplineSet
EndChar

StartChar: P
Encoding: 80 80 47
Width: 667
VWidth: 1000
Flags: MW
HStem: 0 47<-28 -23 -23 1.5 264 285 -33 -23> 318 47<247 279 260 265> 675 47<121 141 115 416 373.5 394 394 406>
VStem: 551 112<527.5 572 501.5 596.5>
LayerCount: 2
Fore
SplineSet
247 318 m 1
 195 123 l 2
 185 82 185 82 185 74 c 0
 185 52 199 47 264 47 c 2
 290 47 l 1
 285 0 l 1
 -33 0 l 1
 -28 47 l 1
 -23 47 l 2
 26 47 49 51 60 61 c 0
 68 69 69 69 83 123 c 2
 211 599 l 2
 216 619 220 640 220 648 c 0
 220 670 206 675 141 675 c 2
 115 675 l 1
 121 722 l 1
 416 722 l 2
 499 722 552 711 589 686 c 0
 637 653 663 603 663 541 c 0
 663 462 624 397 554 359 c 0
 486 323 451 318 265 318 c 2
 247 318 l 1
260 365 m 1
 279 365 l 2
 377 365 377 365 391 367 c 0
 446 372 482 390 508 422 c 0
 535 456 551 503 551 552 c 0
 551 641 511 675 406 675 c 2
 394 675 l 2
 353 675 340 665 330 627 c 2
 260 365 l 1
EndSplineSet
EndChar

StartChar: Q
Encoding: 81 81 48
Width: 778
VWidth: 1000
Flags: W
HStem: -15 44<290 333.5 290 335> 218 49<291 344.5>
VStem: 40 117<187 259.5 170.5 399> 186 37<114.5 146.5 90 165> 615 120<440 494.5 398.5 534.5>
LayerCount: 2
Fore
SplineSet
498 27 m 1
 498 5 l 1
 499 -61 504 -82 524 -102 c 0
 530 -107 539 -111 548 -111 c 0
 574 -111 601 -84 623 -38 c 1
 658 -60 l 1
 639 -95 623 -119 605 -139 c 0
 578 -169 537 -188 500 -188 c 0
 433 -188 385 -131 385 -51 c 0
 385 -42 386 -25 389 -8 c 1
 364 -13 347 -15 323 -15 c 0
 147 -15 40 96 40 278 c 0
 40 520 234 737 452 737 c 0
 529 737 599 711 651 663 c 0
 708 611 735 542 735 447 c 0
 735 350 704 254 644 167 c 0
 609 116 569 78 498 27 c 1
485 116 m 1
 565 226 615 375 615 505 c 0
 615 564 603 612 580 640 c 0
 555 672 506 693 455 693 c 0
 382 693 311 646 260 564 c 0
 198 464 157 319 157 200 c 0
 157 141 167 107 195 72 c 1
 188 95 186 106 186 123 c 0
 186 207 247 267 333 267 c 0
 420 267 475 213 485 116 c 1
396 45 m 1
 404 89 405 94 405 117 c 0
 405 178 371 218 318 218 c 0
 264 218 223 175 223 118 c 0
 223 62 259 29 321 29 c 0
 346 29 366 33 396 45 c 1
EndSplineSet
EndChar

StartChar: R
Encoding: 82 82 49
Width: 741
VWidth: 1000
Flags: W
HStem: 0 47<-36 -31 -31 -6.5 256 277 -41 -31> 350 47<248 338 260 317> 675 47<113 133 107 433 366.5 390 390 433 433 439>
VStem: 424 113<94 115 94 115.5> 571 120<534.5 587.5 525.5 600>
LayerCount: 2
Fore
SplineSet
248 350 m 1
 187 123 l 2
 177 82 177 82 177 74 c 0
 177 52 191 47 256 47 c 2
 282 47 l 1
 277 0 l 1
 -41 0 l 1
 -36 47 l 1
 -31 47 l 2
 18 47 41 51 52 61 c 0
 60 69 61 70 75 123 c 2
 203 599 l 2
 208 619 212 640 212 648 c 0
 212 670 198 675 133 675 c 2
 107 675 l 1
 113 722 l 1
 433 722 l 2
 517 722 566 714 605 694 c 0
 660 666 691 617 691 558 c 0
 691 493 651 432 589 400 c 0
 553 382 514 373 436 364 c 1
 509 337 539 289 539 202 c 0
 539 191 539 179 538 166 c 2
 537 115 l 2
 537 73 546 54 567 54 c 0
 595 54 612 76 637 147 c 1
 673 132 l 1
 634 26 594 -15 530 -15 c 0
 467 -15 424 34 424 106 c 0
 424 125 424 130 430 206 c 0
 432 227 433 248 433 260 c 0
 433 325 401 350 317 350 c 2
 248 350 l 1
260 397 m 1
 338 397 l 2
 422 397 452 402 489 424 c 0
 543 456 571 504 571 565 c 0
 571 635 523 675 439 675 c 2
 390 675 l 2
 343 675 333 666 319 615 c 2
 260 397 l 1
EndSplineSet
EndChar

StartChar: S
Encoding: 83 83 50
Width: 667
VWidth: 1000
Flags: MW
HStem: -15 43<266.5 350.5 266.5 378> 0 21<0 35 0 0>
VStem: 118 91<537.5 576> 473 96<148 189.5>
LayerCount: 2
Fore
SplineSet
632 715 m 1xb0
 578 454 l 1
 536 461 l 1
 537 470 537 478 537 481 c 0
 537 613 471 694 365 694 c 0
 276 694 209 637 209 563 c 0
 209 512 244 475 323 444 c 2
 408 410 l 2
 527 363 569 312 569 214 c 0
 569 82 456 -15 300 -15 c 0xb0
 219 -15 150 11 94 63 c 1
 35 0 l 1
 0 0 l 1x70
 55 285 l 1
 95 278 l 1
 94 267 94 254 94 250 c 0
 94 183 110 134 147 92 c 0
 186 48 234 28 299 28 c 0
 402 28 473 86 473 171 c 0
 473 208 458 237 429 258 c 0
 417 266 405 272 351 294 c 2
 265 330 l 2
 213 352 185 369 165 391 c 0
 135 424 118 468 118 513 c 0
 118 639 223 737 358 737 c 0
 431 737 488 714 540 663 c 1
 594 715 l 1
 632 715 l 1xb0
EndSplineSet
EndChar

StartChar: T
Encoding: 84 84 51
Width: 685
VWidth: 1000
Flags: MW
HStem: 0 47<85 107 107 131.5 395 426 80 107> 675 47<281 308 308 322 492.5 508 508 522>
LayerCount: 2
Fore
SplineSet
726 722 m 1
 684 447 l 1
 642 452 l 1
 644 493 644 504 644 522 c 0
 644 580 630 628 607 650 c 0
 589 666 560 675 522 675 c 2
 508 675 l 2
 477 675 472 670 458 619 c 2
 325 123 l 2
 320 104 316 81 316 74 c 0
 316 52 330 47 395 47 c 2
 432 47 l 1
 426 0 l 1
 80 0 l 1
 85 47 l 1
 107 47 l 2
 156 47 180 51 191 61 c 0
 199 69 200 70 214 123 c 2
 350 633 l 2
 353 644 355 653 355 658 c 0
 355 670 345 675 322 675 c 2
 308 675 l 2
 254 675 207 650 167 598 c 0
 140 564 130 547 81 458 c 1
 40 464 l 1
 128 722 l 1
 726 722 l 1
EndSplineSet
EndChar

StartChar: U
Encoding: 85 85 52
Width: 815
VWidth: 1000
Flags: MW
HStem: -15 43<313 368.5> 675 47<100 423 105 125 388.5 413 413 417 855 855>
VStem: 93 110<120.5 176 120.5 193>
LayerCount: 2
Fore
SplineSet
100 675 m 1
 105 722 l 1
 423 722 l 1
 417 675 l 1
 413 675 l 2
 364 675 340 671 330 661 c 0
 321 653 321 653 307 599 c 2
 217 266 l 2
 210 238 203 189 203 163 c 0
 203 78 262 28 364 28 c 0
 441 28 499 56 538 112 c 0
 562 146 574 179 603 290 c 2
 661 505 l 1
 683 594 684 598 684 620 c 0
 684 658 655 676 591 675 c 1
 597 722 l 1
 860 722 l 1
 855 675 l 1
 767 671 758 660 715 505 c 1
 659 294 l 2
 632 192 632 192 618 157 c 0
 587 76 548 33 483 8 c 0
 444 -7 394 -15 343 -15 c 0
 180 -15 93 52 93 176 c 0
 93 210 97 236 113 294 c 2
 195 599 l 2
 200 619 204 640 204 648 c 0
 204 670 190 675 125 675 c 2
 100 675 l 1
EndSplineSet
EndChar

StartChar: V
Encoding: 86 86 53
Width: 704
VWidth: 1000
Flags: MW
HStem: -15 21<259 296 259 259> 675 47<43 64 36 338 274.5 299 299 333 500 513 767 767>
LayerCount: 2
Fore
SplineSet
334 155 m 1
 557 556 l 2
 580 596 588 617 588 634 c 0
 588 663 566 675 513 675 c 2
 495 675 l 1
 500 722 l 1
 772 722 l 1
 767 675 l 1
 696 668 671 645 593 513 c 1
 296 -15 l 1
 259 -15 l 1
 142 577 l 2
 126 657 112 675 64 675 c 2
 36 675 l 1
 43 722 l 1
 338 722 l 1
 333 675 l 1
 299 675 l 2
 250 675 239 669 239 643 c 0
 239 634 242 614 247 591 c 2
 334 155 l 1
EndSplineSet
EndChar

StartChar: W
Encoding: 87 87 54
Width: 926
VWidth: 1000
Flags: MW
HStem: -15 21<225 260 225 225 557 595 557 557> 675 47<58 79 53 325 280 301 301 319 381 389 610.5 635 635 654 740 752 968 968>
LayerCount: 2
Fore
SplineSet
630 196 m 1
 793 572 l 2
 809 610 816 631 816 644 c 0
 816 665 795 675 752 675 c 2
 735 675 l 1
 740 722 l 1
 973 722 l 1
 968 675 l 1
 900 660 880 638 833 532 c 2
 595 -15 l 1
 557 -15 l 1
 487 490 l 1
 260 -15 l 1
 225 -15 l 1
 146 587 l 2
 141 624 134 652 127 659 c 0
 118 670 101 675 79 675 c 2
 53 675 l 1
 58 722 l 1
 325 722 l 1
 319 675 l 1
 301 675 l 2
 259 675 244 667 244 645 c 0
 244 639 244 634 249 599 c 2
 303 196 l 1
 471 579 l 1
 464 629 l 2
 458 672 452 675 389 675 c 2
 376 675 l 1
 381 722 l 1
 659 722 l 1
 654 675 l 1
 635 675 l 2
 586 675 574 669 574 648 c 0
 574 639 575 631 576 621 c 2
 630 196 l 1
EndSplineSet
EndChar

StartChar: X
Encoding: 88 88 55
Width: 704
VWidth: 1000
Flags: MW
HStem: 0 47<-68 -68 204 213 -73 -68 330 361 361 385 624 645> 675 47<77 96 72 392 346 369 369 387 487 502 765 765>
LayerCount: 2
Fore
SplineSet
406 392 m 1
 522 120 l 2
 552 51 558 47 624 47 c 2
 650 47 l 1
 645 0 l 1
 324 0 l 1
 330 47 l 1
 361 47 l 2
 409 47 422 52 422 70 c 0
 422 76 420 86 416 95 c 2
 326 309 l 1
 175 150 l 2
 150 124 136 100 136 82 c 0
 136 59 160 47 204 47 c 2
 219 47 l 1
 213 0 l 1
 -73 0 l 1
 -68 47 l 1
 1 56 31 74 106 153 c 2
 303 360 l 1
 199 605 l 2
 172 668 161 675 96 675 c 2
 72 675 l 1
 77 722 l 1
 392 722 l 1
 387 675 l 1
 369 675 l 2
 323 675 302 666 302 647 c 0
 302 640 303 637 312 615 c 2
 384 443 l 1
 506 568 l 2
 541 605 554 626 554 646 c 0
 554 666 537 675 502 675 c 2
 482 675 l 1
 487 722 l 1
 770 722 l 1
 765 675 l 1
 695 673 665 656 588 578 c 2
 406 392 l 1
EndSplineSet
EndChar

StartChar: Y
Encoding: 89 89 56
Width: 685
VWidth: 1000
Flags: MW
HStem: 0 47<92 114 114 138.5 402 433 86 114> 675 47<37 49 32 345 290 312 312 340 476 494 753 753>
LayerCount: 2
Fore
SplineSet
362 364 m 1
 532 582 l 2
 548 601 558 623 558 636 c 0
 558 660 534 675 494 675 c 2
 471 675 l 1
 476 722 l 1
 758 722 l 1
 753 675 l 1
 681 671 652 652 582 564 c 2
 382 308 l 1
 332 123 l 1
 322 82 322 82 322 74 c 0
 322 52 336 47 402 47 c 2
 438 47 l 1
 433 0 l 1
 86 0 l 1
 92 47 l 1
 114 47 l 2
 163 47 187 51 197 61 c 0
 206 69 206 70 220 123 c 2
 270 308 l 1
 150 606 l 2
 127 662 108 675 49 675 c 2
 32 675 l 1
 37 722 l 1
 345 722 l 1
 340 675 l 1
 312 675 l 2
 268 675 251 668 251 651 c 0
 251 643 255 630 262 613 c 2
 362 364 l 1
EndSplineSet
EndChar

StartChar: Z
Encoding: 90 90 57
Width: 667
VWidth: 1000
Flags: MW
HStem: 0 47<127 262 262 311> 675 47<376.5 418 418 514>
LayerCount: 2
Fore
SplineSet
667 722 m 1
 661 683 l 1
 127 47 l 1
 262 47 l 2
 360 47 421 68 473 120 c 0
 507 154 526 183 569 268 c 1
 611 256 l 1
 529 0 l 1
 -25 0 l 1
 -19 38 l 1
 514 675 l 1
 418 675 l 2
 335 675 279 662 241 633 c 0
 204 606 194 592 135 492 c 0
 131 484 127 477 124 472 c 1
 83 483 l 1
 164 722 l 1
 667 722 l 1
EndSplineSet
EndChar

StartChar: bracketleft
Encoding: 91 91 58
Width: 333
VWidth: 1000
Flags: HMW
HStem: -108 36<156 297> 685 37<156 297 156 156>
VStem: 66 90<-72 685>
LayerCount: 2
Fore
SplineSet
59.708 -72 m 1
 200.708 -72 l 1
 191.062 -108 l 1
 -39.9385 -108 l 1
 182.459 722 l 1
 413.459 722 l 1
 403.545 685 l 1
 262.545 685 l 1
 59.708 -72 l 1
EndSplineSet
EndChar

StartChar: backslash
Encoding: 92 92 59
Width: 606
VWidth: 1000
Flags: HMW
HStem: 0 20 717 20<74 132 132 132>
LayerCount: 2
Fore
SplineSet
252.479 737 m 1
 455 0 l 1
 397 0 l 1
 194.479 737 l 1
 252.479 737 l 1
EndSplineSet
EndChar

StartChar: bracketright
Encoding: 93 93 60
Width: 333
VWidth: 1000
Flags: HMW
HStem: -108 37<36 176> 686 36<36 176>
VStem: 176 90<-71 686 686 686>
LayerCount: 2
Fore
SplineSet
282.813 686 m 1
 142.813 686 l 1
 152.459 722 l 1
 382.459 722 l 1
 160.062 -108 l 1
 -69.9385 -108 l 1
 -60.0244 -71 l 1
 79.9756 -71 l 1
 282.813 686 l 1
EndSplineSet
EndChar

StartChar: asciicircum
Encoding: 94 94 61
Width: 606
VWidth: 1000
Flags: HMW
HStem: 702 20<261 346 346 346>
LayerCount: 2
Fore
SplineSet
562.208 318 m 1
 475.208 318 l 1
 395.54 629 l 1
 147.208 318 l 1
 60.208 318 l 1
 377.459 722 l 1
 462.459 722 l 1
 562.208 318 l 1
EndSplineSet
EndChar

StartChar: underscore
Encoding: 95 95 62
Width: 500
VWidth: 1000
Flags: HMW
HStem: -134 61<0 500>
LayerCount: 2
Fore
SplineSet
-96.5605 -73 m 1
 403.439 -73 l 1
 387.095 -134 l 1
 -112.905 -134 l 1
 -96.5605 -73 l 1
EndSplineSet
EndChar

StartChar: grave
Encoding: 96 96 63
Width: 333
VWidth: 1000
Flags: HMW
LayerCount: 2
Fore
SplineSet
308.353 535 m 1
 267.353 535 l 1
 134.344 632 l 2
 122.023 642 116.043 657 119.794 671 c 0
 125.153 691 144.172 706 164.172 706 c 0
 180.172 706 187.564 700 205.865 675 c 2
 308.353 535 l 1
EndSplineSet
EndChar

StartChar: a
Encoding: 97 97 64
Width: 574
VWidth: 1000
Flags: W
HStem: -15 51<147 180> 415 55<249 279.5 216.5 287.5> 435 20<396 483 483 483>
VStem: 1 91<103.5 178 103.5 188> 296 76<30.5 70>
LayerCount: 2
Fore
SplineSet
396 455 m 1xb8
 483 455 l 1xb8
 383 119 l 2
 376 94 372 75 372 65 c 0
 372 51 382 40 393 40 c 0
 419 40 454 82 492 158 c 1
 523 141 l 1
 511 114 494 86 474 58 c 0
 439 9 401 -15 357 -15 c 0
 321 -15 296 11 296 50 c 0
 296 60 297 67 301 82 c 1
 251 10 211 -15 149 -15 c 0
 60 -15 1 50 1 148 c 0
 1 228 31 312 82 378 c 0
 129 438 186 470 247 470 c 0xd8
 312 470 362 427 369 365 c 1
 396 455 l 1xb8
264 415 m 0xd8
 234 415 206 403 184 380 c 0
 131 326 92 222 92 134 c 0
 92 73 122 36 172 36 c 0
 222 36 258 64 289 126 c 0
 320 189 340 269 340 326 c 0
 340 381 311 415 264 415 c 0xd8
EndSplineSet
EndChar

StartChar: b
Encoding: 98 98 65
Width: 556
VWidth: 1000
Flags: W
HStem: -15 38<176 229 176 234> 409 61<312 333.5>
VStem: 32 85<89.5 138> 389 99<273 337.5>
LayerCount: 2
Fore
SplineSet
290 737 m 1
 184 379 l 1
 240 445 283 470 341 470 c 0
 430 470 488 403 488 300 c 0
 488 209 452 125 387 62 c 0
 332 9 273 -15 195 -15 c 0
 96 -15 32 41 32 128 c 0
 32 148 37 176 46 207 c 2
 166 611 l 2
 172 633 175 646 175 654 c 0
 175 677 159 686 118 686 c 2
 94 686 l 1
 98 722 l 1
 290 737 l 1
308 409 m 0
 258 409 214 378 176 318 c 1
 141 260 117 181 117 120 c 0
 117 59 149 23 203 23 c 0
 255 23 297 52 335 115 c 0
 369 172 389 241 389 305 c 0
 389 370 359 409 308 409 c 0
EndSplineSet
EndChar

StartChar: c
Encoding: 99 99 66
Width: 444
VWidth: 1000
Flags: MW
HStem: -15 48<160.5 214 160.5 214.5> 432 38<252 290>
VStem: 5 92<114.5 187.5 114.5 246> 285 116<340.5 348>
LayerCount: 2
Fore
SplineSet
341 132 m 1
 370 110 l 1
 317 27 252 -15 177 -15 c 0
 73 -15 5 56 5 166 c 0
 5 326 131 470 271 470 c 0
 343 470 401 422 401 362 c 0
 401 319 374 287 338 287 c 0
 307 287 285 307 285 336 c 0
 285 360 295 372 322 384 c 0
 333 388 338 393 338 399 c 0
 338 416 306 432 274 432 c 0
 230 432 194 408 159 358 c 0
 120 302 97 223 97 152 c 0
 97 77 131 33 190 33 c 0
 238 33 291 67 341 132 c 1
EndSplineSet
EndChar

StartChar: d
Encoding: 100 100 67
Width: 611
VWidth: 1000
Flags: W
HStem: -15 47<162.5 194> 425 45<259.5 298.5 209 308.5>
VStem: 3 97<107.5 168.5 107.5 233> 321 72<56.5 58>
LayerCount: 2
Fore
SplineSet
534 158 m 1
 564 140 l 1
 508 34 452 -15 389 -15 c 0
 345 -15 321 10 321 56 c 0
 321 60 321 70 322 78 c 1
 278 14 228 -15 160 -15 c 0
 67 -15 3 52 3 150 c 0
 3 316 137 470 281 470 c 0
 316 470 350 456 371 434 c 0
 382 422 388 412 396 388 c 1
 462 611 l 2
 468 631 471 645 471 655 c 0
 471 677 455 686 414 686 c 2
 383 686 l 1
 387 722 l 1
 586 737 l 1
 408 137 l 2
 398 102 393 79 393 65 c 0
 393 48 402 38 418 38 c 0
 451 38 476 64 534 158 c 1
284 425 m 0
 235 425 191 392 153 326 c 0
 121 270 100 197 100 140 c 0
 100 75 136 32 189 32 c 0
 237 32 279 65 312 129 c 0
 344 190 369 281 369 334 c 0
 369 387 333 425 284 425 c 0
EndSplineSet
EndChar

StartChar: e
Encoding: 101 101 68
Width: 444
VWidth: 1000
Flags: MW
HStem: -15 47<154 205.5> 430 39
VStem: -5 92 307 84<345.5 390>
LayerCount: 2
Fore
SplineSet
339 116 m 1
 363 89 l 1
 309 19 244 -15 167 -15 c 0
 59 -15 -6 50 -6 158 c 0
 -6 321 126 470 272 470 c 0
 342 470 391 428 391 367 c 0
 391 309 348 258 271 224 c 0
 226 204 206 198 89 170 c 1
 88 157 87 143 87 136 c 0
 87 72 124 32 184 32 c 0
 236 32 280 55 339 116 c 1
94 209 m 1
 150 221 167 226 196 239 c 0
 268 271 307 318 307 373 c 0
 307 407 285 430 252 430 c 0
 178 430 117 344 94 209 c 1
EndSplineSet
EndChar

StartChar: f
Encoding: 102 102 69
Width: 333
VWidth: 1000
Flags: MW
HStem: 408 47<45 121 32 132 219 334>
VStem: 364 106<631 642.5>
LayerCount: 2
Fore
SplineSet
219 455 m 1
 348 455 l 1
 334 408 l 1
 208 408 l 1
 146 161 l 2
 123 69 65 -122 42 -184 c 1
 -68 -202 l 1
 -6 -64 45 87 80 234 c 2
 121 408 l 1
 32 408 l 1
 45 455 l 1
 132 455 l 1
 157 547 173 589 202 636 c 0
 241 701 296 736 359 736 c 0
 423 736 470 698 470 646 c 0
 470 616 447 593 416 593 c 0
 387 593 364 613 364 638 c 0
 364 647 366 655 373 666 c 0
 379 676 380 680 380 684 c 0
 380 694 369 701 356 701 c 0
 319 701 292 674 268 615 c 0
 248 568 243 550 219 455 c 1
EndSplineSet
EndChar

StartChar: g
Encoding: 103 103 70
Width: 537
VWidth: 1000
Flags: MW
HStem: -202 42<96 175.5> 152 37<228.5 249.5 207 269> 409 96<475 477.5 442.5 494> 432 38<231 276 205 293>
VStem: -79 81<-104 -73.5> -6 74<78 133.5> 55 91<275 324 251 345> 322 77<-63.5 -56.5> 352 89<328.5 344 298.5 376.5>
LayerCount: 2
Fore
SplineSet
382 432 m 1xd480
 421 404 441 367 441 321 c 0
 441 276 415 225 376 194 c 0
 341 166 297 152 241 152 c 0
 216 152 210 153 169 159 c 0
 155 161 141 162 128 162 c 0
 93 162 68 145 68 122 c 0xd480
 68 105 81 93 105 87 c 0
 119 84 127 83 215 78 c 0
 283 74 315 67 347 50 c 0
 380 32 399 -1 399 -40 c 0
 399 -87 374 -130 331 -158 c 0
 282 -190 225 -202 126 -202 c 0
 43 -202 -3 -191 -43 -163 c 1
 -65 -146 -79 -118 -79 -90 c 0xc9
 -79 -57 -60 -25 -30 -7 c 0
 -9 6 7 12 49 21 c 1
 10 40 -6 61 -6 95 c 0xd480
 -6 119 7 146 27 162 c 1
 50 182 71 189 117 195 c 1
 74 218 55 251 55 299 c 0
 55 391 150 470 260 470 c 0xd280
 292 470 314 465 346 451 c 1
 398 492 425 505 460 505 c 0
 495 505 523 481 523 453 c 0
 523 428 505 409 483 409 c 0xe0
 467 409 461 413 445 435 c 0
 437 446 429 451 419 451 c 0
 407 451 398 446 382 432 c 1xd480
267 432 m 0
 195 432 146 369 146 279 c 0xd280
 146 223 180 189 234 189 c 0
 265 189 293 202 311 223 c 0
 336 254 352 305 352 352 c 0
 352 401 319 432 267 432 c 0
145 3 m 0
 55 3 2 -29 2 -83 c 0
 2 -135 48 -160 144 -160 c 0
 258 -160 322 -128 322 -69 c 0xc9
 322 -44 310 -27 285 -17 c 0
 262 -7 190 3 145 3 c 0
EndSplineSet
EndChar

StartChar: h
Encoding: 104 104 71
Width: 611
VWidth: 1000
Flags: W
HStem: 0 21<0 87 0 0> 410 60<343 358>
VStem: 303 82<49.5 60.5 49.5 70.5> 389 86<360.5 381>
LayerCount: 2
Fore
SplineSet
305 737 m 1
 186 335 l 1
 254 429 312 470 374 470 c 0
 431 470 475 428 475 372 c 0
 475 344 467 305 451 260 c 2
 404 122 l 2
 388 77 385 66 385 55 c 0
 385 44 393 36 403 36 c 0
 434 36 475 75 526 154 c 1
 555 133 l 1
 501 38 435 -15 373 -15 c 0
 333 -15 303 17 303 60 c 0
 303 81 308 103 321 143 c 2
 374 299 l 2
 384 330 389 352 389 369 c 0
 389 393 371 410 345 410 c 0
 298 410 248 374 202 307 c 0
 166 255 154 226 128 139 c 2
 87 0 l 1
 0 0 l 1
 181 611 l 2
 187 632 190 646 190 655 c 0
 190 677 174 686 133 686 c 2
 102 686 l 1
 106 722 l 1
 305 737 l 1
EndSplineSet
EndChar

StartChar: i
Encoding: 105 105 72
Width: 333
VWidth: 1000
Flags: W
HStem: 606 108<198 227.5>
VStem: 27 86<51 59>
LayerCount: 2
Fore
SplineSet
231 470 m 1
 125 113 l 2
 117 85 113 67 113 57 c 0
 113 45 120 36 130 36 c 0
 157 36 201 80 251 157 c 1
 282 140 l 1
 254 97 238 75 220 55 c 0
 180 9 139 -14 96 -14 c 0
 57 -14 27 13 27 48 c 0
 27 70 31 86 49 149 c 2
 107 344 l 2
 113 366 116 379 116 388 c 0
 116 410 100 419 59 419 c 2
 35 419 l 1
 39 455 l 1
 231 470 l 1
213 714 m 0
 243 714 267 690 267 660 c 0
 267 630 243 606 212 606 c 0
 183 606 159 631 159 660 c 0
 159 690 183 714 213 714 c 0
EndSplineSet
EndChar

StartChar: j
Encoding: 106 106 73
Width: 315
VWidth: 1000
Flags: W
HStem: -202 34<-59.5 -37.5> 606 108<248 277.5>
VStem: -166 104<-114 -104.5> 209 108<645.5 675>
LayerCount: 2
Fore
SplineSet
279 470 m 1
 160 70 l 2
 117 -75 109 -95 79 -132 c 1
 40 -177 -11 -202 -64 -202 c 0
 -126 -202 -166 -171 -166 -122 c 0
 -166 -87 -143 -62 -110 -62 c 0
 -82 -62 -62 -81 -62 -109 c 0
 -62 -119 -63 -123 -70 -136 c 0
 -73 -141 -75 -146 -75 -150 c 0
 -75 -159 -65 -168 -54 -168 c 0
 -10 -168 26 -114 54 -5 c 0
 64 36 74 73 79 87 c 2
 155 344 l 2
 162 367 164 379 164 387 c 0
 164 410 148 419 107 419 c 2
 72 419 l 1
 76 455 l 1
 279 470 l 1
263 714 m 0
 293 714 317 690 317 660 c 0
 317 630 293 606 262 606 c 0
 233 606 209 631 209 660 c 0
 209 690 233 714 263 714 c 0
EndSplineSet
EndChar

StartChar: k
Encoding: 107 107 74
Width: 556
VWidth: 1000
Flags: W
HStem: 0 21<-5 82 -5 -5> 195 49<201 203> 198 38<235 254.5> 410 60<338.5 357>
VStem: 390 81<345.5 373.5>
LayerCount: 2
Fore
SplineSet
300 737 m 1xb8
 176 319 l 1
 244 424 304 470 373 470 c 0
 428 470 471 430 471 379 c 0
 471 312 406 254 288 212 c 1
 320 186 331 160 336 90 c 0
 339 50 343 41 357 41 c 0
 381 41 404 66 461 154 c 1
 492 134 l 1
 430 30 380 -15 325 -15 c 0
 275 -15 251 18 251 85 c 0
 251 89 251 108 252 134 c 1
 252 171 l 2
 252 189 247 198 236 198 c 0xb8
 234 198 234 198 216 196 c 0
 209 195 204 195 202 195 c 0
 190 195 180 205 180 217 c 0
 180 234 191 244 211 244 c 0xd8
 219 244 231 242 238 239 c 0
 244 237 249 236 251 236 c 0
 258 236 271 241 293 252 c 0
 361 286 390 318 390 359 c 0
 390 388 370 410 344 410 c 0
 306 410 254 374 210 318 c 0
 178 277 140 197 120 130 c 2
 82 0 l 1
 -5 0 l 1
 176 611 l 2
 182 633 185 645 185 655 c 0
 185 677 169 686 128 686 c 2
 97 686 l 1
 101 722 l 1
 300 737 l 1xb8
EndSplineSet
EndChar

StartChar: l
Encoding: 108 108 75
Width: 333
VWidth: 1000
Flags: W
VStem: 16 80<51 62.5 51 70.5>
LayerCount: 2
Fore
SplineSet
294 737 m 1
 109 112 l 2
 96 69 96 68 96 57 c 0
 96 45 103 36 114 36 c 0
 142 36 187 80 237 157 c 1
 268 140 l 1
 208 38 144 -15 81 -15 c 0
 41 -15 16 12 16 55 c 0
 16 86 19 102 43 182 c 2
 170 611 l 2
 176 631 179 645 179 655 c 0
 179 677 163 686 122 686 c 2
 91 686 l 1
 95 722 l 1
 294 737 l 1
EndSplineSet
EndChar

StartChar: m
Encoding: 109 109 76
Width: 889
VWidth: 1000
Flags: W
HStem: 0 21<15 102 15 15 296 383 296 296> 410 60<348.5 367 628.5 645.5>
VStem: 396 81<371 383.5> 584 86<54.5 65.5 54.5 69> 672 85<368.5 384.5>
LayerCount: 2
Fore
SplineSet
230 470 m 1
 201 335 l 1
 271 435 317 470 380 470 c 0
 435 470 477 430 477 377 c 0
 477 365 475 348 471 329 c 1
 529 423 593 470 664 470 c 0
 718 470 757 432 757 379 c 0
 757 358 752 326 745 304 c 2
 682 110 l 2
 673 81 670 70 670 61 c 0
 670 48 680 36 691 36 c 0
 717 36 753 73 806 152 c 1
 837 131 l 1
 795 70 781 53 761 33 c 0
 727 1 695 -15 662 -15 c 0
 616 -15 584 13 584 55 c 0
 584 83 585 89 612 167 c 1
 658 309 l 2
 667 337 672 359 672 373 c 0
 672 396 658 410 633 410 c 0
 595 410 544 376 508 327 c 0
 476 284 451 228 426 145 c 2
 383 0 l 1
 296 0 l 1
 376 271 l 2
 388 309 396 351 396 371 c 0
 396 396 380 410 354 410 c 0
 279 410 188 294 143 141 c 2
 102 0 l 1
 15 0 l 1
 117 344 l 2
 122 362 125 378 125 387 c 0
 125 410 109 419 69 419 c 2
 45 419 l 1
 48 455 l 1
 230 470 l 1
EndSplineSet
EndChar

StartChar: n
Encoding: 110 110 77
Width: 611
VWidth: 1000
Flags: W
HStem: 0 21<14 101 14 14> 410 60<355.5 366.5>
VStem: 309 82<49.5 60.5 49.5 70> 395 86<360.5 380.5>
LayerCount: 2
Fore
SplineSet
229 470 m 1
 200 335 l 1
 267 427 326 470 385 470 c 0
 438 470 481 426 481 373 c 0
 481 344 473 305 457 260 c 2
 410 122 l 2
 394 78 391 66 391 55 c 0
 391 44 399 36 409 36 c 0
 440 36 483 77 533 156 c 1
 562 135 l 1
 506 38 442 -15 379 -15 c 0
 339 -15 309 17 309 59 c 0
 309 81 314 104 327 143 c 2
 380 299 l 2
 390 330 395 352 395 369 c 0
 395 392 378 410 355 410 c 0
 312 410 259 371 216 307 c 0
 180 254 168 226 142 139 c 2
 101 0 l 1
 14 0 l 1
 116 344 l 2
 122 366 125 379 125 388 c 0
 125 410 109 419 68 419 c 2
 44 419 l 1
 48 455 l 1
 229 470 l 1
EndSplineSet
EndChar

StartChar: o
Encoding: 111 111 78
Width: 500
VWidth: 1000
Flags: MW
HStem: -15 38<155 210.5 155 219> 432 38<249 295.5>
VStem: 5 90<115 169.5 94 213.5> 355 95<283 333 244 347.5>
LayerCount: 2
Fore
SplineSet
273 470 m 0
 370 470 450 385 450 281 c 0
 450 207 418 127 365 67 c 0
 317 13 255 -15 183 -15 c 0
 74 -15 5 58 5 172 c 0
 5 255 34 327 89 384 c 0
 143 440 208 470 273 470 c 0
268 432 m 0
 230 432 198 414 170 378 c 0
 129 323 95 211 95 128 c 0
 95 60 126 23 184 23 c 0
 237 23 274 53 308 122 c 0
 335 177 355 257 355 309 c 0
 355 386 323 432 268 432 c 0
EndSplineSet
EndChar

StartChar: p
Encoding: 112 112 79
Width: 574
VWidth: 1000
Flags: W
HStem: -202 36<-97 -97 131 139 -101 -97> -15 50<213 263.5 212.5 281> 417 53<342.5 359.5>
VStem: 412 94<301.5 331.5 266 355.5>
LayerCount: 2
Fore
SplineSet
234 470 m 1
 219 385 l 1
 264 440 317 470 368 470 c 0
 407 470 447 450 473 418 c 0
 496 389 506 356 506 307 c 0
 506 225 477 142 426 78 c 1
 378 16 316 -15 246 -15 c 0
 180 -15 154 4 127 73 c 1
 78 -90 l 2
 71 -115 67 -132 67 -140 c 0
 67 -160 83 -166 131 -166 c 2
 143 -166 l 1
 139 -202 l 1
 -101 -202 l 1
 -97 -166 l 1
 -29 -163 -28 -162 -8 -90 c 1
 120 344 l 2
 126 363 129 378 129 388 c 0
 129 410 113 419 72 419 c 2
 48 419 l 1
 52 455 l 1
 234 470 l 1
337 417 m 0
 297 417 255 389 222 339 c 0
 184 281 153 185 153 127 c 0
 153 74 188 35 237 35 c 0
 290 35 330 69 365 144 c 0
 395 206 412 274 412 329 c 0
 412 382 382 417 337 417 c 0
EndSplineSet
EndChar

StartChar: q
Encoding: 113 113 80
Width: 556
VWidth: 1000
Flags: MW
HStem: -202 36<148 148 386 390 144 148> -14 48<150 176.5> 431 39<252 297 200.5 299.5>
VStem: 0 95<122 165 107 229.5>
LayerCount: 2
Fore
SplineSet
499 470 m 1
 333 -90 l 2
 327 -111 322 -132 322 -140 c 0
 322 -160 338 -166 386 -166 c 2
 394 -166 l 1
 390 -202 l 1
 144 -202 l 1
 148 -166 l 1
 225 -164 226 -163 246 -90 c 1
 289 55 l 1
 244 7 202 -14 151 -14 c 0
 112 -14 67 3 42 29 c 1
 16 54 0 99 0 145 c 0
 0 314 130 470 271 470 c 0
 323 470 366 446 399 401 c 1
 460 470 l 1
 499 470 l 1
276 431 m 0
 228 431 178 390 141 319 c 0
 114 268 95 192 95 138 c 0
 95 76 127 34 173 34 c 0
 226 34 277 77 312 153 c 0
 336 205 356 287 356 336 c 0
 356 392 323 431 276 431 c 0
EndSplineSet
EndChar

StartChar: r
Encoding: 114 114 81
Width: 444
VWidth: 1000
Flags: MW
HStem: 0 21<9 96 9 9> 332 138<364.5 377>
VStem: 327 106<377.5 393.5>
LayerCount: 2
Fore
SplineSet
224 470 m 1
 201 354 l 1
 254 436 298 470 354 470 c 0
 400 470 433 439 433 396 c 0
 433 359 408 332 374 332 c 0
 355 332 339 340 331 354 c 0
 327 360 327 363 327 386 c 0
 327 401 321 409 309 409 c 0
 263 409 180 283 143 158 c 2
 96 0 l 1
 9 0 l 1
 111 344 l 2
 116 362 121 384 121 391 c 0
 121 410 103 419 63 419 c 2
 39 419 l 1
 43 455 l 1
 224 470 l 1
EndSplineSet
EndChar

StartChar: s
Encoding: 115 115 82
Width: 444
VWidth: 1000
Flags: W
HStem: -15 38<141.5 201.5 141.5 219.5> 432 38<210 258>
VStem: -1 109<106 117.5> 63 74<332.5 362.5> 281 75<93.5 128> 283 109<348 358.5>
LayerCount: 2
Fore
SplineSet
244 470 m 0xd4
 330 470 392 427 392 366 c 0
 392 330 369 305 335 305 c 0
 305 305 283 324 283 351 c 0
 283 366 285 371 299 391 c 0
 302 396 304 401 304 405 c 0
 304 421 277 432 239 432 c 0
 181 432 137 398 137 352 c 0xd4
 137 313 154 297 219 274 c 0
 274 254 284 249 306 235 c 0
 338 213 356 178 356 139 c 0
 356 48 277 -15 162 -15 c 0
 62 -15 -1 28 -1 98 c 0
 -1 137 24 165 57 165 c 0
 86 165 108 143 108 115 c 0
 108 97 105 92 87 72 c 0
 83 69 80 62 80 57 c 0
 80 37 116 23 167 23 c 0
 236 23 281 58 281 111 c 0xe8
 281 145 267 160 210 183 c 0
 169 199 148 209 132 217 c 0
 88 240 63 277 63 319 c 0
 63 406 139 470 244 470 c 0xd4
EndSplineSet
EndChar

StartChar: t
Encoding: 116 116 83
Width: 352
VWidth: 1000
Flags: MW
HStem: 408 47<39 119 25 133 220 315>
VStem: 25 83<57.5 70 57.5 72>
LayerCount: 2
Fore
SplineSet
269 621 m 1
 220 455 l 1
 329 455 l 1
 315 408 l 1
 206 408 l 1
 111 89 l 2
 109 81 108 74 108 66 c 0
 108 49 117 38 131 38 c 0
 164 38 193 66 255 160 c 1
 285 140 l 1
 259 98 249 82 235 63 c 0
 200 16 144 -15 97 -15 c 0
 57 -15 25 19 25 61 c 0
 25 83 30 106 44 156 c 2
 119 408 l 1
 25 408 l 1
 39 455 l 1
 133 455 l 1
 182 621 l 1
 269 621 l 1
EndSplineSet
EndChar

StartChar: u
Encoding: 117 117 84
Width: 611
VWidth: 1000
Flags: MW
HStem: -14 56<159 172> 435 20<44 44 422 509 509 509>
VStem: 42 86<73 91 73 93.5> 311 87<57.5 60.5>
LayerCount: 2
Fore
SplineSet
509 455 m 1
 410 123 l 2
 402 94 398 75 398 64 c 0
 398 51 407 40 417 40 c 0
 437 40 477 81 526 153 c 1
 556 135 l 1
 485 25 436 -15 375 -15 c 0
 338 -15 311 13 311 51 c 0
 311 70 313 84 323 119 c 1
 264 27 207 -14 137 -14 c 0
 81 -14 42 23 42 78 c 0
 42 109 42 109 73 209 c 1
 113 344 l 2
 118 362 121 378 121 387 c 0
 121 410 106 419 65 419 c 2
 41 419 l 1
 44 455 l 1
 237 470 l 1
 139 142 l 2
 131 115 128 97 128 85 c 0
 128 61 147 42 171 42 c 0
 242 42 334 156 375 295 c 2
 422 455 l 1
 509 455 l 1
EndSplineSet
EndChar

StartChar: v
Encoding: 118 118 85
Width: 519
VWidth: 1000
Flags: MW
HStem: -16 53<177.5 207>
VStem: 45 85<93 130.5> 338 107<412 413 352 433.5>
LayerCount: 2
Fore
SplineSet
222 470 m 1
 154 239 l 2
 136 179 130 147 130 115 c 0
 130 71 159 37 196 37 c 0
 248 37 304 87 343 168 c 0
 369 221 387 283 387 317 c 0
 387 339 383 347 359 374 c 0
 344 391 338 404 338 420 c 0
 338 447 358 470 383 470 c 0
 418 470 445 435 445 391 c 0
 445 313 408 195 358 114 c 0
 304 28 242 -16 172 -16 c 0
 100 -16 45 41 45 115 c 0
 45 146 52 188 64 229 c 2
 98 344 l 2
 104 362 108 383 108 390 c 0
 108 410 90 419 51 419 c 2
 34 419 l 1
 37 455 l 1
 222 470 l 1
EndSplineSet
EndChar

StartChar: w
Encoding: 119 119 86
Width: 778
VWidth: 1000
Flags: MW
HStem: -15 53<155.5 160.5 448 473> 435 20<40 40 411 498 498 498>
VStem: 32 86<72.5 92> 331 79<87 98.5> 600 108<411.5 413 350 434>
LayerCount: 2
Fore
SplineSet
225 470 m 1
 138 177 l 2
 118 110 118 108 118 86 c 0
 118 59 141 38 170 38 c 0
 204 38 238 62 274 113 c 0
 314 168 343 227 361 288 c 2
 411 455 l 1
 498 455 l 1
 433 239 l 2
 417 183 410 145 410 109 c 0
 410 65 431 38 465 38 c 0
 512 38 559 82 604 166 c 0
 630 216 649 280 649 318 c 0
 649 339 645 347 621 374 c 0
 605 392 600 403 600 420 c 0
 600 448 620 470 646 470 c 0
 681 470 708 435 708 391 c 0
 708 309 667 186 613 102 c 0
 560 21 507 -15 439 -15 c 0
 373 -15 331 27 331 93 c 0
 331 104 332 118 333 134 c 1
 297 80 282 62 257 37 c 0
 224 3 182 -15 139 -15 c 0
 74 -15 32 23 32 82 c 0
 32 102 37 128 49 167 c 2
 101 344 l 2
 106 360 109 378 109 387 c 0
 109 410 94 419 53 419 c 2
 36 419 l 1
 40 455 l 1
 225 470 l 1
EndSplineSet
EndChar

StartChar: x
Encoding: 120 120 87
Width: 500
VWidth: 1000
Flags: MW
HStem: -15 61<13 84 321.5 326.5> -15 120<13 30.5 3 57> 355 115<412 430.5>
LayerCount: 2
Fore
SplineSet
201 155 m 1x60
 171 101 l 2
 128 25 81 -15 33 -15 c 0
 -7 -15 -33 10 -33 47 c 0
 -33 81 -12 105 18 105 c 0x60
 43 105 56 93 61 66 c 0
 63 53 69 46 76 46 c 0
 92 46 117 74 145 125 c 2
 190 205 l 1
 178 263 l 2
 158 362 158 362 149 378 c 0
 145 386 135 393 128 393 c 0
 111 393 97 378 46 305 c 1
 17 326 l 1
 62 391 76 411 92 429 c 0
 117 457 139 470 161 470 c 0
 202 470 224 437 241 351 c 2
 252 296 l 1
 281 348 l 2
 315 411 316 411 336 433 c 0
 357 456 387 470 414 470 c 0
 447 470 471 444 471 409 c 0
 471 376 452 355 421 355 c 0
 403 355 396 360 387 380 c 0
 383 389 378 393 370 393 c 0
 352 393 331 371 307 326 c 2
 263 245 l 1
 282 150 l 1
 300 68 310 46 333 46 c 0
 351 46 368 61 397 100 c 0
 412 121 415 126 425 142 c 1
 456 125 l 1
 430 79 427 74 409 53 c 0
 363 -3 345 -15 308 -15 c 0xa0
 259 -15 233 13 216 88 c 2
 201 155 l 1x60
EndSplineSet
EndChar

StartChar: y
Encoding: 121 121 88
Width: 500
VWidth: 1000
Flags: MW
HStem: -202 128<-41.5 42> 389 81<83.5 147.5>
VStem: -79 98<-148.5 -128.5 -149 -113> 360 94<417.5 433.5>
LayerCount: 2
Fore
SplineSet
220 315 m 2
 264 104 l 1
 329 207 368 301 368 351 c 0
 368 366 368 369 362 403 c 0
 361 409 360 415 360 420 c 0
 360 447 382 470 409 470 c 0
 436 470 454 449 454 418 c 0
 454 385 442 354 385 244 c 0
 310 98 231 -34 184 -94 c 0
 125 -168 71 -202 13 -202 c 0
 -39 -202 -79 -169 -79 -128 c 0
 -79 -98 -56 -74 -27 -74 c 0
 -8 -74 9 -86 16 -105 c 0
 19 -113 19 -113 19 -144 c 0
 19 -154 26 -160 38 -160 c 0
 65 -160 104 -132 144 -83 c 0
 161 -61 168 -51 201 1 c 1
 179 127 161 211 130 325 c 0
 119 368 106 389 92 389 c 0
 75 389 64 373 27 293 c 1
 -4 307 l 1
 37 415 82 470 126 470 c 0
 169 470 197 424 220 315 c 2
EndSplineSet
EndChar

StartChar: z
Encoding: 122 122 89
Width: 463
VWidth: 1000
Flags: MW
HStem: -15 76<208.5 283.5> 394 76<124.5 198>
VStem: -33 54<16.5 24>
LayerCount: 2
Fore
SplineSet
353 151 m 1
 388 139 l 1
 357 45 294 -15 226 -15 c 0
 191 -15 155 -5 107 17 c 0
 42 48 42 48 30 48 c 0
 22 48 21 47 21 31 c 0
 21 2 10 -15 -9 -15 c 0
 -24 -15 -33 -6 -33 9 c 0
 -33 39 -7 86 39 137 c 0
 96 199 119 217 266 308 c 0
 304 332 315 342 340 368 c 1
 315 362 303 360 289 360 c 0
 259 360 252 361 197 380 c 0
 171 388 147 394 137 394 c 0
 112 394 86 369 55 314 c 1
 22 331 l 1
 70 425 123 470 187 470 c 0
 209 470 226 464 271 442 c 0
 301 427 326 419 343 419 c 0
 357 419 363 424 369 445 c 0
 374 462 382 470 393 470 c 0
 407 470 417 460 417 447 c 0
 417 421 385 366 338 313 c 0
 289 257 248 225 171 181 c 0
 92 135 73 121 50 92 c 1
 74 99 86 101 99 101 c 0
 127 101 139 98 200 77 c 0
 228 67 253 61 267 61 c 0
 300 61 326 89 353 151 c 1
EndSplineSet
EndChar

StartChar: braceleft
Encoding: 123 123 90
Width: 333
VWidth: 1000
Flags: HMW
HStem: 688 34<297 297>
VStem: 142 74<42 52 52 158 158 182 456 562>
LayerCount: 2
Fore
SplineSet
66.9736 291 m 1
 75.5479 323 l 1
 121.299 337 137.71 346 153.605 368 c 0
 167.429 386 170.84 395 187.185 456 c 2
 218.267 572 l 2
 235.951 638 255.33 673 286.225 695 c 0
 308.512 711 350.459 722 387.459 722 c 2
 413.459 722 l 1
 404.349 688 l 1
 338.277 684 315.311 658 289.588 562 c 2
 254.754 432 l 2
 236.266 363 217.103 340 154.261 307 c 1
 199.418 274 206.255 251 187.767 182 c 2
 152.934 52 l 2
 127.21 -44 136.243 -70 200.172 -74 c 1
 191.062 -108 l 1
 165.062 -108 l 2
 128.062 -108 92.0088 -97 78.2959 -81 c 0
 59.1914 -59 58.5693 -24 76.2539 42 c 2
 107.336 158 l 2
 125.021 224 125.968 235 119.06 254 c 0
 111.614 271 101.49 278 66.9736 291 c 1
EndSplineSet
EndChar

StartChar: bar
Encoding: 124 124 91
Width: 606
VWidth: 1000
Flags: HMW
HStem: 0 20 702 20<264 342 342 342>
VStem: 264 78<0 722>
LayerCount: 2
Fore
SplineSet
458.459 722 m 5
 265 0 l 5
 187 0 l 5
 380.459 722 l 5
 458.459 722 l 5
EndSplineSet
EndChar

StartChar: braceright
Encoding: 125 125 92
Width: 333
VWidth: 1000
Flags: HMW
HStem: 688 34<36 36>
VStem: 116 74<52 158 432 456 456 562 562 572>
LayerCount: 2
Fore
SplineSet
276.548 323 m 1
 267.974 291 l 1
 221.222 277 205.811 268 188.915 246 c 0
 175.093 228 171.681 219 155.336 158 c 2
 124.254 42 l 2
 106.569 -24 86.9229 -60 56.2959 -81 c 0
 34.0088 -97 -7.93848 -108 -44.9385 -108 c 2
 -69.9385 -108 l 1
 -60.8281 -74 l 1
 4.24316 -70 27.21 -44 52.9336 52 c 2
 87.7666 182 l 2
 106.255 251 125.418 274 188.261 307 c 1
 143.103 340 136.266 363 154.754 432 c 2
 189.588 562 l 2
 215.311 658 206.277 684 143.349 688 c 1
 152.459 722 l 1
 177.459 722 l 2
 214.459 722 250.512 711 264.225 695 c 0
 283.598 674 283.951 638 266.267 572 c 2
 235.185 456 l 2
 217.5 390 216.553 379 224.462 360 c 0
 230.906 343 241.031 336 276.548 323 c 1
EndSplineSet
EndChar

StartChar: asciitilde
Encoding: 126 126 93
Width: 606
VWidth: 1000
Flags: HMW
HStem: 165 80<406 430> 247 80<176 200>
LayerCount: 2
Fore
SplineSet
75.7666 182 m 1
 32.9492 220 l 1
 87.3652 285 153.619 327 201.619 327 c 0
 226.619 327 246.744 320 292.045 295 c 2
 332.15 273 l 2
 378.184 247 384.647 245 404.647 245 c 0
 432.647 245 470.078 269 508.064 310 c 1
 550.882 272 l 1
 496.466 207 430.212 165 382.212 165 c 0
 357.212 165 335.355 173 291.518 196 c 2
 251.681 219 l 2
 200.915 246 199.184 247 179.184 247 c 0
 151.184 247 113.753 223 75.7666 182 c 1
EndSplineSet
EndChar

StartChar: sterling
Encoding: 163 163 94
Width: 570
VWidth: 1000
Flags: HW
HStem: -15 87<153.97 466.133> 307 65<43 97.1377 234.062 439> 478 21G<423.5 462> 651 53<259.857 418.64>
VStem: 85 126<374.217 599.947> 108.532 125.53<152.957 307> 423 102<537.5 632.658> 509 43<122.933 145.907>
LayerCount: 2
Back
SplineSet
36 372 m 1
 432 372 l 1
 432 325 l 1
 36 325 l 1
 36 372 l 1
41 0 m 1
 34 66 l 1
 115.593 126.053 115 245 95.2844 344 c 0
 83.9921 400.703 78 457.964 78 506 c 0
 78 624 171.866 704 310.32 704 c 0
 430 704 518 644 518 562 c 0
 518 513 476 478 434 478 c 0
 399 478 364 503 364 537 c 0
 364 565 369.955 583.133 406.5 600 c 0
 413 603 416 609.667 416 615.5 c 0
 416 630.5 380 651 334 651 c 0
 251 651 202.717 593.991 204 508 c 0
 205 441 216.187 401.682 223.437 344 c 0
 235 252 224.524 154.997 186 94 c 5
 246 94 339 72 376 72 c 0
 441 72 474 96 502 162 c 1
 537 147 l 1
 514 42 455 -15 371 -15 c 0
 321 -15 144 18 41 0 c 1
EndSplineSet
Fore
SplineSet
239.322 307 m 1xf4
 221.067 215.669 183.869 142.866 95.7041 81 c 5
 196.795 100 288.292 72 325.292 72 c 0
 390.292 72 429.723 96 475.408 162 c 1
 513.049 142 l 1
 461.914 37 390.98 -15 296.98 -15 c 0
 246.98 -15 116.02 15 -30.1436 -8 c 1
 -18.3154 66 l 1
 67.4453 118.718 102.022 216.839 113.792 307 c 1xf5
 48.2607 307 l 1
 65.6768 372 l 1
 119.814 372 l 1
 124.529 419.304 132.83 465.874 143.582 506 c 0
 175.2 624 290.495 704 428.948 704 c 0
 548.637 704 620.56 644 598.588 562 c 0
 585.458 513 534.08 478 492.08 478 c 0
 457.08 478 428.778 503 437.889 537 c 0
 445.392 565 456.205 583.141 497.27 600 c 0
 504.573 603 509.361 609.672 510.923 615.5 c 0
 514.942 630.5 484.435 651 438.435 651 c 0
 355.435 651 291.877 593.984 270.118 508 c 0xfa
 256.041 452.367 254.158 415.824 249.181 372 c 1
 461.677 372 l 1
 444.261 307 l 1
 239.322 307 l 1xf4
EndSplineSet
EndChar

StartChar: uni0591
Encoding: 1425 1425 95
Width: 0
VWidth: 1000
Flags: HMW
HStem: -1242.51 172.8<-402.245 -367.685> -983.318 172.8<-402.245 -367.685>
VStem: -471.365 172.802<-1173.4 -1138.84 -916.295 -892.598>
LayerCount: 2
Fore
SplineSet
-143.014 -140.992 m 1
 -121.312 -60 l 1
 -64.8418 -60 l 1
 -86.543 -140.992 l 1
 -37.3184 -153.7 -10.8936 -201.132 -26.0361 -257.647 c 1
 -82.5068 -257.647 l 1
 -73.1104 -222.579 -93.9453 -194.118 -129.014 -194.118 c 0
 -164.082 -194.118 -200.169 -222.579 -209.565 -257.647 c 1
 -266.036 -257.647 l 1
 -250.894 -201.132 -199.049 -153.7 -143.014 -140.992 c 1
EndSplineSet
EndChar

StartChar: uni0592
Encoding: 1426 1426 96
Width: 0
VWidth: 1070
Flags: HW
HStem: 780 79.998<-5 1>
LayerCount: 2
Fore
SplineSet
131.999 780 m 0
 109.919 780 96.8008 797.919 102.717 819.998 c 0
 108.634 842.079 131.354 859.998 153.435 859.998 c 0
 175.518 859.998 188.635 842.079 182.718 819.998 c 0
 176.802 797.919 154.082 780 131.999 780 c 0
39.8486 660 m 0
 17.7666 660 4.64844 677.92 10.5645 700 c 0
 16.4805 722.078 39.2021 740 61.2842 740 c 0
 83.3633 740 96.4814 722.078 90.5654 700 c 0
 84.6494 677.92 61.9277 660 39.8486 660 c 0
159.846 660 m 0
 137.766 660 124.647 677.92 130.563 700 c 0
 136.479 722.078 159.201 740 181.281 740 c 0
 203.363 740 216.48 722.078 210.564 700 c 0
 204.648 677.92 181.928 660 159.846 660 c 0
EndSplineSet
EndChar

StartChar: uni0593
Encoding: 1427 1427 97
Width: 0
VWidth: 1000
Flags: HW
LayerCount: 2
Fore
SplineSet
174.996 914.117 m 1
 248.354 871.765 l 1
 152.3 829.411 l 1
 225.656 787.059 l 1
 129.603 744.705 l 1
 202.96 702.354 l 1
 106.906 660 l 1
 64.1133 684.705 l 1
 104.136 702.354 l 1
 30.7783 744.705 l 1
 126.832 787.059 l 1
 53.4756 829.411 l 1
 149.529 871.765 l 1
 118.965 889.411 l 1
 174.996 914.117 l 1
EndSplineSet
EndChar

StartChar: uni0594
Encoding: 1428 1428 98
Width: 0
VWidth: 1000
Flags: HW
LayerCount: 2
Fore
SplineSet
121.281 740 m 4
 143.359 740 156.481 722.08 150.566 700.002 c 4
 144.65 677.923 121.924 660 99.8457 660 c 4
 77.7695 660 64.6475 677.923 70.5645 700.002 c 4
 76.4795 722.08 99.2051 740 121.281 740 c 4
153.435 859.998 m 4
 175.513 859.998 188.635 842.078 182.719 819.998 c 4
 176.803 797.92 154.077 779.998 131.999 779.998 c 4
 109.923 779.998 96.8008 797.92 102.717 819.998 c 4
 108.633 842.078 131.358 859.998 153.435 859.998 c 4
EndSplineSet
EndChar

StartChar: uni0595
Encoding: 1429 1429 99
Width: 0
VWidth: 1000
Flags: HW
HStem: 660 80<48 56> 779.998 80<48 56>
VStem: -94.002 60.0029<660 864>
LayerCount: 2
Fore
SplineSet
60.5059 864 m 5
 120.491 863.934 l 261
 65.8477 660 l 5
 5.8623 660.067 l 5
 60.5059 864 l 5
175.283 740 m 0
 197.36 740 210.482 722.08 204.567 700.002 c 0
 198.651 677.923 175.925 660 153.848 660 c 0
 131.771 660 118.65 677.923 124.566 700.002 c 0
 130.481 722.08 153.206 740 175.283 740 c 0
207.437 859.998 m 0
 229.514 859.998 242.636 842.078 236.72 819.998 c 0
 230.804 797.92 208.078 779.998 186.001 779.998 c 0
 163.924 779.998 150.803 797.92 156.719 819.998 c 0
 162.635 842.078 185.359 859.998 207.437 859.998 c 0
EndSplineSet
EndChar

StartChar: uni0596
Encoding: 1430 1430 100
Width: 0
VWidth: 1000
Flags: HW
LayerCount: 2
Fore
SplineSet
-76.7344 -236.471 m 1
 -114.427 -271.766 l 1
 -165.721 -221.751 -181.31 -151.827 -159.398 -70.0537 c 0
 -158.452 -66.5195 -157.593 -63.5312 -156.507 -60 c 1
 -100.037 -60 l 1
 -115.724 -128.072 -108.151 -185.417 -76.7344 -236.471 c 1
EndSplineSet
EndChar

StartChar: uni0597
Encoding: 1431 1431 101
Width: 0
VWidth: 1000
Flags: HW
DStem2: 0 848.235 -70.5889 754.117 0.600002 -0.799998<32.9407 117.648>
LayerCount: 2
Fore
SplineSet
54.4766 754.117 m 1
 150.284 848.235 l 5
 195.654 754.117 l 1
 99.8467 660 l 1
 54.4766 754.117 l 1
EndSplineSet
EndChar

StartChar: uni0598
Encoding: 1432 1432 102
Width: 0
VWidth: 1000
Flags: HW
HStem: 660 46.8711<61 69> 759.601 46.8701<-70 -66>
VStem: -161.117 46.8701<704 714> 114.246 46.8711<751 762>
LayerCount: 2
Fore
SplineSet
236.742 800 m 1
 286.274 800 l 1
 287.212 795 292.472 777.591 286.082 753.742 c 0
 272.216 701.996 218.968 660 167.224 660 c 0
 125.14 660 96.9463 687.778 95.3447 725.985 c 0
 94.5986 745.409 80.4268 759.601 59.1572 759.601 c 0
 33.2852 759.601 6.66113 738.604 -0.271484 712.729 c 0
 -4.42578 697.227 0.749023 675 5.80078 664 c 1
 -46.54 664 l 1
 -49.6582 677 -53.1768 690.206 -47.1416 712.729 c 0
 -33.2764 764.475 19.9727 806.471 71.7158 806.471 c 0
 114.699 806.471 143.459 777.908 143.929 738.436 c 0
 145.355 720.071 159.268 706.871 179.782 706.871 c 0
 205.653 706.871 232.278 727.869 239.211 753.742 c 0
 243.236 768.766 241.941 787.679 236.742 800 c 1
EndSplineSet
EndChar

StartChar: uni0599
Encoding: 1433 1433 103
Width: 0
VWidth: 1000
Flags: HW
LayerCount: 2
Fore
SplineSet
83.5039 836.471 m 1
 121.196 871.766 l 1
 172.49 821.751 188.079 751.827 166.168 670.054 c 0
 165.222 666.52 164.362 663.531 163.276 660 c 1
 106.807 660 l 1
 122.493 728.072 114.921 785.417 83.5039 836.471 c 1
EndSplineSet
EndChar

StartChar: uni059A
Encoding: 1434 1434 104
Width: 0
VWidth: 1000
Flags: HW
DStem2: -127.059 -158.823 -14.1172 -158.823 0.894428 0.447212<101.018 220.976> -14.1172 -158.823 -127.059 -158.823 0.894426 -0.447216<0 119.958>
LayerCount: 2
Fore
SplineSet
-22.4893 -60 m 5
 26.416 -88.2354 l 5
 -133.674 -158.823 l 5
 -11.4121 -229.412 l 5
 -75.4482 -257.647 l 5
 -246.615 -158.823 l 5
 -22.4893 -60 l 5
EndSplineSet
EndChar

StartChar: uni059B
Encoding: 1435 1435 105
Width: 0
VWidth: 1000
Flags: HW
HStem: -140.001 80.001<-68 -50>
LayerCount: 2
Fore
SplineSet
-151.911 -60 m 0
 -129.833 -60 -116.712 -77.9199 -122.628 -100 c 0
 -128.544 -122.078 -151.27 -140.001 -173.347 -140.001 c 0
 -195.424 -140.001 -208.545 -122.078 -202.629 -100 c 0
 -196.713 -77.9199 -173.988 -60 -151.911 -60 c 0
-168.784 -236.471 m 1
 -110.008 -185.417 -71.7031 -128.072 -50.9111 -60 c 1
 5.55859 -60 l 1
 4.75195 -63.5312 4.00977 -66.5195 3.06348 -70.0537 c 0
 -18.8477 -151.827 -71.9092 -221.751 -150.006 -271.766 c 1
 -168.784 -236.471 l 1
EndSplineSet
EndChar

StartChar: uni059C
Encoding: 1436 1436 106
Width: 0
VWidth: 1000
Flags: HW
LayerCount: 2
Fore
SplineSet
210.76 836.471 m 5
 151.983 785.417 113.679 728.072 92.8867 660 c 5
 36.417 660 l 5
 37.2236 663.531 37.9658 666.52 38.9121 670.054 c 4
 60.8232 751.827 113.885 821.751 191.981 871.766 c 5
 210.76 836.471 l 5
EndSplineSet
EndChar

StartChar: uni059D
Encoding: 1437 1437 107
Width: 0
VWidth: 1000
Flags: HW
LayerCount: 2
Fore
SplineSet
210.76 836.471 m 5
 151.983 785.417 113.679 728.072 92.8867 660 c 5
 36.417 660 l 5
 37.2236 663.531 37.9658 666.52 38.9121 670.054 c 4
 60.8232 751.827 113.885 821.751 191.981 871.766 c 5
 210.76 836.471 l 5
EndSplineSet
EndChar

StartChar: uni059E
Encoding: 1438 1438 108
Width: 0
VWidth: 1000
Flags: HW
LayerCount: 2
Fore
SplineSet
272.426 836.471 m 5
 213.649 785.417 175.345 728.072 154.553 660 c 5
 98.083 660 l 5
 98.8896 663.531 99.6318 666.52 100.578 670.054 c 4
 122.489 751.827 175.551 821.751 253.647 871.766 c 5
 272.426 836.471 l 5
149.094 836.471 m 1
 90.3174 785.417 52.0127 728.072 31.2207 660 c 1
 -25.25 660 l 1
 -24.4424 663.531 -23.7002 666.52 -22.7539 670.054 c 0
 -0.842773 751.827 52.2188 821.751 130.315 871.766 c 1
 149.094 836.471 l 1
EndSplineSet
EndChar

StartChar: uni059F
Encoding: 1439 1439 109
Width: 0
VWidth: 1000
Flags: HW
HStem: 695.294 35.2939<-137 -133 132 140> 815.294 35.2939<-137 -133 132 140>
VStem: -212.03 35.2939<770 774> -92.0303 35.2939<770 774> 56.7354 35.2939<770 774> 176.735 35.2949<770 774>
DStem2: -67.2041 733.997 -95.4395 705.763 0.707104 -0.707109<0 64.7176> 21.4404 688.235 49.6758 660 0.707104 0.707109<0.000162125 64.717>
LayerCount: 2
Fore
SplineSet
275.84 815.294 m 0
 252.46 815.294 228.402 796.32 222.139 772.941 c 0
 215.874 749.562 229.764 730.588 253.143 730.588 c 0
 276.521 730.588 300.579 749.562 306.844 772.941 c 0
 313.108 796.32 299.219 815.294 275.84 815.294 c 0
207.547 705.763 m 1
 149.522 660 l 1
 128.853 688.235 l 1
 186.876 733.997 l 1
 183.29 745.447 183.042 758.752 186.845 772.941 c 0
 198.329 815.803 242.435 850.588 285.297 850.588 c 0
 328.156 850.588 353.624 815.803 342.139 772.941 c 0
 330.654 730.08 286.546 695.294 243.686 695.294 c 0
 229.495 695.294 217.215 699.106 207.547 705.763 c 1
7.07422 815.294 m 0
 -16.3047 815.294 -40.3623 796.32 -46.627 772.941 c 0
 -52.8916 749.562 -39.002 730.588 -15.6221 730.588 c 0
 7.75586 730.588 31.8145 749.562 38.0791 772.941 c 0
 44.3428 796.32 30.4521 815.294 7.07422 815.294 c 0
16.6689 705.763 m 1
 3.43457 699.106 -10.8896 695.294 -25.0791 695.294 c 0
 -67.9404 695.294 -93.4053 730.08 -81.9209 772.941 c 0
 -70.4365 815.803 -26.3301 850.588 16.5312 850.588 c 0
 59.3926 850.588 84.8574 815.803 73.373 772.941 c 0
 69.5703 758.752 62.1924 745.447 52.4697 733.997 c 1
 85.9707 688.235 l 1
 50.1699 660 l 1
 16.6689 705.763 l 1
EndSplineSet
EndChar

StartChar: uni05A0
Encoding: 1440 1440 110
Width: 0
VWidth: 1000
Flags: HW
HStem: 695.294 35.2939<15 19> 815.294 35.2939<15 19>
VStem: -60 35.2939<770 774> 60 35.2949<770 774>
DStem2: -95.2949 688.235 -67.0596 660 0.707105 0.707109<9.15527e-05 64.7178>
LayerCount: 2
Fore
SplineSet
159.104 815.294 m 0
 135.725 815.294 111.667 796.32 105.402 772.941 c 0
 99.1387 749.562 113.028 730.588 136.407 730.588 c 0
 159.786 730.588 183.845 749.562 190.109 772.941 c 0
 196.373 796.32 182.482 815.294 159.104 815.294 c 0
90.8115 705.763 m 1
 32.7871 660 l 1
 12.1172 688.235 l 1
 70.1416 733.997 l 1
 66.5547 745.447 66.3066 758.752 70.1094 772.941 c 0
 81.5938 815.803 125.699 850.588 168.561 850.588 c 0
 211.422 850.588 236.889 815.803 225.404 772.941 c 0
 213.919 730.08 169.812 695.294 126.95 695.294 c 0
 112.761 695.294 100.479 699.106 90.8115 705.763 c 1
EndSplineSet
EndChar

StartChar: uni05A1
Encoding: 1441 1441 111
Width: 0
VWidth: 1000
Flags: HW
HStem: 707.059 56.9414<-31.669 -20.3563>
VStem: -88.2334 56.4688<660 707 764 821> 31.7646 56.4707<819 827>
LayerCount: 2
Fore
SplineSet
80.6914 707.059 m 9
 68.084 660 l 1
 11.6133 660 l 1
 56.2959 826.765 l 1
 112.767 826.765 l 1
 95.9775 764 l 17
 131.046 764 166.978 791.99 176.374 827.059 c 1
 232.846 827.059 l 1
 215.096 760.818 146.932 707.059 80.6914 707.059 c 9
EndSplineSet
EndChar

StartChar: uni05A3
Encoding: 1443 1443 112
Width: 0
VWidth: 1070
Flags: HW
HStem: -260 60.001<-117 56>
VStem: 56.998 60.001<-200 -67>
LayerCount: 2
Fore
SplineSet
-263.667 -260 m 257
 -247.59 -199.999 l 257
 -73.5918 -199.999 l 261
 -36.0811 -60.0068 l 261
 23.9209 -60.0068 l 261
 -29.668 -260 l 5
 -263.667 -260 l 257
EndSplineSet
EndChar

StartChar: uni05A4
Encoding: 1444 1444 113
Width: 0
VWidth: 1000
Flags: HW
DStem2: -127.059 -158.823 -14.1172 -158.823 0.894428 0.447212<101.018 220.976> -14.1172 -158.823 -127.059 -158.823 0.894426 -0.447216<0 119.958>
LayerCount: 2
Fore
SplineSet
-22.4893 -60 m 5
 26.416 -88.2354 l 5
 -133.674 -158.823 l 5
 -11.4121 -229.412 l 5
 -75.4482 -257.647 l 5
 -246.615 -158.823 l 5
 -22.4893 -60 l 5
EndSplineSet
EndChar

StartChar: uni05A5
Encoding: 1445 1445 114
Width: 0
VWidth: 1000
Flags: HW
LayerCount: 2
Fore
SplineSet
-203.99 -236.471 m 1
 -145.214 -185.417 -106.909 -128.072 -86.1172 -60 c 1
 -29.6475 -60 l 1
 -30.4541 -63.5312 -31.1963 -66.5195 -32.1426 -70.0537 c 0
 -54.0537 -151.827 -107.115 -221.751 -185.212 -271.766 c 1
 -203.99 -236.471 l 1
EndSplineSet
EndChar

StartChar: uni05A6
Encoding: 1446 1446 115
Width: 0
VWidth: 1000
Flags: HW
LayerCount: 2
Fore
SplineSet
-265.656 -236.471 m 5
 -206.88 -185.417 -168.575 -128.072 -147.783 -60 c 5
 -91.3135 -60 l 5
 -92.1201 -63.5312 -92.8623 -66.5195 -93.8086 -70.0537 c 4
 -115.72 -151.827 -168.781 -221.751 -246.878 -271.766 c 5
 -265.656 -236.471 l 5
-142.324 -236.471 m 5
 -83.5479 -185.417 -45.2432 -128.072 -24.4512 -60 c 5
 32.0195 -60 l 5
 31.2119 -63.5312 30.4697 -66.5195 29.5234 -70.0537 c 4
 7.6123 -151.827 -45.4492 -221.751 -123.546 -271.766 c 5
 -142.324 -236.471 l 5
EndSplineSet
EndChar

StartChar: uni05A7
Encoding: 1447 1447 116
Width: 0
VWidth: 1000
Flags: HW
HStem: -257.647 56.4707<-79 7> -116.471 56.4707<5 77>
DStem2: -7.05957 -116.471 -91.7656 -116.471 0.759255 -0.650793<0 65.8446>
LayerCount: 2
Fore
SplineSet
-15.4307 -60 m 5
 -2.3252 -116.471 l 5
 -115.268 -116.471 l 5
 -39.1416 -201.177 l 5
 -82.5078 -257.647 l 5
 -223.684 -257.647 l 5
 -236.788 -201.177 l 5
 -123.848 -201.177 l 5
 -199.974 -116.471 l 5
 -156.607 -60 l 5
 -15.4307 -60 l 5
EndSplineSet
EndChar

StartChar: uni05A8
Encoding: 1448 1448 117
Width: 0
VWidth: 1000
Flags: HW
LayerCount: 2
Fore
SplineSet
83.5039 836.471 m 1
 121.196 871.766 l 1
 172.49 821.751 188.079 751.827 166.168 670.054 c 0
 165.222 666.52 164.362 663.531 163.276 660 c 1
 106.807 660 l 1
 122.493 728.072 114.921 785.417 83.5039 836.471 c 1
EndSplineSet
EndChar

StartChar: uni05A9
Encoding: 1449 1449 118
Width: 0
VWidth: 1000
Flags: HW
HStem: 695.294 35.2939<-20 -16> 815.294 35.2939<-20 -16>
VStem: -95.2949 35.2939<770 774> 24.7051 35.2939<770 774>
DStem2: 49.5312 733.997 21.2969 705.763 0.70712 -0.707094<0 64.7175>
LayerCount: 2
Fore
SplineSet
123.81 815.294 m 0
 100.431 815.294 76.3721 796.32 70.1074 772.941 c 0
 63.8438 749.562 77.7344 730.588 101.113 730.588 c 0
 124.492 730.588 148.55 749.562 154.814 772.941 c 0
 161.078 796.32 147.188 815.294 123.81 815.294 c 0
133.405 705.763 m 1
 120.172 699.106 105.846 695.294 91.6562 695.294 c 0
 48.7949 695.294 23.3291 730.08 34.8145 772.941 c 0
 46.2988 815.803 90.4053 850.588 133.267 850.588 c 0
 176.129 850.588 201.593 815.803 190.107 772.941 c 0
 186.306 758.752 178.929 745.447 169.205 733.997 c 1
 202.707 688.235 l 1
 166.906 660 l 1
 133.405 705.763 l 1
EndSplineSet
EndChar

StartChar: uni05AA
Encoding: 1450 1450 119
Width: 0
VWidth: 1000
Flags: HW
HStem: -180 56.471<-50.1364 50.1364>
VStem: -120 56.4707<-109.37 -60> 63.5293 56.4707<-109.37 -60>
LayerCount: 2
Back
SplineSet
-120 -60 m 4
 -120 6.24 -66.24 60 0 60 c 0
 66.24 60 120 6.24 120 -60 c 4
 120 -126.24 66.24 -180 0 -180 c 4
 -66.24 -180 -120 -126.24 -120 -60 c 4
EndSplineSet
Fore
SplineSet
-213.077 -60 m 1
 -156.606 -60 l 1
 -166.003 -95.0684 -145.168 -123.529 -110.1 -123.529 c 0
 -75.0312 -123.529 -38.9443 -95.0684 -29.5479 -60 c 1
 26.9229 -60 l 0
 9.17383 -126.24 -58.9912 -180 -125.23 -180 c 0
 -191.471 -180 -230.826 -126.24 -213.077 -60 c 1
EndSplineSet
EndChar

StartChar: uni05AB
Encoding: 1451 1451 120
Width: 0
VWidth: 1000
Flags: HW
DStem2: -127.059 758.824 -14.1172 758.824 0.89443 0.447208<101.019 220.975> -14.1172 758.824 -127.059 758.824 0.894426 -0.447215<0 119.958>
LayerCount: 2
Fore
SplineSet
223.394 857.646 m 5
 272.299 829.412 l 5
 112.209 758.824 l 5
 234.471 688.235 l 5
 170.435 660 l 5
 -0.732422 758.824 l 5
 223.394 857.646 l 5
EndSplineSet
EndChar

StartChar: uni05AC
Encoding: 1452 1452 121
Width: 0
VWidth: 1070
Flags: HW
HStem: 660 60.001<-117 56>
VStem: 56.998 60.001<720 853>
LayerCount: 2
Fore
SplineSet
-17.1533 660 m 261
 -1.07617 720.001 l 261
 172.922 720.001 l 261
 210.433 859.993 l 261
 270.435 859.993 l 261
 216.846 660 l 5
 -17.1533 660 l 261
EndSplineSet
EndChar

StartChar: uni05AD
Encoding: 1453 1453 122
Width: 0
VWidth: 1000
Flags: HW
LayerCount: 2
Fore
SplineSet
-76.7344 -236.471 m 1
 -114.427 -271.766 l 1
 -165.721 -221.751 -181.31 -151.827 -159.398 -70.0537 c 0
 -158.452 -66.5195 -157.593 -63.5312 -156.507 -60 c 1
 -100.037 -60 l 1
 -115.724 -128.072 -108.151 -185.417 -76.7344 -236.471 c 1
EndSplineSet
EndChar

StartChar: uni05AE
Encoding: 1454 1454 123
Width: 0
VWidth: 1000
Flags: HW
HStem: 660 46.8711<61 69> 759.601 46.8701<-70 -66>
VStem: -161.117 46.8701<704 714> 114.246 46.8711<751 762>
LayerCount: 2
Fore
SplineSet
236.742 800 m 1
 286.274 800 l 1
 287.212 795 292.472 777.591 286.082 753.742 c 0
 272.216 701.996 218.968 660 167.224 660 c 0
 125.14 660 96.9463 687.778 95.3447 725.985 c 0
 94.5986 745.409 80.4268 759.601 59.1572 759.601 c 0
 33.2852 759.601 6.66113 738.604 -0.271484 712.729 c 0
 -4.42578 697.227 0.749023 675 5.80078 664 c 1
 -46.54 664 l 1
 -49.6582 677 -53.1768 690.206 -47.1416 712.729 c 0
 -33.2764 764.475 19.9727 806.471 71.7158 806.471 c 0
 114.699 806.471 143.459 777.908 143.929 738.436 c 0
 145.355 720.071 159.268 706.871 179.782 706.871 c 0
 205.653 706.871 232.278 727.869 239.211 753.742 c 0
 243.236 768.766 241.941 787.679 236.742 800 c 1
EndSplineSet
EndChar

StartChar: uni05AF
Encoding: 1455 1455 124
Width: 0
VWidth: 1000
Flags: HW
HStem: 660 49.4121<-4 2> 808.235 49.4111<-4 2>
VStem: -98.8232 49.4111<755 761> 49.4121 49.4111<755 761>
LayerCount: 2
Back
SplineSet
98.8242 801.177 m 4
 75.4453 801.177 56.4707 782.203 56.4707 758.824 c 4
 56.4707 735.445 75.4453 716.471 98.8242 716.471 c 4
 122.203 716.471 141.177 735.445 141.177 758.824 c 4
 141.177 782.203 122.203 801.177 98.8242 801.177 c 4
98.8242 857.647 m 4
 153.375 857.647 197.647 813.374 197.647 758.824 c 4
 197.647 704.273 153.375 660 98.8242 660 c 4
 44.2734 660 0 704.273 0 758.824 c 4
 0 813.374 44.2734 857.647 98.8242 857.647 c 4
EndSplineSet
Fore
SplineSet
139.566 808.235 m 0
 112.29 808.235 84.2227 786.099 76.9141 758.823 c 4
 69.6055 731.548 85.8105 709.412 113.086 709.412 c 4
 140.361 709.412 168.43 731.548 175.738 758.823 c 4
 183.047 786.099 166.842 808.235 139.566 808.235 c 0
152.806 857.646 m 0
 207.356 857.646 239.766 813.374 225.149 758.823 c 4
 210.532 704.273 154.397 660 99.8467 660 c 4
 45.2959 660 12.8857 704.273 27.5029 758.823 c 4
 42.1201 813.374 98.2549 857.646 152.806 857.646 c 0
EndSplineSet
EndChar

StartChar: afii57799
Encoding: 1456 1456 125
Width: 0
VWidth: 1000
Flags: HW
AnchorPoint: "DiaToBase1" -77 0 mark 0
LayerCount: 2
Fore
SplineSet
-125.231 -179.998 m 0
 -103.153 -179.998 -90.0312 -197.918 -95.9463 -219.996 c 0
 -101.863 -242.075 -124.589 -259.998 -146.667 -259.998 c 4
 -168.743 -259.998 -181.865 -242.075 -175.949 -219.996 c 0
 -170.033 -197.918 -147.308 -179.998 -125.231 -179.998 c 0
-93.0781 -60 m 0
 -71 -60 -57.8779 -77.9199 -63.7939 -100 c 0
 -69.71 -122.078 -92.4355 -140 -114.514 -140 c 0
 -136.59 -140 -149.712 -122.078 -143.796 -100 c 0
 -137.88 -77.9199 -115.154 -60 -93.0781 -60 c 0
EndSplineSet
EndChar

StartChar: afii57801
Encoding: 1457 1457 126
Width: 0
VWidth: 1070
Flags: HW
HStem: -259.998 79.998<-75 -68 121.028 135>
VStem: -170 80.001<-108.971 -97> -109.999 80.001<-229 -211> -50 80.002<-108.971 -97> 90 80<-229 -211 -108.971 -97>
AnchorPoint: "DiaToBase3" -77 0 mark 0
LayerCount: 2
Fore
SplineSet
-190.228 -180 m 0
 -168.149 -180 -155.03 -197.919 -160.946 -219.998 c 0
 -166.863 -242.079 -189.585 -259.998 -211.663 -259.998 c 0
 -233.746 -259.998 -246.864 -242.079 -240.947 -219.998 c 0
 -235.031 -197.919 -212.311 -180 -190.228 -180 c 0
-218.075 -60 m 0
 -195.994 -60 -182.878 -77.9199 -188.794 -100 c 0
 -194.71 -122.078 -217.43 -140 -239.511 -140 c 0
 -261.593 -140 -274.711 -122.078 -268.795 -100 c 0
 -262.879 -77.9199 -240.157 -60 -218.075 -60 c 0
-98.0781 -60 m 0
 -75.9961 -60 -62.877 -77.9199 -68.793 -100 c 0
 -74.709 -122.078 -97.4316 -140 -119.514 -140 c 0
 -141.593 -140 -154.711 -122.078 -148.795 -100 c 0
 -142.879 -77.9199 -120.157 -60 -98.0781 -60 c 0
-0.229492 -180 m 4
 21.8496 -180 34.9678 -197.919 29.0518 -219.998 c 4
 23.1348 -242.079 0.414062 -259.998 -21.665 -259.998 c 4
 -43.7432 -259.998 -56.8652 -242.079 -50.9482 -219.998 c 4
 -45.0322 -197.919 -22.3076 -180 -0.229492 -180 c 4
31.9238 -60 m 4
 54.0029 -60 67.1211 -77.9199 61.2051 -100 c 4
 55.2891 -122.078 32.5674 -140 10.4883 -140 c 4
 -11.5898 -140 -24.7109 -122.078 -18.7949 -100 c 4
 -12.8789 -77.9199 9.8457 -60 31.9238 -60 c 4
EndSplineSet
EndChar

StartChar: afii57800
Encoding: 1458 1458 127
Width: 0
VWidth: 1070
Flags: HW
HStem: -259.998 79.998<87.4297 162.572> -140 80<87.4297 162.572> -130 60<-165 35.002>
VStem: 85.001 79.999<-257.57 -182.428 -137.571 -62.4285>
AnchorPoint: "DiaToBase3" -77 0 mark 0
LayerCount: 2
Fore
SplineSet
-260.757 -70 m 1xb0
 -60.7549 -70 l 1
 -76.8311 -130 l 1
 -276.833 -130 l 1
 -260.757 -70 l 1xb0
31.9238 -60 m 0xd0
 54.0049 -60 67.1211 -77.9199 61.2051 -100 c 0
 55.2891 -122.078 32.5693 -140 10.4883 -140 c 0
 -11.5898 -140 -24.71 -122.078 -18.7939 -100 c 0
 -12.8779 -77.9199 9.8457 -60 31.9238 -60 c 0xd0
-0.229492 -180 m 0
 21.8516 -180 34.9678 -197.919 29.0518 -219.998 c 0
 23.1348 -242.079 0.416016 -259.998 -21.665 -259.998 c 0
 -43.7432 -259.998 -56.8643 -242.079 -50.9473 -219.998 c 0
 -45.0312 -197.919 -22.3076 -180 -0.229492 -180 c 0
EndSplineSet
EndChar

StartChar: afii57802
Encoding: 1459 1459 128
Width: 0
VWidth: 1070
Flags: HW
HStem: -259.998 79.998<121.028 135> -120 60<-170 -100 -40 23>
VStem: -99.998 59.999<-225 -120> 90.001 79.999<-229 -211 -108.971 -97>
AnchorPoint: "DiaToBase3" -77 0 mark 0
LayerCount: 2
Fore
SplineSet
-260.757 -70 m 261
 -60.7549 -70 l 261
 -76.8311 -130 l 261
 -146.832 -130 l 261
 -178.718 -248.999 l 257
 -238.717 -248.999 l 257
 -206.831 -130 l 261
 -276.833 -130 l 261
 -260.757 -70 l 261
31.9238 -60 m 0
 54.0049 -60 67.1211 -77.9199 61.2051 -100 c 0
 55.2891 -122.078 32.5693 -140 10.4883 -140 c 0
 -11.5898 -140 -24.71 -122.078 -18.7939 -100 c 0
 -12.8779 -77.9199 9.8457 -60 31.9238 -60 c 0
-0.229492 -180 m 0
 21.8516 -180 34.9678 -197.919 29.0518 -219.998 c 0
 23.1348 -242.079 0.416016 -259.998 -21.665 -259.998 c 0
 -43.7432 -259.998 -56.8643 -242.079 -50.9473 -219.998 c 0
 -45.0312 -197.919 -22.3076 -180 -0.229492 -180 c 0
EndSplineSet
EndChar

StartChar: afii57793
Encoding: 1460 1460 129
Width: 0
VWidth: 1000
Flags: HW
AnchorPoint: "DiaToBase1" -77 0 mark 0
LayerCount: 2
Fore
SplineSet
-93.0781 -60 m 4
 -71 -60 -57.8779 -77.9199 -63.7939 -100 c 4
 -69.71 -122.078 -92.4365 -140.001 -114.514 -140.001 c 4
 -136.59 -140.001 -149.712 -122.078 -143.796 -100 c 4
 -137.88 -77.9199 -115.154 -60 -93.0781 -60 c 4
EndSplineSet
EndChar

StartChar: afii57794
Encoding: 1461 1461 130
Width: 0
VWidth: 1070
Flags: HW
VStem: -100 80<-103 -92>
AnchorPoint: "DiaToBase2" -77 0 mark 0
LayerCount: 2
Fore
SplineSet
-153.076 -60 m 4
 -130.996 -60 -117.879 -77.9199 -123.795 -100.001 c 260
 -129.711 -122.079 -152.433 -140.003 -174.513 -140.003 c 4
 -196.595 -140.003 -209.711 -122.079 -203.795 -100.001 c 4
 -197.879 -77.9199 -175.158 -60 -153.076 -60 c 4
-33.0791 -60 m 4
 -10.9971 -60 2.12109 -77.9199 -3.79492 -100.001 c 4
 -9.71094 -122.079 -32.4336 -140.003 -54.5156 -140.003 c 4
 -76.5947 -140.003 -89.7119 -122.079 -83.7959 -100.001 c 4
 -77.8799 -77.9199 -55.1582 -60 -33.0791 -60 c 4
EndSplineSet
EndChar

StartChar: afii57795
Encoding: 1462 1462 131
Width: 0
VWidth: 1070
Flags: HW
HStem: -259.998 79.998<-5 1>
AnchorPoint: "DiaToBase2" -77 0 mark 0
LayerCount: 2
Fore
SplineSet
-125.231 -180 m 4
 -103.148 -180 -90.0322 -197.919 -95.9482 -219.998 c 4
 -101.865 -242.079 -124.584 -259.998 -146.667 -259.998 c 4
 -168.747 -259.998 -181.866 -242.079 -175.949 -219.998 c 4
 -170.033 -197.919 -147.312 -180 -125.231 -180 c 4
-153.075 -60 m 4
 -130.996 -60 -117.878 -77.9199 -123.794 -100 c 4
 -129.71 -122.078 -152.432 -140 -174.511 -140 c 4
 -196.593 -140 -209.711 -122.078 -203.795 -100 c 4
 -197.879 -77.9199 -175.157 -60 -153.075 -60 c 4
-33.0781 -60 m 4
 -10.9961 -60 2.12109 -77.9199 -3.79492 -100 c 4
 -9.71094 -122.078 -32.4316 -140 -54.5137 -140 c 4
 -76.5938 -140 -89.7119 -122.078 -83.7959 -100 c 4
 -77.8799 -77.9199 -55.1582 -60 -33.0781 -60 c 4
EndSplineSet
EndChar

StartChar: afii57798
Encoding: 1463 1463 132
Width: 0
VWidth: 1070
Flags: HW
HStem: -130.002 60.002<-100 100>
VStem: -100 200<-130.002 -70>
AnchorPoint: "DiaToBase2" -77 0 mark 0
LayerCount: 2
Fore
SplineSet
-195.757 -70 m 1
 4.24316 -70 l 1
 -11.834 -130.002 l 1
 -211.834 -130.002 l 1
 -195.757 -70 l 1
EndSplineSet
EndChar

StartChar: afii57797
Encoding: 1464 1464 133
Width: 0
VWidth: 1070
Flags: HW
HStem: -130.001 60.001<-100 -30.001 30.001 100>
VStem: -30.001 60.002<-235 -130.001>
AnchorPoint: "DiaToBase2" -77 0 mark 0
LayerCount: 2
Fore
SplineSet
-195.757 -70 m 261
 4.24316 -70 l 261
 -11.834 -130.001 l 261
 -81.833 -130.001 l 261
 -109.967 -235 l 261
 -169.969 -235 l 261
 -141.835 -130.001 l 261
 -211.834 -130.001 l 261
 -195.757 -70 l 261
EndSplineSet
EndChar

StartChar: afii57806
Encoding: 1465 1465 134
Width: 0
VWidth: 1000
Flags: HW
AnchorPoint: "DiaToBaseO" -77 0 mark 0
LayerCount: 2
Fore
SplineSet
121.281 740 m 4
 143.361 740 156.481 722.079 150.565 700 c 0
 144.649 677.922 121.926 660 99.8457 660 c 0
 77.7666 660 64.6475 677.922 70.5635 700 c 0
 76.4795 722.079 99.2021 740 121.281 740 c 4
EndSplineSet
EndChar

StartChar: afii57796
Encoding: 1467 1467 135
Width: 0
VWidth: 1070
Flags: HW
HStem: -259.999 79.999<72.4322 147.572> -199.999 80.003<-37.5703 37.5723> -140 80<-147.571 -72.4274>
VStem: -150 80.001<-137.571 -62.4284> -39.999 80<-197.571 -122.425> 70.0039 79.9961<-257.57 -182.428>
AnchorPoint: "DiaToBaseU" -77 0 mark 0
LayerCount: 2
Back
SplineSet
120.002 -180 m 0
 142.081 -180 160 -197.919 160 -219.998 c 0
 160 -242.078 142.081 -259.999 120.002 -259.999 c 0
 97.9229 -259.999 80.0039 -242.078 80.0039 -219.998 c 0
 80.0039 -197.919 97.9229 -180 120.002 -180 c 0
0.000976562 -119.996 m 0
 22.0791 -119.996 40.001 -137.919 40.001 -159.998 c 0
 40.001 -182.08 22.0791 -199.999 0.000976562 -199.999 c 0
 -22.0771 -199.999 -39.999 -182.08 -39.999 -159.998 c 0
 -39.999 -137.919 -22.0771 -119.996 0.000976562 -119.996 c 0
-119.998 -60 m 0
 -97.9189 -60 -79.999 -77.9199 -79.999 -99.999 c 0
 -79.999 -122.078 -97.9189 -140 -119.998 -140 c 0
 -142.078 -140 -160 -122.078 -160 -99.999 c 0
 -160 -77.9199 -142.078 -60 -119.998 -60 c 0
EndSplineSet
Fore
SplineSet
-15.2285 -180 m 0x9c
 6.85059 -180 19.9678 -197.919 14.0518 -219.998 c 0
 8.13574 -242.078 -14.5859 -259.999 -36.6641 -259.999 c 0
 -58.7432 -259.999 -71.8604 -242.078 -65.9443 -219.998 c 0
 -60.0283 -197.919 -37.3076 -180 -15.2285 -180 c 0x9c
-109.152 -119.996 m 0x5c
 -87.0742 -119.996 -73.9541 -137.919 -79.8701 -159.998 c 0
 -85.7871 -182.08 -108.511 -199.999 -130.589 -199.999 c 0
 -152.667 -199.999 -165.787 -182.08 -159.87 -159.998 c 0
 -153.954 -137.919 -131.229 -119.996 -109.152 -119.996 c 0x5c
-203.075 -60 m 0x3c
 -180.996 -60 -167.878 -77.9199 -173.794 -99.999 c 0
 -179.71 -122.078 -202.432 -140 -224.511 -140 c 0
 -246.591 -140 -259.711 -122.078 -253.795 -99.999 c 0
 -247.879 -77.9199 -225.155 -60 -203.075 -60 c 0x3c
EndSplineSet
EndChar

StartChar: afii57807
Encoding: 1468 1468 136
Width: 0
VWidth: 1000
Flags: HW
AnchorPoint: "DiaToBaseD" -77 0 mark 0
LayerCount: 2
Fore
SplineSet
13.9561 339.456 m 0
 36.0342 339.456 49.1562 321.534 43.2402 299.456 c 0
 37.3242 277.378 14.5977 259.456 -7.47949 259.456 c 0
 -29.5557 259.456 -42.6777 277.378 -36.7617 299.456 c 0
 -30.8467 321.534 -8.12012 339.456 13.9561 339.456 c 0
EndSplineSet
EndChar

StartChar: afii57839
Encoding: 1469 1469 137
Width: 0
VWidth: 1070
Flags: HW
VStem: -30.001 60.002<-264 -60>
LayerCount: 2
Fore
SplineSet
-123.078 -60 m 5
 -63.0938 -60.0664 l 5
 -117.737 -264 l 5
 -177.722 -263.933 l 5
 -123.078 -60 l 5
EndSplineSet
EndChar

StartChar: afii57645
Encoding: 1470 1470 138
Width: 432
VWidth: 1000
Flags: HW
HStem: 453 147.001<64.4568 373.98>
VStem: 63.2178 312.026
LayerCount: 2
Back
SplineSet
349.46 580 m 2
 330.825 473 l 2
 329.229 463.84 326.402 458 311.812 458 c 2
 55.8115 458 l 2
 40.3115 458 38.4521 462.817 40.8828 478 c 2
 58.0098 585 l 2
 59.5615 594.7 62.2949 600 76.8115 600 c 2
 334.812 600 l 2
 350.312 600 352.023 594.725 349.46 580 c 2
EndSplineSet
Fore
SplineSet
430.343 493 m 2
 420.991 458.052 401.625 453 387.625 453 c 2
 139.599 453 l 2
 125.599 453 108.966 458.052 118.316 493 c 2
 136.243 560.001 l 6
 145.595 594.948 164.961 600.001 178.961 600.001 c 6
 426.988 600.001 l 6
 440.988 600.001 457.621 594.948 448.271 560.001 c 6
 430.343 493 l 2
EndSplineSet
PairPos2: "'kern' Horizontal Kerning in Hebrew lookup 0 subtable" uniE804 dx=10 dy=0 dh=10 dv=0 dx=0 dy=0 dh=0 dv=0
PairPos2: "'kern' Horizontal Kerning in Hebrew lookup 0 subtable" uniE803 dx=15 dy=0 dh=15 dv=0 dx=0 dy=0 dh=0 dv=0
PairPos2: "'kern' Horizontal Kerning in Hebrew lookup 0 subtable" uniE802 dx=15 dy=0 dh=15 dv=0 dx=0 dy=0 dh=0 dv=0
PairPos2: "'kern' Horizontal Kerning in Hebrew lookup 0 subtable" uniFB1D dx=10 dy=0 dh=10 dv=0 dx=0 dy=0 dh=0 dv=0
PairPos2: "'kern' Horizontal Kerning in Hebrew lookup 0 subtable" uniFB2D dx=15 dy=0 dh=15 dv=0 dx=0 dy=0 dh=0 dv=0
PairPos2: "'kern' Horizontal Kerning in Hebrew lookup 0 subtable" uniFB2C dx=15 dy=0 dh=15 dv=0 dx=0 dy=0 dh=0 dv=0
PairPos2: "'kern' Horizontal Kerning in Hebrew lookup 0 subtable" uniFB45 dx=15 dy=0 dh=15 dv=0 dx=0 dy=0 dh=0 dv=0
PairPos2: "'kern' Horizontal Kerning in Hebrew lookup 0 subtable" uniFB42 dx=20 dy=0 dh=20 dv=0 dx=0 dy=0 dh=0 dv=0
PairPos2: "'kern' Horizontal Kerning in Hebrew lookup 0 subtable" uniFB3F dx=15 dy=0 dh=15 dv=0 dx=0 dy=0 dh=0 dv=0
PairPos2: "'kern' Horizontal Kerning in Hebrew lookup 0 subtable" afii57718 dx=10 dy=0 dh=10 dv=0 dx=0 dy=0 dh=0 dv=0
PairPos2: "'kern' Horizontal Kerning in Hebrew lookup 0 subtable" afii57705 dx=10 dy=0 dh=10 dv=0 dx=0 dy=0 dh=0 dv=0
PairPos2: "'kern' Horizontal Kerning in Hebrew lookup 0 subtable" afii57717 dx=10 dy=0 dh=10 dv=0 dx=0 dy=0 dh=0 dv=0
PairPos2: "'kern' Horizontal Kerning in Hebrew lookup 0 subtable" uniFB49 dx=15 dy=0 dh=15 dv=0 dx=0 dy=0 dh=0 dv=0
PairPos2: "'kern' Horizontal Kerning in Hebrew lookup 0 subtable" afii57695 dx=15 dy=0 dh=15 dv=0 dx=0 dy=0 dh=0 dv=0
PairPos2: "'kern' Horizontal Kerning in Hebrew lookup 0 subtable" afii57694 dx=15 dy=0 dh=15 dv=0 dx=0 dy=0 dh=0 dv=0
PairPos2: "'kern' Horizontal Kerning in Hebrew lookup 0 subtable" afii57689 dx=15 dy=0 dh=15 dv=0 dx=0 dy=0 dh=0 dv=0
PairPos2: "'kern' Horizontal Kerning in Hebrew lookup 0 subtable" uniFB48 dx=25 dy=0 dh=25 dv=0 dx=0 dy=0 dh=0 dv=0
PairPos2: "'kern' Horizontal Kerning in Hebrew lookup 0 subtable" afii57688 dx=25 dy=0 dh=25 dv=0 dx=0 dy=0 dh=0 dv=0
PairPos2: "'kern' Horizontal Kerning in Hebrew lookup 0 subtable" uniFB47 dx=20 dy=0 dh=20 dv=0 dx=0 dy=0 dh=0 dv=0
PairPos2: "'kern' Horizontal Kerning in Hebrew lookup 0 subtable" afii57687 dx=20 dy=0 dh=20 dv=0 dx=0 dy=0 dh=0 dv=0
PairPos2: "'kern' Horizontal Kerning in Hebrew lookup 0 subtable" afii57685 dx=15 dy=0 dh=15 dv=0 dx=0 dy=0 dh=0 dv=0
PairPos2: "'kern' Horizontal Kerning in Hebrew lookup 0 subtable" uniFB43 dx=-10 dy=0 dh=-10 dv=0 dx=0 dy=0 dh=0 dv=0
PairPos2: "'kern' Horizontal Kerning in Hebrew lookup 0 subtable" afii57683 dx=-10 dy=0 dh=-10 dv=0 dx=0 dy=0 dh=0 dv=0
PairPos2: "'kern' Horizontal Kerning in Hebrew lookup 0 subtable" afii57682 dx=20 dy=0 dh=20 dv=0 dx=0 dy=0 dh=0 dv=0
PairPos2: "'kern' Horizontal Kerning in Hebrew lookup 0 subtable" uniFB41 dx=-10 dy=0 dh=-10 dv=0 dx=0 dy=0 dh=0 dv=0
PairPos2: "'kern' Horizontal Kerning in Hebrew lookup 0 subtable" afii57681 dx=-10 dy=0 dh=-10 dv=0 dx=0 dy=0 dh=0 dv=0
PairPos2: "'kern' Horizontal Kerning in Hebrew lookup 0 subtable" uniFB40 dx=-20 dy=0 dh=-20 dv=0 dx=0 dy=0 dh=0 dv=0
PairPos2: "'kern' Horizontal Kerning in Hebrew lookup 0 subtable" afii57680 dx=-20 dy=0 dh=-20 dv=0 dx=0 dy=0 dh=0 dv=0
PairPos2: "'kern' Horizontal Kerning in Hebrew lookup 0 subtable" afii57679 dx=15 dy=0 dh=15 dv=0 dx=0 dy=0 dh=0 dv=0
PairPos2: "'kern' Horizontal Kerning in Hebrew lookup 0 subtable" uniFB3E dx=-10 dy=0 dh=-10 dv=0 dx=0 dy=0 dh=0 dv=0
PairPos2: "'kern' Horizontal Kerning in Hebrew lookup 0 subtable" afii57678 dx=-10 dy=0 dh=-10 dv=0 dx=0 dy=0 dh=0 dv=0
PairPos2: "'kern' Horizontal Kerning in Hebrew lookup 0 subtable" uniFB3C dx=15 dy=0 dh=15 dv=0 dx=0 dy=0 dh=0 dv=0
PairPos2: "'kern' Horizontal Kerning in Hebrew lookup 0 subtable" uniFB25 dx=15 dy=0 dh=15 dv=0 dx=0 dy=0 dh=0 dv=0
PairPos2: "'kern' Horizontal Kerning in Hebrew lookup 0 subtable" afii57676 dx=15 dy=0 dh=15 dv=0 dx=0 dy=0 dh=0 dv=0
PairPos2: "'kern' Horizontal Kerning in Hebrew lookup 0 subtable" uniFB3A dx=15 dy=0 dh=15 dv=0 dx=0 dy=0 dh=0 dv=0
PairPos2: "'kern' Horizontal Kerning in Hebrew lookup 0 subtable" afii57674 dx=15 dy=0 dh=15 dv=0 dx=0 dy=0 dh=0 dv=0
PairPos2: "'kern' Horizontal Kerning in Hebrew lookup 0 subtable" uniFB39 dx=10 dy=0 dh=10 dv=0 dx=0 dy=0 dh=0 dv=0
PairPos2: "'kern' Horizontal Kerning in Hebrew lookup 0 subtable" afii57673 dx=10 dy=0 dh=10 dv=0 dx=0 dy=0 dh=0 dv=0
PairPos2: "'kern' Horizontal Kerning in Hebrew lookup 0 subtable" uniFB38 dx=10 dy=0 dh=10 dv=0 dx=0 dy=0 dh=0 dv=0
PairPos2: "'kern' Horizontal Kerning in Hebrew lookup 0 subtable" afii57672 dx=10 dy=0 dh=10 dv=0 dx=0 dy=0 dh=0 dv=0
PairPos2: "'kern' Horizontal Kerning in Hebrew lookup 0 subtable" uniFB36 dx=15 dy=0 dh=15 dv=0 dx=0 dy=0 dh=0 dv=0
PairPos2: "'kern' Horizontal Kerning in Hebrew lookup 0 subtable" afii57670 dx=15 dy=0 dh=15 dv=0 dx=0 dy=0 dh=0 dv=0
PairPos2: "'kern' Horizontal Kerning in Hebrew lookup 0 subtable" uniFB33 dx=25 dy=0 dh=25 dv=0 dx=0 dy=0 dh=0 dv=0
PairPos2: "'kern' Horizontal Kerning in Hebrew lookup 0 subtable" uniFB22 dx=25 dy=0 dh=25 dv=0 dx=0 dy=0 dh=0 dv=0
PairPos2: "'kern' Horizontal Kerning in Hebrew lookup 0 subtable" afii57667 dx=25 dy=0 dh=25 dv=0 dx=0 dy=0 dh=0 dv=0
PairPos2: "'kern' Horizontal Kerning in Hebrew lookup 0 subtable" uniFB32 dx=-30 dy=0 dh=-30 dv=0 dx=0 dy=0 dh=0 dv=0
PairPos2: "'kern' Horizontal Kerning in Hebrew lookup 0 subtable" afii57666 dx=-30 dy=0 dh=-30 dv=0 dx=0 dy=0 dh=0 dv=0
PairPos2: "'kern' Horizontal Kerning in Hebrew lookup 0 subtable" uniFB4C dx=-15 dy=0 dh=-15 dv=0 dx=0 dy=0 dh=0 dv=0
PairPos2: "'kern' Horizontal Kerning in Hebrew lookup 0 subtable" uniFB31 dx=-15 dy=0 dh=-15 dv=0 dx=0 dy=0 dh=0 dv=0
PairPos2: "'kern' Horizontal Kerning in Hebrew lookup 0 subtable" afii57665 dx=-15 dy=0 dh=-15 dv=0 dx=0 dy=0 dh=0 dv=0
PairPos2: "'kern' Horizontal Kerning in Hebrew lookup 0 subtable" uniFB30 dx=-10 dy=0 dh=-10 dv=0 dx=0 dy=0 dh=0 dv=0
PairPos2: "'kern' Horizontal Kerning in Hebrew lookup 0 subtable" uniFB2F dx=-10 dy=0 dh=-10 dv=0 dx=0 dy=0 dh=0 dv=0
PairPos2: "'kern' Horizontal Kerning in Hebrew lookup 0 subtable" uniFB2E dx=-10 dy=0 dh=-10 dv=0 dx=0 dy=0 dh=0 dv=0
PairPos2: "'kern' Horizontal Kerning in Hebrew lookup 0 subtable" uniFB21 dx=-10 dy=0 dh=-10 dv=0 dx=0 dy=0 dh=0 dv=0
PairPos2: "'kern' Horizontal Kerning in Hebrew lookup 0 subtable" afii57664 dx=-10 dy=0 dh=-10 dv=0 dx=0 dy=0 dh=0 dv=0
EndChar

StartChar: afii57841
Encoding: 1471 1471 139
Width: 0
VWidth: 1070
Flags: HMW
HStem: 680 60<-100 100>
VStem: -100 200<680 740>
LayerCount: 2
Fore
SplineSet
21.2822 740 m 5
 221.282 740 l 5
 205.205 680 l 5
 5.20508 680 l 5
 21.2822 740 l 5
EndSplineSet
EndChar

StartChar: afii57842
Encoding: 1472 1472 140
Width: 179
VWidth: 1070
Flags: HW
VStem: 47.3311 84.9999<-57 635>
LayerCount: 2
Fore
SplineSet
140.658 635.67 m 5
 232.981 663 l 257
 40.0576 -57 l 1
 -52.2646 -84.3301 l 5
 140.658 635.67 l 5
EndSplineSet
EndChar

StartChar: afii57804
Encoding: 1473 1473 141
Width: 0
VWidth: 1000
Flags: HW
LayerCount: 2
Fore
SplineSet
706.172 706 m 4
 728.25 706 741.372 688.079 735.456 666 c 4
 729.54 643.922 706.814 626 684.736 626 c 4
 662.656 626 649.538 643.922 655.454 666 c 4
 661.37 688.079 684.092 706 706.172 706 c 4
EndSplineSet
EndChar

StartChar: afii57803
Encoding: 1474 1474 142
Width: 0
VWidth: 1000
Flags: HW
LayerCount: 2
Fore
SplineSet
268.172 706 m 4
 290.25 706 303.372 688.079 297.456 666 c 4
 291.54 643.922 268.814 626 246.736 626 c 4
 224.656 626 211.538 643.922 217.454 666 c 4
 223.37 688.079 246.092 706 268.172 706 c 4
EndSplineSet
EndChar

StartChar: uni05C4
Encoding: 1476 1476 144
Width: 0
VWidth: 1000
Flags: HW
HStem: 660 120<-48.9249 48.9258>
VStem: -60.001 120.003<671.075 768.925>
LayerCount: 2
Back
SplineSet
-0.000976562 740 m 4
 22.0771 740 40.001 722.078 40.001 700 c 4
 40.001 677.922 22.0771 660 -0.000976562 660 c 4
 -22.0771 660 -40.001 677.922 -40.001 700 c 4
 -40.001 722.078 -22.0771 740 -0.000976562 740 c 4
EndSplineSet
Fore
SplineSet
131.999 780 m 4
 165.116 780 184.799 753.117 175.926 720 c 4
 167.052 686.883 132.963 660 99.8457 660 c 4
 66.7314 660 47.0488 686.883 55.9229 720 c 4
 64.7959 753.117 98.8848 780 131.999 780 c 4
EndSplineSet
EndChar

StartChar: afii57664
Encoding: 1488 1488 145
Width: 620
VWidth: 1000
Flags: HMW
AnchorPoint: "DiaToBaseD" 188.075 -149 basechar 0
AnchorPoint: "DiaToBaseO" -50 0 basechar 0
AnchorPoint: "DiaToBaseU" 230 0 basechar 0
AnchorPoint: "DiaToBase3" 240 0 basechar 0
AnchorPoint: "DiaToBase2" 240 0 basechar 0
AnchorPoint: "DiaToBase1" 240 0 basechar 0
LayerCount: 2
Back
SplineSet
529.5 512.5 m 4
 529.5 441.5 513.724 424.335 489 435 c 4
 463.5 446 443.26 422.452 425.5 374.5 c 4
 410.5 334 401.979 273.772 426.5 243 c 6
 503 147 l 14
 527.648 116.068 530.953 74.3545 525 48 c 4
 517.998 17 487.064 -17.1096 460.998 -10 c 4
 439 -4 459.863 14.6843 439 41 c 6
 206.709 334 l 1
 180.709 317 169.419 297.172 167.811 267 c 16
 164 195.5 250 142 250 54 c 0
 250 22 241.811 0 216.811 0 c 2
 55.8105 0 l 2
 29.8105 0 33.8105 38 43.8105 54 c 0
 53.3652 69.2871 78.8105 60 83.8105 70 c 0
 100.928 104.235 55 147 69 236 c 0
 78.8891 298.867 111 343 166.297 385 c 1
 93 476 l 18
 32.1413 551.557 78.5 642 115 642 c 0
 145.5 642 128.52 617.314 155.5 583.5 c 2
 357.771 330 l 5
 361 379.5 377 415 403.811 451 c 5
 355.963 463.897 322.434 474.5 322.434 546.5 c 4
 322.434 591 342.5 646 369.528 646 c 4
 386 646 376.623 632.86 378.811 619 c 12
 380.729 606.846 388.907 602.478 404 600 c 6
 437.5 594.5 l 6
 500.205 584.205 529.5 569 529.5 512.5 c 4
EndSplineSet
Fore
SplineSet
622.824 512.5 m 0
 603.8 441.5 583.424 424.335 561.558 435 c 0
 539.006 446 508.137 418.5 477.615 375.5 c 0
 449.575 335.996 424.811 273.772 442.16 243 c 2
 496.289 147 l 10
 513.572 116.351 507.315 74.3545 495.22 48 c 0
 480.994 17 440.229 -17.1094 415.82 -10 c 0
 395.221 -4 422.319 14.6846 407.59 41 c 2
 243.575 334 l 1
 213.614 317 189.54 298.71 179.354 267 c 16
 156.384 195.5 228.049 142 204.47 54 c 0
 195.895 22 181.811 0 156.811 0 c 2
 -4.18945 0 l 2
 -30.1895 0 -16.0078 38 -1.7207 54 c 0
 11.9307 69.2871 34.8877 60 42.5674 70 c 0
 68.8574 104.235 34.3887 147 72.2363 236 c 0
 98.9697 298.867 149.965 343 215.049 385 c 1
 162.957 476 l 18
 119.704 551.557 190.023 642 226.523 642 c 0
 257.023 642 231.407 617.314 250.508 583.5 c 2
 393.705 330 l 1
 414.089 381 440.601 416.5 480.656 451 c 1
 436.264 463.897 405.576 474.5 424.868 546.5 c 0
 436.792 591 471.596 646 498.623 646 c 0
 515.096 646 502.197 632.86 500.672 619 c 8
 499.333 606.846 506.341 602.479 520.77 600 c 2
 552.796 594.5 l 2
 612.742 584.205 637.963 569 622.824 512.5 c 0
EndSplineSet
PairPos2: "'kern' Horizontal Kerning in Hebrew lookup 0 subtable" uniE804 dx=-25 dy=0 dh=-25 dv=0 dx=0 dy=0 dh=0 dv=0
PairPos2: "'kern' Horizontal Kerning in Hebrew lookup 0 subtable" uniE803 dx=-10 dy=0 dh=-10 dv=0 dx=0 dy=0 dh=0 dv=0
PairPos2: "'kern' Horizontal Kerning in Hebrew lookup 0 subtable" uniE802 dx=-10 dy=0 dh=-10 dv=0 dx=0 dy=0 dh=0 dv=0
PairPos2: "'kern' Horizontal Kerning in Hebrew lookup 0 subtable" quotesingle dx=-30 dy=0 dh=-30 dv=0 dx=0 dy=0 dh=0 dv=0
PairPos2: "'kern' Horizontal Kerning in Hebrew lookup 0 subtable" quoteright dx=-30 dy=0 dh=-30 dv=0 dx=0 dy=0 dh=0 dv=0
PairPos2: "'kern' Horizontal Kerning in Hebrew lookup 0 subtable" quotedblright dx=-30 dy=0 dh=-30 dv=0 dx=0 dy=0 dh=0 dv=0
PairPos2: "'kern' Horizontal Kerning in Hebrew lookup 0 subtable" quotedbl dx=-30 dy=0 dh=-30 dv=0 dx=0 dy=0 dh=0 dv=0
PairPos2: "'kern' Horizontal Kerning in Hebrew lookup 0 subtable" question dx=-20 dy=0 dh=-20 dv=0 dx=0 dy=0 dh=0 dv=0
PairPos2: "'kern' Horizontal Kerning in Hebrew lookup 0 subtable" hyphen dx=-10 dy=0 dh=-10 dv=0 dx=0 dy=0 dh=0 dv=0
PairPos2: "'kern' Horizontal Kerning in Hebrew lookup 0 subtable" uniFB1D dx=-25 dy=0 dh=-25 dv=0 dx=0 dy=0 dh=0 dv=0
PairPos2: "'kern' Horizontal Kerning in Hebrew lookup 0 subtable" uniFB2D dx=-40 dy=0 dh=-40 dv=0 dx=0 dy=0 dh=0 dv=0
PairPos2: "'kern' Horizontal Kerning in Hebrew lookup 0 subtable" uniFB2C dx=-40 dy=0 dh=-40 dv=0 dx=0 dy=0 dh=0 dv=0
PairPos2: "'kern' Horizontal Kerning in Hebrew lookup 0 subtable" uniFB45 dx=-30 dy=0 dh=-30 dv=0 dx=0 dy=0 dh=0 dv=0
PairPos2: "'kern' Horizontal Kerning in Hebrew lookup 0 subtable" uniFB42 dx=-35 dy=0 dh=-35 dv=0 dx=0 dy=0 dh=0 dv=0
PairPos2: "'kern' Horizontal Kerning in Hebrew lookup 0 subtable" uniFB3F dx=-10 dy=0 dh=-10 dv=0 dx=0 dy=0 dh=0 dv=0
PairPos2: "'kern' Horizontal Kerning in Hebrew lookup 0 subtable" uniFB37 dx=-20 dy=0 dh=-20 dv=0 dx=0 dy=0 dh=0 dv=0
PairPos2: "'kern' Horizontal Kerning in Hebrew lookup 0 subtable" uni05F4 dx=-30 dy=0 dh=-30 dv=0 dx=0 dy=0 dh=0 dv=0
PairPos2: "'kern' Horizontal Kerning in Hebrew lookup 0 subtable" uni05F3 dx=-30 dy=0 dh=-30 dv=0 dx=0 dy=0 dh=0 dv=0
PairPos2: "'kern' Horizontal Kerning in Hebrew lookup 0 subtable" afii57718 dx=-25 dy=0 dh=-25 dv=0 dx=0 dy=0 dh=0 dv=0
PairPos2: "'kern' Horizontal Kerning in Hebrew lookup 0 subtable" afii57705 dx=-25 dy=0 dh=-25 dv=0 dx=0 dy=0 dh=0 dv=0
PairPos2: "'kern' Horizontal Kerning in Hebrew lookup 0 subtable" afii57717 dx=-25 dy=0 dh=-25 dv=0 dx=0 dy=0 dh=0 dv=0
PairPos2: "'kern' Horizontal Kerning in Hebrew lookup 0 subtable" uniFB4A dx=-10 dy=0 dh=-10 dv=0 dx=0 dy=0 dh=0 dv=0
PairPos2: "'kern' Horizontal Kerning in Hebrew lookup 0 subtable" uniFB28 dx=-10 dy=0 dh=-10 dv=0 dx=0 dy=0 dh=0 dv=0
PairPos2: "'kern' Horizontal Kerning in Hebrew lookup 0 subtable" afii57690 dx=-10 dy=0 dh=-10 dv=0 dx=0 dy=0 dh=0 dv=0
PairPos2: "'kern' Horizontal Kerning in Hebrew lookup 0 subtable" uniFB49 dx=-40 dy=0 dh=-40 dv=0 dx=0 dy=0 dh=0 dv=0
PairPos2: "'kern' Horizontal Kerning in Hebrew lookup 0 subtable" afii57695 dx=-40 dy=0 dh=-40 dv=0 dx=0 dy=0 dh=0 dv=0
PairPos2: "'kern' Horizontal Kerning in Hebrew lookup 0 subtable" afii57694 dx=-40 dy=0 dh=-40 dv=0 dx=0 dy=0 dh=0 dv=0
PairPos2: "'kern' Horizontal Kerning in Hebrew lookup 0 subtable" afii57689 dx=-40 dy=0 dh=-40 dv=0 dx=0 dy=0 dh=0 dv=0
PairPos2: "'kern' Horizontal Kerning in Hebrew lookup 0 subtable" uniFB48 dx=20 dy=0 dh=20 dv=0 dx=0 dy=0 dh=0 dv=0
PairPos2: "'kern' Horizontal Kerning in Hebrew lookup 0 subtable" afii57688 dx=20 dy=0 dh=20 dv=0 dx=0 dy=0 dh=0 dv=0
PairPos2: "'kern' Horizontal Kerning in Hebrew lookup 0 subtable" uniFB47 dx=-15 dy=0 dh=-15 dv=0 dx=0 dy=0 dh=0 dv=0
PairPos2: "'kern' Horizontal Kerning in Hebrew lookup 0 subtable" afii57687 dx=-15 dy=0 dh=-15 dv=0 dx=0 dy=0 dh=0 dv=0
PairPos2: "'kern' Horizontal Kerning in Hebrew lookup 0 subtable" uniFB46 dx=-10 dy=0 dh=-10 dv=0 dx=0 dy=0 dh=0 dv=0
PairPos2: "'kern' Horizontal Kerning in Hebrew lookup 0 subtable" afii57686 dx=-10 dy=0 dh=-10 dv=0 dx=0 dy=0 dh=0 dv=0
PairPos2: "'kern' Horizontal Kerning in Hebrew lookup 0 subtable" afii57685 dx=-30 dy=0 dh=-30 dv=0 dx=0 dy=0 dh=0 dv=0
PairPos2: "'kern' Horizontal Kerning in Hebrew lookup 0 subtable" afii57682 dx=-35 dy=0 dh=-35 dv=0 dx=0 dy=0 dh=0 dv=0
PairPos2: "'kern' Horizontal Kerning in Hebrew lookup 0 subtable" uniFB40 dx=-10 dy=0 dh=-10 dv=0 dx=0 dy=0 dh=0 dv=0
PairPos2: "'kern' Horizontal Kerning in Hebrew lookup 0 subtable" afii57680 dx=-10 dy=0 dh=-10 dv=0 dx=0 dy=0 dh=0 dv=0
PairPos2: "'kern' Horizontal Kerning in Hebrew lookup 0 subtable" afii57679 dx=-10 dy=0 dh=-10 dv=0 dx=0 dy=0 dh=0 dv=0
PairPos2: "'kern' Horizontal Kerning in Hebrew lookup 0 subtable" uniFB3C dx=-30 dy=0 dh=-30 dv=0 dx=0 dy=0 dh=0 dv=0
PairPos2: "'kern' Horizontal Kerning in Hebrew lookup 0 subtable" uniFB25 dx=-30 dy=0 dh=-30 dv=0 dx=0 dy=0 dh=0 dv=0
PairPos2: "'kern' Horizontal Kerning in Hebrew lookup 0 subtable" afii57676 dx=-30 dy=0 dh=-30 dv=0 dx=0 dy=0 dh=0 dv=0
PairPos2: "'kern' Horizontal Kerning in Hebrew lookup 0 subtable" uniFB3A dx=-10 dy=0 dh=-10 dv=0 dx=0 dy=0 dh=0 dv=0
PairPos2: "'kern' Horizontal Kerning in Hebrew lookup 0 subtable" afii57674 dx=-10 dy=0 dh=-10 dv=0 dx=0 dy=0 dh=0 dv=0
PairPos2: "'kern' Horizontal Kerning in Hebrew lookup 0 subtable" uniFB39 dx=-25 dy=0 dh=-25 dv=0 dx=0 dy=0 dh=0 dv=0
PairPos2: "'kern' Horizontal Kerning in Hebrew lookup 0 subtable" afii57673 dx=-25 dy=0 dh=-25 dv=0 dx=0 dy=0 dh=0 dv=0
PairPos2: "'kern' Horizontal Kerning in Hebrew lookup 0 subtable" uniFB38 dx=-10 dy=0 dh=-10 dv=0 dx=0 dy=0 dh=0 dv=0
PairPos2: "'kern' Horizontal Kerning in Hebrew lookup 0 subtable" afii57672 dx=-10 dy=0 dh=-10 dv=0 dx=0 dy=0 dh=0 dv=0
PairPos2: "'kern' Horizontal Kerning in Hebrew lookup 0 subtable" afii57671 dx=-20 dy=0 dh=-20 dv=0 dx=0 dy=0 dh=0 dv=0
PairPos2: "'kern' Horizontal Kerning in Hebrew lookup 0 subtable" uniFB36 dx=-25 dy=0 dh=-25 dv=0 dx=0 dy=0 dh=0 dv=0
PairPos2: "'kern' Horizontal Kerning in Hebrew lookup 0 subtable" afii57670 dx=-25 dy=0 dh=-25 dv=0 dx=0 dy=0 dh=0 dv=0
PairPos2: "'kern' Horizontal Kerning in Hebrew lookup 0 subtable" uniFB34 dx=-10 dy=0 dh=-10 dv=0 dx=0 dy=0 dh=0 dv=0
PairPos2: "'kern' Horizontal Kerning in Hebrew lookup 0 subtable" uniFB23 dx=-10 dy=0 dh=-10 dv=0 dx=0 dy=0 dh=0 dv=0
PairPos2: "'kern' Horizontal Kerning in Hebrew lookup 0 subtable" afii57668 dx=-10 dy=0 dh=-10 dv=0 dx=0 dy=0 dh=0 dv=0
PairPos2: "'kern' Horizontal Kerning in Hebrew lookup 0 subtable" uniFB33 dx=-10 dy=0 dh=-10 dv=0 dx=0 dy=0 dh=0 dv=0
PairPos2: "'kern' Horizontal Kerning in Hebrew lookup 0 subtable" uniFB22 dx=-10 dy=0 dh=-10 dv=0 dx=0 dy=0 dh=0 dv=0
PairPos2: "'kern' Horizontal Kerning in Hebrew lookup 0 subtable" afii57667 dx=-10 dy=0 dh=-10 dv=0 dx=0 dy=0 dh=0 dv=0
PairPos2: "'kern' Horizontal Kerning in Hebrew lookup 0 subtable" uniFB32 dx=-10 dy=0 dh=-10 dv=0 dx=0 dy=0 dh=0 dv=0
PairPos2: "'kern' Horizontal Kerning in Hebrew lookup 0 subtable" afii57666 dx=-10 dy=0 dh=-10 dv=0 dx=0 dy=0 dh=0 dv=0
PairPos2: "'kern' Horizontal Kerning in Hebrew lookup 0 subtable" uniFB30 dx=-20 dy=0 dh=-20 dv=0 dx=0 dy=0 dh=0 dv=0
PairPos2: "'kern' Horizontal Kerning in Hebrew lookup 0 subtable" uniFB2F dx=-20 dy=0 dh=-20 dv=0 dx=0 dy=0 dh=0 dv=0
PairPos2: "'kern' Horizontal Kerning in Hebrew lookup 0 subtable" uniFB2E dx=-20 dy=0 dh=-20 dv=0 dx=0 dy=0 dh=0 dv=0
PairPos2: "'kern' Horizontal Kerning in Hebrew lookup 0 subtable" uniFB21 dx=-20 dy=0 dh=-20 dv=0 dx=0 dy=0 dh=0 dv=0
PairPos2: "'kern' Horizontal Kerning in Hebrew lookup 0 subtable" afii57664 dx=-20 dy=0 dh=-20 dv=0 dx=0 dy=0 dh=0 dv=0
PairPos2: "'kern' Horizontal Kerning in Hebrew lookup 0 subtable" afii57645 dx=-30 dy=0 dh=-30 dv=0 dx=0 dy=0 dh=0 dv=0
Substitution2: "WideLetters" uniFB21
Comment: "%DiaToBase1+AD0A-315+AAoA%DiaToBase2+AD0A-315+AAoA%DiaToBase3+AD0A-315+AAoA%DiaToBaseO+AD0A-25+AAoA%DiaToBaseU+AD0A-305+AAoA" 
EndChar

StartChar: afii57665
Encoding: 1489 1489 146
Width: 509
VWidth: 1000
Flags: HMW
AnchorPoint: "DiaToBaseD" 166 0 basechar 0
AnchorPoint: "DiaToBaseO" -85 0 basechar 0
AnchorPoint: "DiaToBaseU" 185 0 basechar 0
AnchorPoint: "DiaToBase3" 175 0 basechar 0
AnchorPoint: "DiaToBase2" 185 0 basechar 0
AnchorPoint: "DiaToBase1" 175 0 basechar 0
LayerCount: 2
Back
SplineSet
121.631 600 m 2
 342.131 600 l 2
 356.131 600 384.568 595.685 402.131 578 c 24
 426.948 553.01 430.438 506.405 432.631 493 c 0
 443.273 427.964 435.191 290.359 426.131 236 c 8
 420.494 202.178 410.131 183 397.131 153 c 8
 395.288 148.747 396.996 142 401.631 142 c 18
 498.131 142 l 25
 460.131 0 l 25
 29.1318 0 l 25
 65.1318 142 l 25
 306.131 142 l 10
 321.812 142 338.631 142.5 345.631 149.5 c 0
 365.128 168.997 367.721 257.498 368.131 313 c 0
 368.5 363 367.226 436.969 310.131 456 c 16
 299.631 459.5 286.386 459 271.131 459 c 18
 130.131 459 l 2
 72.8613 459 47.5283 484 46.1309 545 c 8
 45.1895 586.072 63.5283 636 82.1309 644 c 8
 89.332 647.097 99.6309 647.5 102.131 642 c 0
 103.898 638.111 100.631 629.5 102.131 620 c 8
 103.83 609.239 113.631 600 121.631 600 c 2
EndSplineSet
Fore
SplineSet
207.4 600 m 2
 427.9 600 l 2
 441.9 600 480.969 592.798 490.418 559.5 c 0
 502.762 516 496.828 464 473.785 378 c 0
 448.865 285 411.047 218.5 363.127 153 c 8
 360.052 148.795 360.045 142 364.68 142 c 18
 437.049 142 l 2
 459.11 142 456.604 133.455 448.326 118 c 2
 395.842 20 l 2
 387.853 5.08301 382.308 0 362 0 c 2
 -22 0 l 2
 -44.3965 0 -41.2041 8.94434 -32.832 25 c 2
 21.4014 129 l 2
 27.2168 140.152 32.2949 142 46.0488 142 c 2
 269.18 142 l 10
 284.86 142 301.813 142.5 310.689 149.5 c 0
 335.41 168.997 365.53 231.5 383.482 298.5 c 0
 396.345 346.5 403.01 386.915 392.701 417.5 c 0
 383.99 443.348 355.467 458 318.852 458 c 18
 177.852 458 l 2
 120.582 458 100.814 483.984 117.163 545 c 0
 128.685 588 163.095 646 191.095 646 c 0
 207.095 646 194.814 634.134 193.26 620 c 8
 192.075 609.239 199.4 600 207.4 600 c 2
EndSplineSet
PairPos2: "'kern' Horizontal Kerning in Hebrew lookup 0 subtable" uniE804 dx=-10 dy=0 dh=-10 dv=0 dx=0 dy=0 dh=0 dv=0
PairPos2: "'kern' Horizontal Kerning in Hebrew lookup 0 subtable" question dx=10 dy=0 dh=10 dv=0 dx=0 dy=0 dh=0 dv=0
PairPos2: "'kern' Horizontal Kerning in Hebrew lookup 0 subtable" period dx=10 dy=0 dh=10 dv=0 dx=0 dy=0 dh=0 dv=0
PairPos2: "'kern' Horizontal Kerning in Hebrew lookup 0 subtable" ellipsis dx=10 dy=0 dh=10 dv=0 dx=0 dy=0 dh=0 dv=0
PairPos2: "'kern' Horizontal Kerning in Hebrew lookup 0 subtable" hyphen dx=10 dy=0 dh=10 dv=0 dx=0 dy=0 dh=0 dv=0
PairPos2: "'kern' Horizontal Kerning in Hebrew lookup 0 subtable" comma dx=10 dy=0 dh=10 dv=0 dx=0 dy=0 dh=0 dv=0
PairPos2: "'kern' Horizontal Kerning in Hebrew lookup 0 subtable" uniFB1D dx=-10 dy=0 dh=-10 dv=0 dx=0 dy=0 dh=0 dv=0
PairPos2: "'kern' Horizontal Kerning in Hebrew lookup 0 subtable" uniFB2D dx=-10 dy=0 dh=-10 dv=0 dx=0 dy=0 dh=0 dv=0
PairPos2: "'kern' Horizontal Kerning in Hebrew lookup 0 subtable" uniFB2C dx=-10 dy=0 dh=-10 dv=0 dx=0 dy=0 dh=0 dv=0
PairPos2: "'kern' Horizontal Kerning in Hebrew lookup 0 subtable" uniFB42 dx=-10 dy=0 dh=-10 dv=0 dx=0 dy=0 dh=0 dv=0
PairPos2: "'kern' Horizontal Kerning in Hebrew lookup 0 subtable" uniFB3D dx=10 dy=0 dh=10 dv=0 dx=0 dy=0 dh=0 dv=0
PairPos2: "'kern' Horizontal Kerning in Hebrew lookup 0 subtable" uniFB37 dx=10 dy=0 dh=10 dv=0 dx=0 dy=0 dh=0 dv=0
PairPos2: "'kern' Horizontal Kerning in Hebrew lookup 0 subtable" afii57718 dx=-10 dy=0 dh=-10 dv=0 dx=0 dy=0 dh=0 dv=0
PairPos2: "'kern' Horizontal Kerning in Hebrew lookup 0 subtable" afii57705 dx=-10 dy=0 dh=-10 dv=0 dx=0 dy=0 dh=0 dv=0
PairPos2: "'kern' Horizontal Kerning in Hebrew lookup 0 subtable" afii57717 dx=-10 dy=0 dh=-10 dv=0 dx=0 dy=0 dh=0 dv=0
PairPos2: "'kern' Horizontal Kerning in Hebrew lookup 0 subtable" uniFB49 dx=-10 dy=0 dh=-10 dv=0 dx=0 dy=0 dh=0 dv=0
PairPos2: "'kern' Horizontal Kerning in Hebrew lookup 0 subtable" afii57695 dx=-10 dy=0 dh=-10 dv=0 dx=0 dy=0 dh=0 dv=0
PairPos2: "'kern' Horizontal Kerning in Hebrew lookup 0 subtable" afii57694 dx=-10 dy=0 dh=-10 dv=0 dx=0 dy=0 dh=0 dv=0
PairPos2: "'kern' Horizontal Kerning in Hebrew lookup 0 subtable" afii57689 dx=-10 dy=0 dh=-10 dv=0 dx=0 dy=0 dh=0 dv=0
PairPos2: "'kern' Horizontal Kerning in Hebrew lookup 0 subtable" uniFB48 dx=20 dy=0 dh=20 dv=0 dx=0 dy=0 dh=0 dv=0
PairPos2: "'kern' Horizontal Kerning in Hebrew lookup 0 subtable" afii57688 dx=20 dy=0 dh=20 dv=0 dx=0 dy=0 dh=0 dv=0
PairPos2: "'kern' Horizontal Kerning in Hebrew lookup 0 subtable" afii57682 dx=-10 dy=0 dh=-10 dv=0 dx=0 dy=0 dh=0 dv=0
PairPos2: "'kern' Horizontal Kerning in Hebrew lookup 0 subtable" uniFB40 dx=10 dy=0 dh=10 dv=0 dx=0 dy=0 dh=0 dv=0
PairPos2: "'kern' Horizontal Kerning in Hebrew lookup 0 subtable" afii57680 dx=10 dy=0 dh=10 dv=0 dx=0 dy=0 dh=0 dv=0
PairPos2: "'kern' Horizontal Kerning in Hebrew lookup 0 subtable" uniFB3E dx=10 dy=0 dh=10 dv=0 dx=0 dy=0 dh=0 dv=0
PairPos2: "'kern' Horizontal Kerning in Hebrew lookup 0 subtable" afii57678 dx=10 dy=0 dh=10 dv=0 dx=0 dy=0 dh=0 dv=0
PairPos2: "'kern' Horizontal Kerning in Hebrew lookup 0 subtable" uniFB26 dx=10 dy=0 dh=10 dv=0 dx=0 dy=0 dh=0 dv=0
PairPos2: "'kern' Horizontal Kerning in Hebrew lookup 0 subtable" afii57677 dx=10 dy=0 dh=10 dv=0 dx=0 dy=0 dh=0 dv=0
PairPos2: "'kern' Horizontal Kerning in Hebrew lookup 0 subtable" uniFB4D dx=-15 dy=0 dh=-15 dv=0 dx=0 dy=0 dh=0 dv=0
PairPos2: "'kern' Horizontal Kerning in Hebrew lookup 0 subtable" uniFB3B dx=-15 dy=0 dh=-15 dv=0 dx=0 dy=0 dh=0 dv=0
PairPos2: "'kern' Horizontal Kerning in Hebrew lookup 0 subtable" uniFB24 dx=-15 dy=0 dh=-15 dv=0 dx=0 dy=0 dh=0 dv=0
PairPos2: "'kern' Horizontal Kerning in Hebrew lookup 0 subtable" afii57675 dx=-15 dy=0 dh=-15 dv=0 dx=0 dy=0 dh=0 dv=0
PairPos2: "'kern' Horizontal Kerning in Hebrew lookup 0 subtable" uniFB39 dx=-10 dy=0 dh=-10 dv=0 dx=0 dy=0 dh=0 dv=0
PairPos2: "'kern' Horizontal Kerning in Hebrew lookup 0 subtable" afii57673 dx=-10 dy=0 dh=-10 dv=0 dx=0 dy=0 dh=0 dv=0
PairPos2: "'kern' Horizontal Kerning in Hebrew lookup 0 subtable" afii57671 dx=10 dy=0 dh=10 dv=0 dx=0 dy=0 dh=0 dv=0
PairPos2: "'kern' Horizontal Kerning in Hebrew lookup 0 subtable" uniFB36 dx=-10 dy=0 dh=-10 dv=0 dx=0 dy=0 dh=0 dv=0
PairPos2: "'kern' Horizontal Kerning in Hebrew lookup 0 subtable" afii57670 dx=-10 dy=0 dh=-10 dv=0 dx=0 dy=0 dh=0 dv=0
PairPos2: "'kern' Horizontal Kerning in Hebrew lookup 0 subtable" uniFB4C dx=10 dy=0 dh=10 dv=0 dx=0 dy=0 dh=0 dv=0
PairPos2: "'kern' Horizontal Kerning in Hebrew lookup 0 subtable" uniFB31 dx=10 dy=0 dh=10 dv=0 dx=0 dy=0 dh=0 dv=0
PairPos2: "'kern' Horizontal Kerning in Hebrew lookup 0 subtable" afii57665 dx=10 dy=0 dh=10 dv=0 dx=0 dy=0 dh=0 dv=0
Comment: "%DiaToBase1+AD0A-250+AAoA%DiaToBase2+AD0A-260+AAoA%DiaToBase3+AD0A-250+AAoA%DiaToBaseO+AD0A--10+AAoA%DiaToBaseU+AD0A-260+AAoA" 
EndChar

StartChar: afii57666
Encoding: 1490 1490 147
Width: 423
VWidth: 1000
Flags: HMW
AnchorPoint: "DiaToBaseD" 108.729 0 basechar 0
AnchorPoint: "DiaToBaseO" -30.2715 0 basechar 0
AnchorPoint: "DiaToBaseU" 139.729 0 basechar 0
AnchorPoint: "DiaToBase3" 149.729 0 basechar 0
AnchorPoint: "DiaToBase2" 144.729 0 basechar 0
AnchorPoint: "DiaToBase1" 134.729 0 basechar 0
LayerCount: 2
Back
SplineSet
349.27 -4 m 0
 317.27 -4 327.27 12 296.27 79 c 0
 279.539 115.157 274.27 125 253.27 152 c 0
 235.036 175.443 213.7 109.378 201.27 74 c 26
 175.27 0 l 25
 11.2695 0 l 25
 47.2695 142 l 25
 117.27 142 l 2
 237.27 142 232.828 259.75 235.27 298 c 0
 238.27 345 242.27 458 188.27 458 c 2
 156.27 458 l 2
 99 458 73.6667 483 72.2695 544 c 8
 71.3528 584.022 89.6667 635 108.27 643 c 12
 115.655 646.176 125.77 646.5 128.27 641 c 4
 130.037 637.111 126.77 628.5 128.27 619 c 12
 129.969 608.243 139.77 600 147.77 600 c 2
 225.27 600 l 2
 239.27 600 320.27 597 307.27 495 c 0
 299.224 431.871 288.27 401 290.27 339 c 0
 292.948 255.947 317.736 235.98 341.27 169 c 16
 354.27 132 362.27 101 363.27 57 c 8
 363.839 31.9717 370.27 -4 349.27 -4 c 0
EndSplineSet
Fore
SplineSet
-15.2051 0 m 2
 -37.5361 0 -34.4092 8.94434 -26.0371 25 c 2
 28.1963 129 l 2
 34.0127 140.152 39.0898 142 52.8438 142 c 10
 105.049 142 l 2
 225.049 142 252.159 259.75 264.849 298 c 0
 280.442 345 314.721 458 260.721 458 c 2
 228.721 458 l 2
 171.452 458 151.419 484 168.166 546.5 c 0
 180.09 591 214.892 646 241.921 646 c 0
 258.392 646 245.492 632.859 243.969 619 c 8
 242.814 608.512 250.378 600 258.378 600 c 2
 335.77 600 l 2
 349.77 600 430.893 594 389.635 495 c 0
 364.61 434.949 347.456 401.032 330.835 339 c 0
 302.164 232 361.767 182 328.273 57 c 8
 321.487 31.6738 310.659 -4 289.659 -4 c 0
 256.659 -4 274.526 100 243.729 152 c 0
 230.395 174.516 192.191 108.493 170.828 74 c 18
 137.387 20 l 2
 129.625 7.46582 122.981 0 105.231 0 c 2
 -15.2051 0 l 2
EndSplineSet
PairPos2: "'kern' Horizontal Kerning in Hebrew lookup 0 subtable" uniE804 dx=-30 dy=0 dh=-30 dv=0 dx=0 dy=0 dh=0 dv=0
PairPos2: "'kern' Horizontal Kerning in Hebrew lookup 0 subtable" uniE803 dx=-15 dy=0 dh=-15 dv=0 dx=0 dy=0 dh=0 dv=0
PairPos2: "'kern' Horizontal Kerning in Hebrew lookup 0 subtable" uniE802 dx=-15 dy=0 dh=-15 dv=0 dx=0 dy=0 dh=0 dv=0
PairPos2: "'kern' Horizontal Kerning in Hebrew lookup 0 subtable" uniE801 dx=-10 dy=0 dh=-10 dv=0 dx=0 dy=0 dh=0 dv=0
PairPos2: "'kern' Horizontal Kerning in Hebrew lookup 0 subtable" quotesingle dx=-45 dy=0 dh=-45 dv=0 dx=0 dy=0 dh=0 dv=0
PairPos2: "'kern' Horizontal Kerning in Hebrew lookup 0 subtable" quoteright dx=-45 dy=0 dh=-45 dv=0 dx=0 dy=0 dh=0 dv=0
PairPos2: "'kern' Horizontal Kerning in Hebrew lookup 0 subtable" quotedblright dx=-45 dy=0 dh=-45 dv=0 dx=0 dy=0 dh=0 dv=0
PairPos2: "'kern' Horizontal Kerning in Hebrew lookup 0 subtable" quotedbl dx=-45 dy=0 dh=-45 dv=0 dx=0 dy=0 dh=0 dv=0
PairPos2: "'kern' Horizontal Kerning in Hebrew lookup 0 subtable" question dx=-30 dy=0 dh=-30 dv=0 dx=0 dy=0 dh=0 dv=0
PairPos2: "'kern' Horizontal Kerning in Hebrew lookup 0 subtable" hyphen dx=-30 dy=0 dh=-30 dv=0 dx=0 dy=0 dh=0 dv=0
PairPos2: "'kern' Horizontal Kerning in Hebrew lookup 0 subtable" uniFB1D dx=-30 dy=0 dh=-30 dv=0 dx=0 dy=0 dh=0 dv=0
PairPos2: "'kern' Horizontal Kerning in Hebrew lookup 0 subtable" uniFB2D dx=-55 dy=0 dh=-55 dv=0 dx=0 dy=0 dh=0 dv=0
PairPos2: "'kern' Horizontal Kerning in Hebrew lookup 0 subtable" uniFB2C dx=-55 dy=0 dh=-55 dv=0 dx=0 dy=0 dh=0 dv=0
PairPos2: "'kern' Horizontal Kerning in Hebrew lookup 0 subtable" uniFB45 dx=-45 dy=0 dh=-45 dv=0 dx=0 dy=0 dh=0 dv=0
PairPos2: "'kern' Horizontal Kerning in Hebrew lookup 0 subtable" uniFB42 dx=-50 dy=0 dh=-50 dv=0 dx=0 dy=0 dh=0 dv=0
PairPos2: "'kern' Horizontal Kerning in Hebrew lookup 0 subtable" uniFB3F dx=-20 dy=0 dh=-20 dv=0 dx=0 dy=0 dh=0 dv=0
PairPos2: "'kern' Horizontal Kerning in Hebrew lookup 0 subtable" uniFB37 dx=-10 dy=0 dh=-10 dv=0 dx=0 dy=0 dh=0 dv=0
PairPos2: "'kern' Horizontal Kerning in Hebrew lookup 0 subtable" uni05F4 dx=-45 dy=0 dh=-45 dv=0 dx=0 dy=0 dh=0 dv=0
PairPos2: "'kern' Horizontal Kerning in Hebrew lookup 0 subtable" uni05F3 dx=-45 dy=0 dh=-45 dv=0 dx=0 dy=0 dh=0 dv=0
PairPos2: "'kern' Horizontal Kerning in Hebrew lookup 0 subtable" afii57718 dx=-30 dy=0 dh=-30 dv=0 dx=0 dy=0 dh=0 dv=0
PairPos2: "'kern' Horizontal Kerning in Hebrew lookup 0 subtable" afii57705 dx=-30 dy=0 dh=-30 dv=0 dx=0 dy=0 dh=0 dv=0
PairPos2: "'kern' Horizontal Kerning in Hebrew lookup 0 subtable" afii57717 dx=-30 dy=0 dh=-30 dv=0 dx=0 dy=0 dh=0 dv=0
PairPos2: "'kern' Horizontal Kerning in Hebrew lookup 0 subtable" afii57716 dx=-10 dy=0 dh=-10 dv=0 dx=0 dy=0 dh=0 dv=0
PairPos2: "'kern' Horizontal Kerning in Hebrew lookup 0 subtable" uniFB4A dx=-20 dy=0 dh=-20 dv=0 dx=0 dy=0 dh=0 dv=0
PairPos2: "'kern' Horizontal Kerning in Hebrew lookup 0 subtable" uniFB28 dx=-20 dy=0 dh=-20 dv=0 dx=0 dy=0 dh=0 dv=0
PairPos2: "'kern' Horizontal Kerning in Hebrew lookup 0 subtable" afii57690 dx=-20 dy=0 dh=-20 dv=0 dx=0 dy=0 dh=0 dv=0
PairPos2: "'kern' Horizontal Kerning in Hebrew lookup 0 subtable" uniFB49 dx=-55 dy=0 dh=-55 dv=0 dx=0 dy=0 dh=0 dv=0
PairPos2: "'kern' Horizontal Kerning in Hebrew lookup 0 subtable" afii57695 dx=-55 dy=0 dh=-55 dv=0 dx=0 dy=0 dh=0 dv=0
PairPos2: "'kern' Horizontal Kerning in Hebrew lookup 0 subtable" afii57694 dx=-55 dy=0 dh=-55 dv=0 dx=0 dy=0 dh=0 dv=0
PairPos2: "'kern' Horizontal Kerning in Hebrew lookup 0 subtable" afii57689 dx=-55 dy=0 dh=-55 dv=0 dx=0 dy=0 dh=0 dv=0
PairPos2: "'kern' Horizontal Kerning in Hebrew lookup 0 subtable" uniFB47 dx=-50 dy=0 dh=-50 dv=0 dx=0 dy=0 dh=0 dv=0
PairPos2: "'kern' Horizontal Kerning in Hebrew lookup 0 subtable" afii57687 dx=-50 dy=0 dh=-50 dv=0 dx=0 dy=0 dh=0 dv=0
PairPos2: "'kern' Horizontal Kerning in Hebrew lookup 0 subtable" uniFB46 dx=-10 dy=0 dh=-10 dv=0 dx=0 dy=0 dh=0 dv=0
PairPos2: "'kern' Horizontal Kerning in Hebrew lookup 0 subtable" afii57686 dx=-10 dy=0 dh=-10 dv=0 dx=0 dy=0 dh=0 dv=0
PairPos2: "'kern' Horizontal Kerning in Hebrew lookup 0 subtable" afii57685 dx=-45 dy=0 dh=-45 dv=0 dx=0 dy=0 dh=0 dv=0
PairPos2: "'kern' Horizontal Kerning in Hebrew lookup 0 subtable" uniFB4E dx=-10 dy=0 dh=-10 dv=0 dx=0 dy=0 dh=0 dv=0
PairPos2: "'kern' Horizontal Kerning in Hebrew lookup 0 subtable" uniFB44 dx=-10 dy=0 dh=-10 dv=0 dx=0 dy=0 dh=0 dv=0
PairPos2: "'kern' Horizontal Kerning in Hebrew lookup 0 subtable" afii57684 dx=-10 dy=0 dh=-10 dv=0 dx=0 dy=0 dh=0 dv=0
PairPos2: "'kern' Horizontal Kerning in Hebrew lookup 0 subtable" afii57682 dx=-50 dy=0 dh=-50 dv=0 dx=0 dy=0 dh=0 dv=0
PairPos2: "'kern' Horizontal Kerning in Hebrew lookup 0 subtable" uniFB41 dx=-10 dy=0 dh=-10 dv=0 dx=0 dy=0 dh=0 dv=0
PairPos2: "'kern' Horizontal Kerning in Hebrew lookup 0 subtable" afii57681 dx=-10 dy=0 dh=-10 dv=0 dx=0 dy=0 dh=0 dv=0
PairPos2: "'kern' Horizontal Kerning in Hebrew lookup 0 subtable" afii57679 dx=-20 dy=0 dh=-20 dv=0 dx=0 dy=0 dh=0 dv=0
PairPos2: "'kern' Horizontal Kerning in Hebrew lookup 0 subtable" uniFB3C dx=-40 dy=0 dh=-40 dv=0 dx=0 dy=0 dh=0 dv=0
PairPos2: "'kern' Horizontal Kerning in Hebrew lookup 0 subtable" uniFB25 dx=-40 dy=0 dh=-40 dv=0 dx=0 dy=0 dh=0 dv=0
PairPos2: "'kern' Horizontal Kerning in Hebrew lookup 0 subtable" afii57676 dx=-40 dy=0 dh=-40 dv=0 dx=0 dy=0 dh=0 dv=0
PairPos2: "'kern' Horizontal Kerning in Hebrew lookup 0 subtable" uniFB4D dx=-15 dy=0 dh=-15 dv=0 dx=0 dy=0 dh=0 dv=0
PairPos2: "'kern' Horizontal Kerning in Hebrew lookup 0 subtable" uniFB3B dx=-15 dy=0 dh=-15 dv=0 dx=0 dy=0 dh=0 dv=0
PairPos2: "'kern' Horizontal Kerning in Hebrew lookup 0 subtable" uniFB24 dx=-15 dy=0 dh=-15 dv=0 dx=0 dy=0 dh=0 dv=0
PairPos2: "'kern' Horizontal Kerning in Hebrew lookup 0 subtable" afii57675 dx=-15 dy=0 dh=-15 dv=0 dx=0 dy=0 dh=0 dv=0
PairPos2: "'kern' Horizontal Kerning in Hebrew lookup 0 subtable" uniFB3A dx=-15 dy=0 dh=-15 dv=0 dx=0 dy=0 dh=0 dv=0
PairPos2: "'kern' Horizontal Kerning in Hebrew lookup 0 subtable" afii57674 dx=-15 dy=0 dh=-15 dv=0 dx=0 dy=0 dh=0 dv=0
PairPos2: "'kern' Horizontal Kerning in Hebrew lookup 0 subtable" uniFB39 dx=-30 dy=0 dh=-30 dv=0 dx=0 dy=0 dh=0 dv=0
PairPos2: "'kern' Horizontal Kerning in Hebrew lookup 0 subtable" afii57673 dx=-30 dy=0 dh=-30 dv=0 dx=0 dy=0 dh=0 dv=0
PairPos2: "'kern' Horizontal Kerning in Hebrew lookup 0 subtable" uniFB38 dx=-10 dy=0 dh=-10 dv=0 dx=0 dy=0 dh=0 dv=0
PairPos2: "'kern' Horizontal Kerning in Hebrew lookup 0 subtable" afii57672 dx=-10 dy=0 dh=-10 dv=0 dx=0 dy=0 dh=0 dv=0
PairPos2: "'kern' Horizontal Kerning in Hebrew lookup 0 subtable" afii57671 dx=-10 dy=0 dh=-10 dv=0 dx=0 dy=0 dh=0 dv=0
PairPos2: "'kern' Horizontal Kerning in Hebrew lookup 0 subtable" uniFB36 dx=-40 dy=0 dh=-40 dv=0 dx=0 dy=0 dh=0 dv=0
PairPos2: "'kern' Horizontal Kerning in Hebrew lookup 0 subtable" afii57670 dx=-40 dy=0 dh=-40 dv=0 dx=0 dy=0 dh=0 dv=0
PairPos2: "'kern' Horizontal Kerning in Hebrew lookup 0 subtable" afii57723 dx=-10 dy=0 dh=-10 dv=0 dx=0 dy=0 dh=0 dv=0
PairPos2: "'kern' Horizontal Kerning in Hebrew lookup 0 subtable" afii57700 dx=-10 dy=0 dh=-10 dv=0 dx=0 dy=0 dh=0 dv=0
PairPos2: "'kern' Horizontal Kerning in Hebrew lookup 0 subtable" afii57669 dx=-10 dy=0 dh=-10 dv=0 dx=0 dy=0 dh=0 dv=0
PairPos2: "'kern' Horizontal Kerning in Hebrew lookup 0 subtable" uniFB34 dx=-10 dy=0 dh=-10 dv=0 dx=0 dy=0 dh=0 dv=0
PairPos2: "'kern' Horizontal Kerning in Hebrew lookup 0 subtable" uniFB23 dx=-10 dy=0 dh=-10 dv=0 dx=0 dy=0 dh=0 dv=0
PairPos2: "'kern' Horizontal Kerning in Hebrew lookup 0 subtable" afii57668 dx=-10 dy=0 dh=-10 dv=0 dx=0 dy=0 dh=0 dv=0
PairPos2: "'kern' Horizontal Kerning in Hebrew lookup 0 subtable" uniFB33 dx=-15 dy=0 dh=-15 dv=0 dx=0 dy=0 dh=0 dv=0
PairPos2: "'kern' Horizontal Kerning in Hebrew lookup 0 subtable" uniFB22 dx=-15 dy=0 dh=-15 dv=0 dx=0 dy=0 dh=0 dv=0
PairPos2: "'kern' Horizontal Kerning in Hebrew lookup 0 subtable" afii57667 dx=-15 dy=0 dh=-15 dv=0 dx=0 dy=0 dh=0 dv=0
PairPos2: "'kern' Horizontal Kerning in Hebrew lookup 0 subtable" uniFB4C dx=10 dy=0 dh=10 dv=0 dx=0 dy=0 dh=0 dv=0
PairPos2: "'kern' Horizontal Kerning in Hebrew lookup 0 subtable" uniFB31 dx=10 dy=0 dh=10 dv=0 dx=0 dy=0 dh=0 dv=0
PairPos2: "'kern' Horizontal Kerning in Hebrew lookup 0 subtable" afii57665 dx=10 dy=0 dh=10 dv=0 dx=0 dy=0 dh=0 dv=0
PairPos2: "'kern' Horizontal Kerning in Hebrew lookup 0 subtable" uniFB30 dx=-20 dy=0 dh=-20 dv=0 dx=0 dy=0 dh=0 dv=0
PairPos2: "'kern' Horizontal Kerning in Hebrew lookup 0 subtable" uniFB2F dx=-20 dy=0 dh=-20 dv=0 dx=0 dy=0 dh=0 dv=0
PairPos2: "'kern' Horizontal Kerning in Hebrew lookup 0 subtable" uniFB2E dx=-20 dy=0 dh=-20 dv=0 dx=0 dy=0 dh=0 dv=0
PairPos2: "'kern' Horizontal Kerning in Hebrew lookup 0 subtable" uniFB21 dx=-20 dy=0 dh=-20 dv=0 dx=0 dy=0 dh=0 dv=0
PairPos2: "'kern' Horizontal Kerning in Hebrew lookup 0 subtable" afii57664 dx=-20 dy=0 dh=-20 dv=0 dx=0 dy=0 dh=0 dv=0
PairPos2: "'kern' Horizontal Kerning in Hebrew lookup 0 subtable" afii57645 dx=-45 dy=0 dh=-45 dv=0 dx=0 dy=0 dh=0 dv=0
Comment: "%DiaToBase1+AD0A-210+AAoA%DiaToBase2+AD0A-220+AAoA%DiaToBase3+AD0A-225+AAoA%DiaToBaseO+AD0A-45+AAoA%DiaToBaseU+AD0A-215+AAoA" 
EndChar

StartChar: afii57667
Encoding: 1491 1491 148
Width: 528
VWidth: 1000
Flags: HMW
AnchorPoint: "DiaToBaseD" 172 0 basechar 0
AnchorPoint: "DiaToBaseO" -95 0 basechar 0
AnchorPoint: "DiaToBaseU" 240 0 basechar 0
AnchorPoint: "DiaToBase3" 235 0 basechar 0
AnchorPoint: "DiaToBase2" 285 0 basechar 0
AnchorPoint: "DiaToBase1" 295 0 basechar 0
LayerCount: 2
Back
SplineSet
112.114 600 m 2
 471.614 600 l 2
 485.614 600 502.847 594.939 503.614 560 c 2
 503.666 476 l 2
 502.81 440.02 468.614 483 442.614 428 c 0
 395.234 327.774 444.462 183.93 440.614 107 c 0
 438.614 67 428.614 41 409.614 22 c 0
 389.614 2 350.917 -11.5781 343.614 4 c 0
 336.114 20 351.614 -5.5 352.614 152.5 c 0
 352.805 182.516 341.614 311 368.614 388 c 0
 385.486 436.118 404.614 440.514 404.614 450 c 0
 404.614 460 392.604 458 383.614 458 c 18
 120.614 458 l 2
 63.3447 458 38.0107 483 36.6133 544 c 8
 35.6973 584.021 54.0107 635 72.6143 643 c 12
 79.999 646.176 90.1143 646.5 92.6143 641 c 4
 94.3809 637.111 91.1143 628.5 92.6143 619 c 12
 94.2705 608.512 104.114 600 112.114 600 c 2
EndSplineSet
Fore
SplineSet
102.672 546.5 m 0
 114.596 591 149.398 646 176.427 646 c 0
 192.898 646 180 632.859 178.475 619 c 8
 177.322 608.512 184.884 600 192.884 600 c 2
 552.384 600 l 2
 566.384 600 582.261 594.939 573.666 560 c 2
 551.21 476 l 2
 541.453 439.5 518.033 483 477.296 428 c 0
 403.061 327.774 413.746 183.93 389.284 107 c 0
 376.566 67 359.6 41 335.509 22 c 0
 310.15 2 267.814 -11.5781 264.686 4 c 0
 261.473 20 270.141 -5.5 313.477 152.5 c 0
 321.71 182.516 344.946 311 392.578 388 c 0
 422.344 436.118 442.649 440.514 445.191 450 c 0
 447.871 460 435.099 458 426.335 458 c 18
 163.335 458 l 2
 106.065 458 86.1924 485 102.672 546.5 c 0
EndSplineSet
PairPos2: "'kern' Horizontal Kerning in Hebrew lookup 0 subtable" quotesingle dx=17 dy=0 dh=17 dv=0 dx=0 dy=0 dh=0 dv=0
PairPos2: "'kern' Horizontal Kerning in Hebrew lookup 0 subtable" quoteright dx=17 dy=0 dh=17 dv=0 dx=0 dy=0 dh=0 dv=0
PairPos2: "'kern' Horizontal Kerning in Hebrew lookup 0 subtable" quotedblright dx=17 dy=0 dh=17 dv=0 dx=0 dy=0 dh=0 dv=0
PairPos2: "'kern' Horizontal Kerning in Hebrew lookup 0 subtable" quotedbl dx=17 dy=0 dh=17 dv=0 dx=0 dy=0 dh=0 dv=0
PairPos2: "'kern' Horizontal Kerning in Hebrew lookup 0 subtable" question dx=25 dy=0 dh=25 dv=0 dx=0 dy=0 dh=0 dv=0
PairPos2: "'kern' Horizontal Kerning in Hebrew lookup 0 subtable" period dx=-100 dy=0 dh=-100 dv=0 dx=0 dy=0 dh=0 dv=0
PairPos2: "'kern' Horizontal Kerning in Hebrew lookup 0 subtable" ellipsis dx=-100 dy=0 dh=-100 dv=0 dx=0 dy=0 dh=0 dv=0
PairPos2: "'kern' Horizontal Kerning in Hebrew lookup 0 subtable" comma dx=-100 dy=0 dh=-100 dv=0 dx=0 dy=0 dh=0 dv=0
PairPos2: "'kern' Horizontal Kerning in Hebrew lookup 0 subtable" uni05F4 dx=17 dy=0 dh=17 dv=0 dx=0 dy=0 dh=0 dv=0
PairPos2: "'kern' Horizontal Kerning in Hebrew lookup 0 subtable" uni05F3 dx=17 dy=0 dh=17 dv=0 dx=0 dy=0 dh=0 dv=0
PairPos2: "'kern' Horizontal Kerning in Hebrew lookup 0 subtable" uniFB48 dx=10 dy=0 dh=10 dv=0 dx=0 dy=0 dh=0 dv=0
PairPos2: "'kern' Horizontal Kerning in Hebrew lookup 0 subtable" afii57688 dx=10 dy=0 dh=10 dv=0 dx=0 dy=0 dh=0 dv=0
PairPos2: "'kern' Horizontal Kerning in Hebrew lookup 0 subtable" uniFB47 dx=10 dy=0 dh=10 dv=0 dx=0 dy=0 dh=0 dv=0
PairPos2: "'kern' Horizontal Kerning in Hebrew lookup 0 subtable" afii57687 dx=10 dy=0 dh=10 dv=0 dx=0 dy=0 dh=0 dv=0
PairPos2: "'kern' Horizontal Kerning in Hebrew lookup 0 subtable" uniFB43 dx=-25 dy=0 dh=-25 dv=0 dx=0 dy=0 dh=0 dv=0
PairPos2: "'kern' Horizontal Kerning in Hebrew lookup 0 subtable" afii57683 dx=-25 dy=0 dh=-25 dv=0 dx=0 dy=0 dh=0 dv=0
PairPos2: "'kern' Horizontal Kerning in Hebrew lookup 0 subtable" uniFB41 dx=-15 dy=0 dh=-15 dv=0 dx=0 dy=0 dh=0 dv=0
PairPos2: "'kern' Horizontal Kerning in Hebrew lookup 0 subtable" afii57681 dx=-15 dy=0 dh=-15 dv=0 dx=0 dy=0 dh=0 dv=0
PairPos2: "'kern' Horizontal Kerning in Hebrew lookup 0 subtable" uniFB3E dx=-10 dy=0 dh=-10 dv=0 dx=0 dy=0 dh=0 dv=0
PairPos2: "'kern' Horizontal Kerning in Hebrew lookup 0 subtable" afii57678 dx=-10 dy=0 dh=-10 dv=0 dx=0 dy=0 dh=0 dv=0
PairPos2: "'kern' Horizontal Kerning in Hebrew lookup 0 subtable" uniFB38 dx=-10 dy=0 dh=-10 dv=0 dx=0 dy=0 dh=0 dv=0
PairPos2: "'kern' Horizontal Kerning in Hebrew lookup 0 subtable" afii57672 dx=-10 dy=0 dh=-10 dv=0 dx=0 dy=0 dh=0 dv=0
PairPos2: "'kern' Horizontal Kerning in Hebrew lookup 0 subtable" uniFB32 dx=-30 dy=0 dh=-30 dv=0 dx=0 dy=0 dh=0 dv=0
PairPos2: "'kern' Horizontal Kerning in Hebrew lookup 0 subtable" afii57666 dx=-30 dy=0 dh=-30 dv=0 dx=0 dy=0 dh=0 dv=0
PairPos2: "'kern' Horizontal Kerning in Hebrew lookup 0 subtable" uniFB4C dx=-15 dy=0 dh=-15 dv=0 dx=0 dy=0 dh=0 dv=0
PairPos2: "'kern' Horizontal Kerning in Hebrew lookup 0 subtable" uniFB31 dx=-15 dy=0 dh=-15 dv=0 dx=0 dy=0 dh=0 dv=0
PairPos2: "'kern' Horizontal Kerning in Hebrew lookup 0 subtable" afii57665 dx=-15 dy=0 dh=-15 dv=0 dx=0 dy=0 dh=0 dv=0
PairPos2: "'kern' Horizontal Kerning in Hebrew lookup 0 subtable" afii57645 dx=20 dy=0 dh=20 dv=0 dx=0 dy=0 dh=0 dv=0
Substitution2: "WideLetters" uniFB22
Comment: "%DiaToBase1+AD0A-370+AAoA%DiaToBase2+AD0A-360+AAoA%DiaToBase3+AD0A-310+AAoA%DiaToBaseO+AD0A--20+AAoA%DiaToBaseU+AD0A-315+AAoA" 
EndChar

StartChar: afii57668
Encoding: 1492 1492 149
Width: 577
VWidth: 1000
Flags: HMW
AnchorPoint: "DiaToBaseD" 216 0 basechar 0
AnchorPoint: "DiaToBaseU" 195 0 basechar 0
AnchorPoint: "DiaToBase3" 205 0 basechar 0
AnchorPoint: "DiaToBase2" 195 0 basechar 0
AnchorPoint: "DiaToBase1" 195 0 basechar 0
LayerCount: 2
Back
SplineSet
140.14 325.5 m 0
 147.64 325.5 151.14 323.5 148.64 316.5 c 0
 140.291 293.122 140.723 221.807 143.64 162 c 0
 144.64 141.5 147.14 56.5 132.64 37.5 c 8
 111.532 9.83984 65.6396 -3 55.1396 -2 c 0
 47.4121 -1.26367 44.1396 3.5 46.9316 10.5 c 0
 51.4678 21.875 53.2266 50.2559 54.1396 131.5 c 0
 54.876 197.004 50.6396 269 70.6396 295 c 0
 89.748 319.842 110.624 325.5 140.14 325.5 c 0
492.64 107 m 0
 490.64 67 480.64 41 461.64 22 c 0
 441.64 2 402.941 -11.5781 395.64 4 c 0
 388.14 20 403.64 -5.5 404.64 152.5 c 0
 404.831 182.516 393.64 237 403.64 382 c 0
 407.233 434.116 441.2 440.644 439.64 450 c 0
 437.64 462 427.629 458 418.64 458 c 18
 125.64 458 l 10
 102.55 458 90.6396 460 69.6396 472 c 0
 60.3184 477.326 49.6396 493.5 45.6396 510 c 8
 42.4131 523.309 41.416 530.308 41.6396 544 c 24
 41.9902 565.438 42.3223 576.848 49.6396 597 c 24
 56.9912 617.247 62.1396 634.5 77.6396 643 c 8
 84.6895 646.866 95.1396 646.5 97.6396 641 c 0
 99.4072 637.111 96.1396 628.5 97.6396 619 c 8
 99.3379 608.243 109.14 600 117.14 600 c 2
 476.64 600 l 2
 490.64 600 507.872 594.939 508.64 560 c 2
 508.666 476 l 2
 507.714 436.022 496.64 470 477.64 428 c 0
 450.309 367.585 496.486 183.93 492.64 107 c 0
EndSplineSet
Fore
SplineSet
217.909 600 m 2
 577.409 600 l 2
 591.409 600 607.285 594.939 598.691 560 c 2
 576.21 476 l 2
 565.37 435.5 562.576 470 532.322 428 c 0
 488.803 367.585 485.77 183.93 461.311 107 c 0
 448.593 67 431.626 41 407.535 22 c 0
 382.176 2 339.839 -11.5781 336.712 4 c 0
 333.499 20 342.166 -5.5 385.502 152.5 c 0
 393.736 182.516 397.144 237 445.996 382 c 0
 463.554 434.116 499.271 440.644 500.217 450 c 0
 501.433 462 490.35 458 481.36 458 c 18
 188.36 458 l 2
 131.091 458 111.218 485 127.697 546.5 c 0
 139.621 591 174.424 646 201.451 646 c 0
 217.924 646 205.025 632.859 203.501 619 c 8
 202.347 608.512 209.909 600 217.909 600 c 2
167.357 325.5 m 0
 174.857 325.5 177.467 323.627 173.446 316.5 c 0
 135.085 248.5 125.481 89.5 80.3164 38.5 c 0
 54.5986 9.46094 4.83594 -3 -5.39648 -2 c 0
 -12.9268 -1.26367 -14.1904 3.23047 -10.2549 10.5 c 0
 8.69141 45.5 20.4912 97 29.375 131.5 c 0
 46.2422 197.005 62.7178 269 89.6846 295 c 0
 115.449 319.842 137.842 325.5 167.357 325.5 c 0
EndSplineSet
PairPos2: "'kern' Horizontal Kerning in Hebrew lookup 0 subtable" quotesingle dx=-10 dy=0 dh=-10 dv=0 dx=0 dy=0 dh=0 dv=0
PairPos2: "'kern' Horizontal Kerning in Hebrew lookup 0 subtable" quoteright dx=-10 dy=0 dh=-10 dv=0 dx=0 dy=0 dh=0 dv=0
PairPos2: "'kern' Horizontal Kerning in Hebrew lookup 0 subtable" quotedblright dx=-10 dy=0 dh=-10 dv=0 dx=0 dy=0 dh=0 dv=0
PairPos2: "'kern' Horizontal Kerning in Hebrew lookup 0 subtable" quotedbl dx=-10 dy=0 dh=-10 dv=0 dx=0 dy=0 dh=0 dv=0
PairPos2: "'kern' Horizontal Kerning in Hebrew lookup 0 subtable" uniFB2D dx=-10 dy=0 dh=-10 dv=0 dx=0 dy=0 dh=0 dv=0
PairPos2: "'kern' Horizontal Kerning in Hebrew lookup 0 subtable" uniFB2C dx=-10 dy=0 dh=-10 dv=0 dx=0 dy=0 dh=0 dv=0
PairPos2: "'kern' Horizontal Kerning in Hebrew lookup 0 subtable" uniFB42 dx=-10 dy=0 dh=-10 dv=0 dx=0 dy=0 dh=0 dv=0
PairPos2: "'kern' Horizontal Kerning in Hebrew lookup 0 subtable" uniFB3D dx=10 dy=0 dh=10 dv=0 dx=0 dy=0 dh=0 dv=0
PairPos2: "'kern' Horizontal Kerning in Hebrew lookup 0 subtable" uniFB37 dx=10 dy=0 dh=10 dv=0 dx=0 dy=0 dh=0 dv=0
PairPos2: "'kern' Horizontal Kerning in Hebrew lookup 0 subtable" uni05F4 dx=-10 dy=0 dh=-10 dv=0 dx=0 dy=0 dh=0 dv=0
PairPos2: "'kern' Horizontal Kerning in Hebrew lookup 0 subtable" uni05F3 dx=-10 dy=0 dh=-10 dv=0 dx=0 dy=0 dh=0 dv=0
PairPos2: "'kern' Horizontal Kerning in Hebrew lookup 0 subtable" uniFB4A dx=10 dy=0 dh=10 dv=0 dx=0 dy=0 dh=0 dv=0
PairPos2: "'kern' Horizontal Kerning in Hebrew lookup 0 subtable" uniFB28 dx=10 dy=0 dh=10 dv=0 dx=0 dy=0 dh=0 dv=0
PairPos2: "'kern' Horizontal Kerning in Hebrew lookup 0 subtable" afii57690 dx=10 dy=0 dh=10 dv=0 dx=0 dy=0 dh=0 dv=0
PairPos2: "'kern' Horizontal Kerning in Hebrew lookup 0 subtable" uniFB49 dx=-10 dy=0 dh=-10 dv=0 dx=0 dy=0 dh=0 dv=0
PairPos2: "'kern' Horizontal Kerning in Hebrew lookup 0 subtable" afii57695 dx=-10 dy=0 dh=-10 dv=0 dx=0 dy=0 dh=0 dv=0
PairPos2: "'kern' Horizontal Kerning in Hebrew lookup 0 subtable" afii57694 dx=-10 dy=0 dh=-10 dv=0 dx=0 dy=0 dh=0 dv=0
PairPos2: "'kern' Horizontal Kerning in Hebrew lookup 0 subtable" afii57689 dx=-10 dy=0 dh=-10 dv=0 dx=0 dy=0 dh=0 dv=0
PairPos2: "'kern' Horizontal Kerning in Hebrew lookup 0 subtable" uniFB48 dx=30 dy=0 dh=30 dv=0 dx=0 dy=0 dh=0 dv=0
PairPos2: "'kern' Horizontal Kerning in Hebrew lookup 0 subtable" afii57688 dx=30 dy=0 dh=30 dv=0 dx=0 dy=0 dh=0 dv=0
PairPos2: "'kern' Horizontal Kerning in Hebrew lookup 0 subtable" uniFB46 dx=-10 dy=0 dh=-10 dv=0 dx=0 dy=0 dh=0 dv=0
PairPos2: "'kern' Horizontal Kerning in Hebrew lookup 0 subtable" afii57686 dx=-10 dy=0 dh=-10 dv=0 dx=0 dy=0 dh=0 dv=0
PairPos2: "'kern' Horizontal Kerning in Hebrew lookup 0 subtable" uniFB4E dx=20 dy=0 dh=20 dv=0 dx=0 dy=0 dh=0 dv=0
PairPos2: "'kern' Horizontal Kerning in Hebrew lookup 0 subtable" uniFB44 dx=20 dy=0 dh=20 dv=0 dx=0 dy=0 dh=0 dv=0
PairPos2: "'kern' Horizontal Kerning in Hebrew lookup 0 subtable" afii57684 dx=20 dy=0 dh=20 dv=0 dx=0 dy=0 dh=0 dv=0
PairPos2: "'kern' Horizontal Kerning in Hebrew lookup 0 subtable" uniFB43 dx=10 dy=0 dh=10 dv=0 dx=0 dy=0 dh=0 dv=0
PairPos2: "'kern' Horizontal Kerning in Hebrew lookup 0 subtable" afii57683 dx=10 dy=0 dh=10 dv=0 dx=0 dy=0 dh=0 dv=0
PairPos2: "'kern' Horizontal Kerning in Hebrew lookup 0 subtable" afii57682 dx=-10 dy=0 dh=-10 dv=0 dx=0 dy=0 dh=0 dv=0
PairPos2: "'kern' Horizontal Kerning in Hebrew lookup 0 subtable" uniFB41 dx=10 dy=0 dh=10 dv=0 dx=0 dy=0 dh=0 dv=0
PairPos2: "'kern' Horizontal Kerning in Hebrew lookup 0 subtable" afii57681 dx=10 dy=0 dh=10 dv=0 dx=0 dy=0 dh=0 dv=0
PairPos2: "'kern' Horizontal Kerning in Hebrew lookup 0 subtable" uniFB40 dx=10 dy=0 dh=10 dv=0 dx=0 dy=0 dh=0 dv=0
PairPos2: "'kern' Horizontal Kerning in Hebrew lookup 0 subtable" afii57680 dx=10 dy=0 dh=10 dv=0 dx=0 dy=0 dh=0 dv=0
PairPos2: "'kern' Horizontal Kerning in Hebrew lookup 0 subtable" uniFB3E dx=10 dy=0 dh=10 dv=0 dx=0 dy=0 dh=0 dv=0
PairPos2: "'kern' Horizontal Kerning in Hebrew lookup 0 subtable" afii57678 dx=10 dy=0 dh=10 dv=0 dx=0 dy=0 dh=0 dv=0
PairPos2: "'kern' Horizontal Kerning in Hebrew lookup 0 subtable" uniFB26 dx=10 dy=0 dh=10 dv=0 dx=0 dy=0 dh=0 dv=0
PairPos2: "'kern' Horizontal Kerning in Hebrew lookup 0 subtable" afii57677 dx=10 dy=0 dh=10 dv=0 dx=0 dy=0 dh=0 dv=0
PairPos2: "'kern' Horizontal Kerning in Hebrew lookup 0 subtable" uniFB4D dx=10 dy=0 dh=10 dv=0 dx=0 dy=0 dh=0 dv=0
PairPos2: "'kern' Horizontal Kerning in Hebrew lookup 0 subtable" uniFB3B dx=10 dy=0 dh=10 dv=0 dx=0 dy=0 dh=0 dv=0
PairPos2: "'kern' Horizontal Kerning in Hebrew lookup 0 subtable" uniFB24 dx=10 dy=0 dh=10 dv=0 dx=0 dy=0 dh=0 dv=0
PairPos2: "'kern' Horizontal Kerning in Hebrew lookup 0 subtable" afii57675 dx=10 dy=0 dh=10 dv=0 dx=0 dy=0 dh=0 dv=0
PairPos2: "'kern' Horizontal Kerning in Hebrew lookup 0 subtable" uniFB38 dx=10 dy=0 dh=10 dv=0 dx=0 dy=0 dh=0 dv=0
PairPos2: "'kern' Horizontal Kerning in Hebrew lookup 0 subtable" afii57672 dx=10 dy=0 dh=10 dv=0 dx=0 dy=0 dh=0 dv=0
PairPos2: "'kern' Horizontal Kerning in Hebrew lookup 0 subtable" afii57671 dx=10 dy=0 dh=10 dv=0 dx=0 dy=0 dh=0 dv=0
PairPos2: "'kern' Horizontal Kerning in Hebrew lookup 0 subtable" uniFB4C dx=10 dy=0 dh=10 dv=0 dx=0 dy=0 dh=0 dv=0
PairPos2: "'kern' Horizontal Kerning in Hebrew lookup 0 subtable" uniFB31 dx=10 dy=0 dh=10 dv=0 dx=0 dy=0 dh=0 dv=0
PairPos2: "'kern' Horizontal Kerning in Hebrew lookup 0 subtable" afii57665 dx=10 dy=0 dh=10 dv=0 dx=0 dy=0 dh=0 dv=0
Substitution2: "WideLetters" uniFB23
Comment: "%DiaToBase1+AD0A-270+AAoA%DiaToBase2+AD0A-270+AAoA%DiaToBase3+AD0A-280+AAoA%DiaToBaseO+AD0A-0+AAoA%DiaToBaseU+AD0A-270+AAoA" 
EndChar

StartChar: afii57669
Encoding: 1493 1493 150
Width: 340
VWidth: 1000
Flags: HMW
AnchorPoint: "DiaToBaseD" 65 0 basechar 0
AnchorPoint: "DiaToBaseU" 125 0 basechar 0
AnchorPoint: "DiaToBase3" 125 0 basechar 0
AnchorPoint: "DiaToBase2" 125 0 basechar 0
AnchorPoint: "DiaToBase1" 165 0 basechar 0
LayerCount: 2
Back
SplineSet
112.876 600 m 2
 166.475 600 l 2
 261.095 600 277.475 545 277.475 468 c 0
 277.475 326.175 280.083 202.626 276.459 71 c 0
 275 18 245 -6 225.975 -6 c 12
 219.632 -6 214.475 -0.842773 214.475 5.5 c 20
 214.475 134 213.975 274.5 213.975 363 c 4
 213.975 423.5 213.198 458 130.688 458 c 6
 121.376 458 l 2
 64.1064 458 36.999 485 36.999 546.5 c 0
 36.999 591 57.0654 646 84.0928 646 c 0
 100.565 646 91.1875 632.859 93.376 619 c 8
 95.0322 608.512 104.876 600 112.876 600 c 2
EndSplineSet
Fore
SplineSet
208.646 600 m 2
 262.244 600 l 2
 356.864 600 358.508 545 337.875 468 c 0
 299.873 326.175 269.377 202.626 230.483 71 c 0
 214.823 18 173.393 -6 154.367 -6 c 8
 148.024 -6 144.249 -0.842773 145.949 5.5 c 16
 180.38 134 217.527 274.5 241.24 363 c 0
 257.451 423.5 265.919 458 183.409 458 c 2
 179.097 458 l 2
 121.827 458 101.954 485 118.434 546.5 c 0
 130.357 591 165.16 646 192.188 646 c 0
 208.66 646 195.762 632.859 194.236 619 c 8
 193.082 608.512 200.646 600 208.646 600 c 2
EndSplineSet
PairPos2: "'kern' Horizontal Kerning in Hebrew lookup 0 subtable" question dx=10 dy=0 dh=10 dv=0 dx=0 dy=0 dh=0 dv=0
PairPos2: "'kern' Horizontal Kerning in Hebrew lookup 0 subtable" period dx=-100 dy=0 dh=-100 dv=0 dx=0 dy=0 dh=0 dv=0
PairPos2: "'kern' Horizontal Kerning in Hebrew lookup 0 subtable" ellipsis dx=-100 dy=0 dh=-100 dv=0 dx=0 dy=0 dh=0 dv=0
PairPos2: "'kern' Horizontal Kerning in Hebrew lookup 0 subtable" hyphen dx=-20 dy=0 dh=-20 dv=0 dx=0 dy=0 dh=0 dv=0
PairPos2: "'kern' Horizontal Kerning in Hebrew lookup 0 subtable" comma dx=-100 dy=0 dh=-100 dv=0 dx=0 dy=0 dh=0 dv=0
PairPos2: "'kern' Horizontal Kerning in Hebrew lookup 0 subtable" uniFB3D dx=-10 dy=0 dh=-10 dv=0 dx=0 dy=0 dh=0 dv=0
PairPos2: "'kern' Horizontal Kerning in Hebrew lookup 0 subtable" uniFB4A dx=-15 dy=0 dh=-15 dv=0 dx=0 dy=0 dh=0 dv=0
PairPos2: "'kern' Horizontal Kerning in Hebrew lookup 0 subtable" uniFB28 dx=-15 dy=0 dh=-15 dv=0 dx=0 dy=0 dh=0 dv=0
PairPos2: "'kern' Horizontal Kerning in Hebrew lookup 0 subtable" afii57690 dx=-15 dy=0 dh=-15 dv=0 dx=0 dy=0 dh=0 dv=0
PairPos2: "'kern' Horizontal Kerning in Hebrew lookup 0 subtable" uniFB46 dx=-10 dy=0 dh=-10 dv=0 dx=0 dy=0 dh=0 dv=0
PairPos2: "'kern' Horizontal Kerning in Hebrew lookup 0 subtable" afii57686 dx=-10 dy=0 dh=-10 dv=0 dx=0 dy=0 dh=0 dv=0
PairPos2: "'kern' Horizontal Kerning in Hebrew lookup 0 subtable" uniFB43 dx=-20 dy=0 dh=-20 dv=0 dx=0 dy=0 dh=0 dv=0
PairPos2: "'kern' Horizontal Kerning in Hebrew lookup 0 subtable" afii57683 dx=-20 dy=0 dh=-20 dv=0 dx=0 dy=0 dh=0 dv=0
PairPos2: "'kern' Horizontal Kerning in Hebrew lookup 0 subtable" uniFB41 dx=-15 dy=0 dh=-15 dv=0 dx=0 dy=0 dh=0 dv=0
PairPos2: "'kern' Horizontal Kerning in Hebrew lookup 0 subtable" afii57681 dx=-15 dy=0 dh=-15 dv=0 dx=0 dy=0 dh=0 dv=0
PairPos2: "'kern' Horizontal Kerning in Hebrew lookup 0 subtable" uniFB40 dx=-15 dy=0 dh=-15 dv=0 dx=0 dy=0 dh=0 dv=0
PairPos2: "'kern' Horizontal Kerning in Hebrew lookup 0 subtable" afii57680 dx=-15 dy=0 dh=-15 dv=0 dx=0 dy=0 dh=0 dv=0
PairPos2: "'kern' Horizontal Kerning in Hebrew lookup 0 subtable" uniFB3E dx=-15 dy=0 dh=-15 dv=0 dx=0 dy=0 dh=0 dv=0
PairPos2: "'kern' Horizontal Kerning in Hebrew lookup 0 subtable" afii57678 dx=-15 dy=0 dh=-15 dv=0 dx=0 dy=0 dh=0 dv=0
PairPos2: "'kern' Horizontal Kerning in Hebrew lookup 0 subtable" uniFB26 dx=-10 dy=0 dh=-10 dv=0 dx=0 dy=0 dh=0 dv=0
PairPos2: "'kern' Horizontal Kerning in Hebrew lookup 0 subtable" afii57677 dx=-10 dy=0 dh=-10 dv=0 dx=0 dy=0 dh=0 dv=0
PairPos2: "'kern' Horizontal Kerning in Hebrew lookup 0 subtable" uniFB4D dx=-20 dy=0 dh=-20 dv=0 dx=0 dy=0 dh=0 dv=0
PairPos2: "'kern' Horizontal Kerning in Hebrew lookup 0 subtable" uniFB3B dx=-20 dy=0 dh=-20 dv=0 dx=0 dy=0 dh=0 dv=0
PairPos2: "'kern' Horizontal Kerning in Hebrew lookup 0 subtable" uniFB24 dx=-20 dy=0 dh=-20 dv=0 dx=0 dy=0 dh=0 dv=0
PairPos2: "'kern' Horizontal Kerning in Hebrew lookup 0 subtable" afii57675 dx=-20 dy=0 dh=-20 dv=0 dx=0 dy=0 dh=0 dv=0
PairPos2: "'kern' Horizontal Kerning in Hebrew lookup 0 subtable" uniFB38 dx=-10 dy=0 dh=-10 dv=0 dx=0 dy=0 dh=0 dv=0
PairPos2: "'kern' Horizontal Kerning in Hebrew lookup 0 subtable" afii57672 dx=-10 dy=0 dh=-10 dv=0 dx=0 dy=0 dh=0 dv=0
PairPos2: "'kern' Horizontal Kerning in Hebrew lookup 0 subtable" uniFB32 dx=-40 dy=0 dh=-40 dv=0 dx=0 dy=0 dh=0 dv=0
PairPos2: "'kern' Horizontal Kerning in Hebrew lookup 0 subtable" afii57666 dx=-40 dy=0 dh=-40 dv=0 dx=0 dy=0 dh=0 dv=0
PairPos2: "'kern' Horizontal Kerning in Hebrew lookup 0 subtable" uniFB4C dx=-35 dy=0 dh=-35 dv=0 dx=0 dy=0 dh=0 dv=0
PairPos2: "'kern' Horizontal Kerning in Hebrew lookup 0 subtable" uniFB31 dx=-35 dy=0 dh=-35 dv=0 dx=0 dy=0 dh=0 dv=0
PairPos2: "'kern' Horizontal Kerning in Hebrew lookup 0 subtable" afii57665 dx=-35 dy=0 dh=-35 dv=0 dx=0 dy=0 dh=0 dv=0
PairPos2: "'kern' Horizontal Kerning in Hebrew lookup 0 subtable" uniFB30 dx=-10 dy=0 dh=-10 dv=0 dx=0 dy=0 dh=0 dv=0
PairPos2: "'kern' Horizontal Kerning in Hebrew lookup 0 subtable" uniFB2F dx=-10 dy=0 dh=-10 dv=0 dx=0 dy=0 dh=0 dv=0
PairPos2: "'kern' Horizontal Kerning in Hebrew lookup 0 subtable" uniFB2E dx=-10 dy=0 dh=-10 dv=0 dx=0 dy=0 dh=0 dv=0
PairPos2: "'kern' Horizontal Kerning in Hebrew lookup 0 subtable" uniFB21 dx=-10 dy=0 dh=-10 dv=0 dx=0 dy=0 dh=0 dv=0
PairPos2: "'kern' Horizontal Kerning in Hebrew lookup 0 subtable" afii57664 dx=-10 dy=0 dh=-10 dv=0 dx=0 dy=0 dh=0 dv=0
Comment: "%DiaToBase1+AD0A-240+AAoA%DiaToBase2+AD0A-200+AAoA%DiaToBase3+AD0A-200+AAoA%DiaToBaseO+AD0A-0+AAoA%DiaToBaseU+AD0A-200+AAoA" 
EndChar

StartChar: afii57670
Encoding: 1494 1494 151
Width: 339
VWidth: 1000
Flags: HMW
AnchorPoint: "DiaToBaseD" -15 0 basechar 0
AnchorPoint: "DiaToBaseO" -70 0 basechar 0
AnchorPoint: "DiaToBaseU" 85 0 basechar 0
AnchorPoint: "DiaToBase3" 95 0 basechar 0
AnchorPoint: "DiaToBase2" 95 0 basechar 0
AnchorPoint: "DiaToBase1" 90 0 basechar 0
LayerCount: 2
Back
SplineSet
204.452 107 m 0
 202.452 67 192.452 41 173.452 22 c 0
 153.452 2 119.754 -11.5781 112.452 4 c 0
 104.951 20 115.452 8 116.452 166 c 0
 116.642 196.016 106.451 340 124.452 392 c 0
 141.132 440.186 154.457 426.918 152.457 449.918 c 0
 151.591 459.88 140.458 458 131.457 458 c 18
 104.496 458 l 10
 73.1061 458 47.863 479.426 40.4512 510 c 12
 33.6162 538.193 34.6411 569.983 44.4512 597 c 28
 51.8027 617.247 56.9512 634.5 72.4512 643 c 12
 79.501 646.866 89.9512 646.5 92.4512 641 c 4
 94.2188 637.111 90.9512 628.5 92.4512 619 c 12
 94.1514 608.233 103.983 600 111.984 600 c 2
 170.452 600 l 2
 184.452 600 246.3 595.674 270.452 560 c 24
 297.811 519.59 284.452 454 270.452 438 c 0
 259.276 425.228 221.156 473.228 198.452 448 c 0
 162.452 408 208.299 183.93 204.452 107 c 0
EndSplineSet
Fore
SplineSet
212.754 600 m 2
 283.27 600 l 2
 311.27 600 348.597 591.685 360.504 560 c 24
 375.539 519.993 346.101 454 327.813 438 c 0
 313.216 425.228 287.957 473.228 258.493 448 c 0
 211.775 408 197.583 183.93 173.123 107 c 0
 160.404 67 143.438 41 119.347 22 c 0
 93.9883 2 56.6514 -11.5781 53.5234 4 c 0
 50.3096 20 57.5957 8 100.932 166 c 0
 109.164 196.016 134.74 329.5 166.675 381.5 c 0
 196.266 429.686 200.407 423.082 208.604 444.5 c 0
 212.405 454.435 202.966 458 194.178 458 c 18
 183.205 458 l 2
 125.936 458 106.062 485 122.542 546.5 c 0
 134.466 591 169.269 646 196.296 646 c 0
 212.77 646 199.87 632.859 198.345 619 c 8
 197.191 608.512 204.754 600 212.754 600 c 2
EndSplineSet
PairPos2: "'kern' Horizontal Kerning in Hebrew lookup 0 subtable" question dx=10 dy=0 dh=10 dv=0 dx=0 dy=0 dh=0 dv=0
PairPos2: "'kern' Horizontal Kerning in Hebrew lookup 0 subtable" period dx=-50 dy=0 dh=-50 dv=0 dx=0 dy=0 dh=0 dv=0
PairPos2: "'kern' Horizontal Kerning in Hebrew lookup 0 subtable" ellipsis dx=-50 dy=0 dh=-50 dv=0 dx=0 dy=0 dh=0 dv=0
PairPos2: "'kern' Horizontal Kerning in Hebrew lookup 0 subtable" hyphen dx=-20 dy=0 dh=-20 dv=0 dx=0 dy=0 dh=0 dv=0
PairPos2: "'kern' Horizontal Kerning in Hebrew lookup 0 subtable" comma dx=-50 dy=0 dh=-50 dv=0 dx=0 dy=0 dh=0 dv=0
PairPos2: "'kern' Horizontal Kerning in Hebrew lookup 0 subtable" uniFB48 dx=10 dy=0 dh=10 dv=0 dx=0 dy=0 dh=0 dv=0
PairPos2: "'kern' Horizontal Kerning in Hebrew lookup 0 subtable" afii57688 dx=10 dy=0 dh=10 dv=0 dx=0 dy=0 dh=0 dv=0
PairPos2: "'kern' Horizontal Kerning in Hebrew lookup 0 subtable" uniFB4D dx=-10 dy=0 dh=-10 dv=0 dx=0 dy=0 dh=0 dv=0
PairPos2: "'kern' Horizontal Kerning in Hebrew lookup 0 subtable" uniFB3B dx=-10 dy=0 dh=-10 dv=0 dx=0 dy=0 dh=0 dv=0
PairPos2: "'kern' Horizontal Kerning in Hebrew lookup 0 subtable" uniFB24 dx=-10 dy=0 dh=-10 dv=0 dx=0 dy=0 dh=0 dv=0
PairPos2: "'kern' Horizontal Kerning in Hebrew lookup 0 subtable" afii57675 dx=-10 dy=0 dh=-10 dv=0 dx=0 dy=0 dh=0 dv=0
PairPos2: "'kern' Horizontal Kerning in Hebrew lookup 0 subtable" uniFB32 dx=-25 dy=0 dh=-25 dv=0 dx=0 dy=0 dh=0 dv=0
PairPos2: "'kern' Horizontal Kerning in Hebrew lookup 0 subtable" afii57666 dx=-25 dy=0 dh=-25 dv=0 dx=0 dy=0 dh=0 dv=0
PairPos2: "'kern' Horizontal Kerning in Hebrew lookup 0 subtable" uniFB30 dx=-20 dy=0 dh=-20 dv=0 dx=0 dy=0 dh=0 dv=0
PairPos2: "'kern' Horizontal Kerning in Hebrew lookup 0 subtable" uniFB2F dx=-20 dy=0 dh=-20 dv=0 dx=0 dy=0 dh=0 dv=0
PairPos2: "'kern' Horizontal Kerning in Hebrew lookup 0 subtable" uniFB2E dx=-20 dy=0 dh=-20 dv=0 dx=0 dy=0 dh=0 dv=0
PairPos2: "'kern' Horizontal Kerning in Hebrew lookup 0 subtable" uniFB21 dx=-20 dy=0 dh=-20 dv=0 dx=0 dy=0 dh=0 dv=0
PairPos2: "'kern' Horizontal Kerning in Hebrew lookup 0 subtable" afii57664 dx=-20 dy=0 dh=-20 dv=0 dx=0 dy=0 dh=0 dv=0
Comment: "%DiaToBase1+AD0A-165+AAoA%DiaToBase2+AD0A-170+AAoA%DiaToBase3+AD0A-170+AAoA%DiaToBaseO+AD0A-5+AAoA%DiaToBaseU+AD0A-160+AAoA" 
EndChar

StartChar: afii57671
Encoding: 1495 1495 152
Width: 593
VWidth: 1000
Flags: HMW
AnchorPoint: "DiaToBaseD" 227 0 basechar 0
AnchorPoint: "DiaToBaseU" 215 0 basechar 0
AnchorPoint: "DiaToBase3" 220 0 basechar 0
AnchorPoint: "DiaToBase2" 210 0 basechar 0
AnchorPoint: "DiaToBase1" 210 0 basechar 0
LayerCount: 2
Fore
SplineSet
159.724 458 m 0
 121.367 466 104.205 489.851 119.385 546.5 c 0
 131.309 591 166.111 646 193.139 646 c 0
 209.612 646 196.713 632.859 195.188 619 c 8
 194.032 608.512 201.597 600 209.597 600 c 2
 599.099 600 l 2
 613.099 600 628.973 594.939 620.381 560 c 2
 597.88 476 l 2
 586.215 436.022 584.265 470 554.012 428 c 0
 510.491 367.585 507.459 183.93 483 107 c 0
 470.281 67 453.314 41 429.224 22 c 0
 403.865 2 361.527 -11.5781 358.4 4 c 0
 355.188 20 368.473 8 407.191 152.5 c 0
 426.35 224 434.368 285 458.344 353.336 c 0
 484.533 427.985 499.149 426 509.836 441.001 c 0
 517.226 451.375 512.391 458 495.724 458 c 2
 286.049 458 l 2
 286.049 458 243.781 457 218.01 428 c 0
 167.944 371.661 147.459 183.93 122.999 107 c 0
 110.28 67 93.3135 41 69.2227 22 c 0
 43.8643 2 1.52734 -11.5781 -1.59961 4 c 0
 -4.8125 20 6.32812 0 47.1904 152.5 c 0
 65.2773 220 81.2969 281 102.105 340.001 c 0
 130.385 420.181 163.759 432.002 168.974 444.002 c 0
 171.695 450.264 171.346 455.576 159.724 458 c 0
EndSplineSet
PairPos2: "'kern' Horizontal Kerning in Hebrew lookup 0 subtable" uniE801 dx=10 dy=0 dh=10 dv=0 dx=0 dy=0 dh=0 dv=0
PairPos2: "'kern' Horizontal Kerning in Hebrew lookup 0 subtable" question dx=10 dy=0 dh=10 dv=0 dx=0 dy=0 dh=0 dv=0
PairPos2: "'kern' Horizontal Kerning in Hebrew lookup 0 subtable" hyphen dx=10 dy=0 dh=10 dv=0 dx=0 dy=0 dh=0 dv=0
PairPos2: "'kern' Horizontal Kerning in Hebrew lookup 0 subtable" uniFB2D dx=-5 dy=0 dh=-5 dv=0 dx=0 dy=0 dh=0 dv=0
PairPos2: "'kern' Horizontal Kerning in Hebrew lookup 0 subtable" uniFB2C dx=-5 dy=0 dh=-5 dv=0 dx=0 dy=0 dh=0 dv=0
PairPos2: "'kern' Horizontal Kerning in Hebrew lookup 0 subtable" uniFB3D dx=20 dy=0 dh=20 dv=0 dx=0 dy=0 dh=0 dv=0
PairPos2: "'kern' Horizontal Kerning in Hebrew lookup 0 subtable" afii57716 dx=10 dy=0 dh=10 dv=0 dx=0 dy=0 dh=0 dv=0
PairPos2: "'kern' Horizontal Kerning in Hebrew lookup 0 subtable" uniFB4A dx=10 dy=0 dh=10 dv=0 dx=0 dy=0 dh=0 dv=0
PairPos2: "'kern' Horizontal Kerning in Hebrew lookup 0 subtable" uniFB28 dx=10 dy=0 dh=10 dv=0 dx=0 dy=0 dh=0 dv=0
PairPos2: "'kern' Horizontal Kerning in Hebrew lookup 0 subtable" afii57690 dx=10 dy=0 dh=10 dv=0 dx=0 dy=0 dh=0 dv=0
PairPos2: "'kern' Horizontal Kerning in Hebrew lookup 0 subtable" uniFB49 dx=-5 dy=0 dh=-5 dv=0 dx=0 dy=0 dh=0 dv=0
PairPos2: "'kern' Horizontal Kerning in Hebrew lookup 0 subtable" afii57695 dx=-5 dy=0 dh=-5 dv=0 dx=0 dy=0 dh=0 dv=0
PairPos2: "'kern' Horizontal Kerning in Hebrew lookup 0 subtable" afii57694 dx=-5 dy=0 dh=-5 dv=0 dx=0 dy=0 dh=0 dv=0
PairPos2: "'kern' Horizontal Kerning in Hebrew lookup 0 subtable" afii57689 dx=-5 dy=0 dh=-5 dv=0 dx=0 dy=0 dh=0 dv=0
PairPos2: "'kern' Horizontal Kerning in Hebrew lookup 0 subtable" uniFB48 dx=30 dy=0 dh=30 dv=0 dx=0 dy=0 dh=0 dv=0
PairPos2: "'kern' Horizontal Kerning in Hebrew lookup 0 subtable" afii57688 dx=30 dy=0 dh=30 dv=0 dx=0 dy=0 dh=0 dv=0
PairPos2: "'kern' Horizontal Kerning in Hebrew lookup 0 subtable" uniFB47 dx=10 dy=0 dh=10 dv=0 dx=0 dy=0 dh=0 dv=0
PairPos2: "'kern' Horizontal Kerning in Hebrew lookup 0 subtable" afii57687 dx=10 dy=0 dh=10 dv=0 dx=0 dy=0 dh=0 dv=0
PairPos2: "'kern' Horizontal Kerning in Hebrew lookup 0 subtable" uniFB46 dx=-10 dy=0 dh=-10 dv=0 dx=0 dy=0 dh=0 dv=0
PairPos2: "'kern' Horizontal Kerning in Hebrew lookup 0 subtable" afii57686 dx=-10 dy=0 dh=-10 dv=0 dx=0 dy=0 dh=0 dv=0
PairPos2: "'kern' Horizontal Kerning in Hebrew lookup 0 subtable" uniFB4E dx=10 dy=0 dh=10 dv=0 dx=0 dy=0 dh=0 dv=0
PairPos2: "'kern' Horizontal Kerning in Hebrew lookup 0 subtable" uniFB44 dx=10 dy=0 dh=10 dv=0 dx=0 dy=0 dh=0 dv=0
PairPos2: "'kern' Horizontal Kerning in Hebrew lookup 0 subtable" afii57684 dx=10 dy=0 dh=10 dv=0 dx=0 dy=0 dh=0 dv=0
PairPos2: "'kern' Horizontal Kerning in Hebrew lookup 0 subtable" uniFB40 dx=10 dy=0 dh=10 dv=0 dx=0 dy=0 dh=0 dv=0
PairPos2: "'kern' Horizontal Kerning in Hebrew lookup 0 subtable" afii57680 dx=10 dy=0 dh=10 dv=0 dx=0 dy=0 dh=0 dv=0
PairPos2: "'kern' Horizontal Kerning in Hebrew lookup 0 subtable" uniFB3E dx=20 dy=0 dh=20 dv=0 dx=0 dy=0 dh=0 dv=0
PairPos2: "'kern' Horizontal Kerning in Hebrew lookup 0 subtable" afii57678 dx=20 dy=0 dh=20 dv=0 dx=0 dy=0 dh=0 dv=0
PairPos2: "'kern' Horizontal Kerning in Hebrew lookup 0 subtable" uniFB26 dx=20 dy=0 dh=20 dv=0 dx=0 dy=0 dh=0 dv=0
PairPos2: "'kern' Horizontal Kerning in Hebrew lookup 0 subtable" afii57677 dx=20 dy=0 dh=20 dv=0 dx=0 dy=0 dh=0 dv=0
PairPos2: "'kern' Horizontal Kerning in Hebrew lookup 0 subtable" uniFB4D dx=10 dy=0 dh=10 dv=0 dx=0 dy=0 dh=0 dv=0
PairPos2: "'kern' Horizontal Kerning in Hebrew lookup 0 subtable" uniFB3B dx=10 dy=0 dh=10 dv=0 dx=0 dy=0 dh=0 dv=0
PairPos2: "'kern' Horizontal Kerning in Hebrew lookup 0 subtable" uniFB24 dx=10 dy=0 dh=10 dv=0 dx=0 dy=0 dh=0 dv=0
PairPos2: "'kern' Horizontal Kerning in Hebrew lookup 0 subtable" afii57675 dx=10 dy=0 dh=10 dv=0 dx=0 dy=0 dh=0 dv=0
PairPos2: "'kern' Horizontal Kerning in Hebrew lookup 0 subtable" uniFB38 dx=10 dy=0 dh=10 dv=0 dx=0 dy=0 dh=0 dv=0
PairPos2: "'kern' Horizontal Kerning in Hebrew lookup 0 subtable" afii57672 dx=10 dy=0 dh=10 dv=0 dx=0 dy=0 dh=0 dv=0
PairPos2: "'kern' Horizontal Kerning in Hebrew lookup 0 subtable" afii57723 dx=10 dy=0 dh=10 dv=0 dx=0 dy=0 dh=0 dv=0
PairPos2: "'kern' Horizontal Kerning in Hebrew lookup 0 subtable" afii57700 dx=10 dy=0 dh=10 dv=0 dx=0 dy=0 dh=0 dv=0
PairPos2: "'kern' Horizontal Kerning in Hebrew lookup 0 subtable" afii57669 dx=10 dy=0 dh=10 dv=0 dx=0 dy=0 dh=0 dv=0
PairPos2: "'kern' Horizontal Kerning in Hebrew lookup 0 subtable" uniFB33 dx=10 dy=0 dh=10 dv=0 dx=0 dy=0 dh=0 dv=0
PairPos2: "'kern' Horizontal Kerning in Hebrew lookup 0 subtable" uniFB22 dx=10 dy=0 dh=10 dv=0 dx=0 dy=0 dh=0 dv=0
PairPos2: "'kern' Horizontal Kerning in Hebrew lookup 0 subtable" afii57667 dx=10 dy=0 dh=10 dv=0 dx=0 dy=0 dh=0 dv=0
Comment: "%DiaToBase1+AD0A-285+AAoA%DiaToBase2+AD0A-285+AAoA%DiaToBase3+AD0A-295+AAoA%DiaToBaseO+AD0A-0+AAoA%DiaToBaseU+AD0A-290+AAoA" 
EndChar

